<svg width="48" height="48" viewBox="0 0 48 48" fill="none" xmlns="http://www.w3.org/2000/svg">
<path d="M20 30V38C20 39.5913 20.6321 41.1174 21.7574 42.2426C22.8826 43.3679 24.4087 44 26 44L34 26V3.99999H11.44C10.4753 3.98909 9.53925 4.32718 8.80419 4.95198C8.06913 5.57678 7.58465 6.44618 7.44 7.39999L4.68 25.4C4.59298 25.9733 4.63165 26.5586 4.79332 27.1155C4.95499 27.6723 5.2358 28.1874 5.61628 28.625C5.99677 29.0625 6.46784 29.4121 6.99686 29.6496C7.52587 29.887 8.10018 30.0066 8.68 30H20ZM34 3.99999H39.34C40.4719 3.97997 41.5718 4.37626 42.4308 5.11363C43.2899 5.85099 43.8483 6.87811 44 7.99999V22C43.8483 23.1219 43.2899 24.149 42.4308 24.8864C41.5718 25.6237 40.4719 26.02 39.34 26H34" fill="#8CAD63"/>
<path d="M34 26L26 44C24.4087 44 22.8826 43.3679 21.7574 42.2426C20.6321 41.1174 20 39.5913 20 38V30H8.68C8.10018 30.0066 7.52587 29.887 6.99686 29.6496C6.46784 29.4121 5.99677 29.0625 5.61628 28.625C5.2358 28.1874 4.95499 27.6723 4.79332 27.1155C4.63165 26.5586 4.59298 25.9733 4.68 25.4L7.44 7.39999C7.58465 6.44618 8.06913 5.57678 8.80419 4.95198C9.53925 4.32718 10.4753 3.98909 11.44 3.99999H34M34 26V3.99999M34 26H39.34C40.4719 26.02 41.5718 25.6237 42.4308 24.8864C43.2899 24.149 43.8483 23.1219 44 22V7.99999C43.8483 6.87811 43.2899 5.85099 42.4308 5.11363C41.5718 4.37626 40.4719 3.97997 39.34 3.99999H34" stroke="#1E1E1E" stroke-width="3" stroke-linecap="round" stroke-linejoin="round"/>
</svg>
