<svg width="624" height="351" xmlns="http://www.w3.org/2000/svg" xmlns:xlink="http://www.w3.org/1999/xlink" xml:space="preserve" overflow="hidden"><g><path d="M583.469 265.98 575.045 257.043C574.987 256.979 574.953 256.896 574.953 256.809L574.953 248.008C574.953 247.767 574.758 247.571 574.514 247.571L551.699 247.571C551.455 247.571 551.26 247.767 551.26 248.008L551.26 294.903C551.26 295.145 551.455 295.34 551.699 295.34L583.152 295.34C583.396 295.34 583.591 295.145 583.591 294.903L583.591 266.28C583.591 266.168 583.547 266.06 583.469 265.98Z" fill="#FFFFFF"/><path d="M434.324 247.57 410.483 247.57C410.242 247.57 410.046 247.766 410.046 248.007L410.046 250.195C409.508 250.191 398.231 250.201 398.231 250.201 397.99 250.201 397.795 250.397 397.795 250.638L397.795 272.991C397.795 273.232 397.99 273.428 398.231 273.428 398.231 273.428 401.862 273.432 402.433 273.428L402.433 294.902C402.433 295.144 402.628 295.339 402.87 295.339L434.324 295.339C434.565 295.339 434.761 295.144 434.761 294.902L434.761 248.007C434.761 247.766 434.565 247.57 434.324 247.57Z" fill="#FFFFFF"/><path d="M350.693 250.201 227.383 250.201C227.142 250.201 226.946 250.397 226.946 250.638L226.946 280.703C226.946 280.945 227.142 281.14 227.383 281.14L341.505 281.14C341.746 281.14 341.942 280.945 341.942 280.703 341.942 280.703 341.943 280.015 341.944 280.009 341.945 279.995 348.842 273.518 348.842 273.518 348.906 273.46 350.693 273.428 350.693 273.428 350.934 273.428 351.13 273.232 351.13 272.991L351.13 250.638C351.13 250.397 350.935 250.201 350.693 250.201Z" fill="#FFFFFF"/><path d="M574.514 175.757 392.639 175.757C392.094 175.757 391.652 175.315 391.652 174.77L391.652 168.398C391.652 168.156 391.457 167.961 391.215 167.961L227.383 167.961C227.142 167.961 226.946 168.156 226.946 168.398L226.578 187.865C226.441 187.995 225.542 188.984 225.52 189.006L217.796 196.731C217.714 196.813 217.668 196.924 217.668 197.04L217.668 277.294C217.668 277.535 217.863 277.731 218.105 277.731L225.829 277.731C226.07 277.731 226.266 277.535 226.266 277.294L226.526 249.522C226.665 249.522 350.693 249.522 350.693 249.522 350.934 249.522 351.13 249.326 351.13 249.085L351.13 180.826C351.133 180.765 351.16 180.657 351.208 180.609 351.258 180.559 351.372 180.53 351.431 180.526L397.167 180.516C397.513 180.516 397.794 180.796 397.794 181.143L397.794 249.083C397.794 249.325 397.99 249.52 398.231 249.52L408.929 249.52C409.17 249.52 409.366 249.325 409.366 249.083L409.482 246.848C410.02 246.874 410.416 246.89 410.483 246.89L434.324 246.89C434.565 246.89 434.76 246.694 434.76 246.453L434.76 183.761C434.76 183.574 434.912 183.421 435.1 183.421L550.919 183.421C551.109 183.421 551.26 183.574 551.26 183.761L551.26 246.453C551.26 246.695 551.455 246.89 551.694 246.89L574.514 246.89C574.758 246.89 574.953 246.695 574.953 246.453L574.953 176.194C574.953 175.952 574.758 175.757 574.514 175.757ZM311.808 231.263C311.808 231.825 311.351 232.283 310.789 232.283L250.336 232.283C249.774 232.283 249.316 231.825 249.316 231.263L249.316 225.895C249.316 225.333 249.774 224.875 250.336 224.875L251.523 224.875C251.764 224.875 251.96 224.68 251.96 224.439L251.96 177.529C251.96 176.966 252.417 176.509 252.979 176.509L308.146 176.509C308.708 176.509 309.166 176.966 309.166 177.529L309.166 224.439C309.166 224.68 309.362 224.875 309.603 224.875L310.789 224.875C311.351 224.875 311.808 225.333 311.808 225.895L311.808 231.263Z" fill="#FFFFFF"/><path d="M227.879 159.585 400.434 159.585C400.493 159.585 400.552 159.572 400.606 159.549L479.451 125.756C479.642 125.675 479.749 125.47 479.707 125.267 479.665 125.064 479.486 124.918 479.279 124.918L461.204 124.918C460.642 124.918 460.184 124.461 460.184 123.898L460.184 76.2538C460.184 75.6917 460.642 75.2339 461.204 75.2339L487.632 75.2339C488.192 75.2339 488.651 75.6912 488.651 76.2538L488.651 121.151C488.651 121.297 488.724 121.434 488.85 121.515 488.972 121.596 489.128 121.61 489.26 121.552L493.452 119.756C493.54 119.719 493.638 119.719 493.721 119.755L543.587 140.98C543.723 141.037 543.875 141.023 544.001 140.942 544.123 140.861 544.196 140.724 544.196 140.577L544.196 70.7241C544.196 70.4827 544.001 70.2873 543.758 70.2873L367.368 70.2873C367.29 70.2873 367.214 70.26 367.153 70.2102L301.838 17.0762C301.68 16.9475 301.454 16.9455 301.293 17.0703L233.089 70.2151C233.03 70.2614 232.956 70.2868 232.881 70.2868L227.879 70.2868C227.638 70.2868 227.443 70.4823 227.443 70.7236L227.443 159.147C227.443 159.389 227.638 159.585 227.879 159.585ZM342.637 113.724 344.834 113.724C345.396 113.724 345.854 114.181 345.854 114.743L345.854 120.111C345.854 120.673 345.397 121.131 344.834 121.131L261.258 121.131C260.696 121.131 260.238 120.673 260.238 120.111L260.238 114.743C260.238 114.181 260.695 113.724 261.258 113.724L263.454 113.724C263.696 113.724 263.891 113.528 263.891 113.287L263.891 66.2795C263.891 65.7174 264.348 65.2597 264.911 65.2597L341.181 65.2597C341.743 65.2597 342.201 65.7169 342.201 66.2795L342.201 113.287C342.201 113.528 342.396 113.724 342.637 113.724ZM394.503 123.898 394.503 76.2538C394.503 75.6917 394.96 75.2339 395.522 75.2339L421.949 75.2339C422.511 75.2339 422.969 75.6912 422.969 76.2538L422.969 123.898C422.969 124.46 422.512 124.918 421.949 124.918L395.522 124.918C394.96 124.917 394.503 124.46 394.503 123.898Z" fill="#FFFFFF"/><path d="M396.58 273.767 352.344 273.767C351.834 273.767 351.421 273.354 351.421 272.844L351.421 181.741C351.421 181.231 351.834 180.818 352.344 180.818L396.58 180.818C397.09 180.818 397.504 181.231 397.504 181.741L397.504 272.844C397.504 273.354 397.09 273.767 396.58 273.767Z" fill="#FFFFFF"/><path d="M370.348 236.774 361.894 236.774C361.653 236.774 361.457 236.969 361.457 237.211L361.457 259.605C361.457 259.847 361.653 260.042 361.894 260.042L370.348 260.042C370.589 260.042 370.785 259.847 370.785 259.605L370.785 237.211C370.785 236.969 370.589 236.774 370.348 236.774Z" fill="#FFFFFF"/><path d="M386.37 236.774 377.916 236.774C377.675 236.774 377.48 236.969 377.48 237.211L377.48 259.605C377.48 259.847 377.675 260.042 377.916 260.042L386.37 260.042C386.611 260.042 386.807 259.847 386.807 259.605L386.807 237.211C386.807 236.969 386.611 236.774 386.37 236.774Z" fill="#FFFFFF"/><path d="M386.37 202.336 377.916 202.336C377.675 202.336 377.48 202.532 377.48 202.773L377.48 225.167C377.48 225.408 377.675 225.604 377.916 225.604L386.37 225.604C386.611 225.604 386.807 225.408 386.807 225.167L386.807 202.773C386.807 202.532 386.611 202.336 386.37 202.336Z" fill="#FFFFFF"/><path d="M370.348 202.336 361.894 202.336C361.653 202.336 361.457 202.532 361.457 202.773L361.457 225.167C361.457 225.408 361.653 225.604 361.894 225.604L370.348 225.604C370.589 225.604 370.785 225.408 370.785 225.167L370.785 202.773C370.785 202.532 370.589 202.336 370.348 202.336Z" fill="#FFFFFF"/><path d="M370.348 188.994 361.894 188.994C361.653 188.994 361.457 189.189 361.457 189.43L361.457 193.077C361.457 193.318 361.653 193.514 361.894 193.514L370.348 193.514C370.589 193.514 370.785 193.318 370.785 193.077L370.785 189.43C370.785 189.189 370.589 188.994 370.348 188.994Z" fill="#FFFFFF"/><path d="M386.37 188.994 377.916 188.994C377.675 188.994 377.48 189.189 377.48 189.43L377.48 193.077C377.48 193.318 377.675 193.514 377.916 193.514L386.37 193.514C386.611 193.514 386.807 193.318 386.807 193.077L386.807 189.43C386.807 189.189 386.611 188.994 386.37 188.994Z" fill="#FFFFFF"/><path d="M393.754 230.729C393.754 231.702 392.965 232.491 391.992 232.491 391.019 232.491 390.231 231.702 390.231 230.729 390.231 229.756 391.019 228.968 391.992 228.968 392.965 228.968 393.754 229.756 393.754 230.729Z" fill="#FFFFFF"/><path d="M550.353 295.679 435.667 295.679C435.355 295.679 435.101 295.426 435.101 295.113L435.101 184.328C435.101 184.015 435.355 183.762 435.667 183.762L550.353 183.762C550.665 183.762 550.919 184.015 550.919 184.328L550.919 295.113C550.919 295.426 550.665 295.679 550.353 295.679Z" fill="#FFFFFF"/><path d="M310.789 225.459 309.559 225.459C309.251 225.459 308.968 225.626 308.82 225.895L308.686 226.138C308.518 226.443 308.197 226.633 307.848 226.633L253.369 226.659C253.038 226.659 252.729 226.491 252.549 226.213L252.301 225.83C252.152 225.598 251.895 225.459 251.619 225.459L250.337 225.459C250.096 225.459 249.9 225.654 249.9 225.895L249.9 231.263C249.9 231.504 250.096 231.699 250.337 231.699L310.79 231.699C311.031 231.699 311.226 231.504 311.226 231.263L311.226 225.895C311.226 225.654 311.03 225.459 310.789 225.459Z" fill="#FFFFFF"/><path d="M344.834 114.306 342.131 114.306 341.419 115.43 264.698 115.275 263.844 114.306 261.258 114.306C261.016 114.306 260.821 114.501 260.821 114.742L260.821 120.11C260.821 120.351 261.016 120.547 261.258 120.547L344.834 120.547C345.075 120.547 345.271 120.351 345.271 120.11L345.271 114.742C345.271 114.502 345.075 114.306 344.834 114.306Z" fill="#FFFFFF"/><path d="M421.949 75.817 395.521 75.817C395.28 75.817 395.085 76.0125 395.085 76.2538L395.085 123.898C395.085 124.139 395.28 124.335 395.521 124.335L421.949 124.335C422.19 124.335 422.386 124.139 422.386 123.898L422.386 76.2538C422.386 76.0125 422.19 75.817 421.949 75.817Z" fill="#FFFFFF"/><path d="M487.632 75.817 461.204 75.817C460.963 75.817 460.767 76.0125 460.767 76.2538L460.767 123.898C460.767 124.139 460.963 124.335 461.204 124.335L483.322 124.335C483.563 124.335 488.07 122.276 488.07 122.034L488.07 76.2538C488.07 76.0125 487.875 75.817 487.632 75.817Z" fill="#FFFFFF"/><path d="M341.18 65.8418 264.911 65.8418C264.67 65.8418 264.474 66.0372 264.474 66.2785L264.474 114.646C264.474 114.887 264.67 115.083 264.911 115.083L341.18 115.083C341.422 115.083 341.617 114.887 341.617 114.646L341.617 66.2785C341.618 66.0372 341.422 65.8418 341.18 65.8418Z" fill="#FFFFFF"/><path d="M308.146 177.091 252.979 177.091C252.738 177.091 252.543 177.287 252.543 177.528L252.543 225.895C252.543 226.137 252.738 226.332 252.979 226.332L308.146 226.332C308.388 226.332 308.583 226.137 308.583 225.895L308.583 177.528C308.583 177.287 308.388 177.091 308.146 177.091Z" fill="#FFFFFF"/><path d="M418.478 121.008 398.993 121.008C398.718 121.008 398.495 120.784 398.495 120.51L398.495 79.6429C398.495 79.3679 398.718 79.1447 398.993 79.1447L418.478 79.1447C418.753 79.1447 418.976 79.3679 418.976 79.6429L418.976 120.51C418.976 120.784 418.753 121.008 418.478 121.008Z" fill="#FFFFFF"/><path d="M484.105 121.008 464.731 121.008C464.425 121.008 464.178 120.76 464.178 120.454L464.178 79.6984C464.178 79.3923 464.426 79.1447 464.731 79.1447L484.105 79.1447C484.411 79.1447 484.658 79.3928 484.658 79.6984L484.658 120.454C484.659 120.76 484.411 121.008 484.105 121.008Z" fill="#FFFFFF"/><path d="M288.108 112.003 267.938 112.003C267.644 112.003 267.406 111.765 267.406 111.472L267.406 69.4522C267.406 69.1587 267.644 68.9208 267.938 68.9208L288.108 68.9208C288.401 68.9208 288.639 69.1587 288.639 69.4522L288.639 111.472C288.639 111.766 288.401 112.003 288.108 112.003Z" fill="#FFFFFF"/><path d="M313.21 112.003 293.041 112.003C292.747 112.003 292.509 111.765 292.509 111.472L292.509 69.4522C292.509 69.1587 292.747 68.9208 293.041 68.9208L313.21 68.9208C313.504 68.9208 313.742 69.1587 313.742 69.4522L313.742 111.472C313.741 111.766 313.503 112.003 313.21 112.003Z" fill="#FFFFFF"/><path d="M338.154 112.003 317.984 112.003C317.691 112.003 317.453 111.765 317.453 111.472L317.453 69.4522C317.453 69.1587 317.691 68.9208 317.984 68.9208L338.154 68.9208C338.447 68.9208 338.685 69.1587 338.685 69.4522L338.685 111.472C338.685 111.766 338.447 112.003 338.154 112.003Z" fill="#FFFFFF"/><path d="M278.155 223.253 256.983 223.253C256.718 223.253 256.503 223.038 256.503 222.772L256.503 180.651C256.503 180.386 256.718 180.171 256.983 180.171L278.155 180.171C278.421 180.171 278.635 180.386 278.635 180.651L278.635 222.772C278.636 223.038 278.421 223.253 278.155 223.253Z" fill="#FFFFFF"/><path d="M304.142 223.253 282.97 223.253C282.705 223.253 282.49 223.038 282.49 222.772L282.49 180.651C282.49 180.386 282.705 180.171 282.97 180.171L304.142 180.171C304.407 180.171 304.622 180.386 304.622 180.651L304.622 222.772C304.623 223.038 304.408 223.253 304.142 223.253Z" fill="#FFFFFF"/><path d="M392.251 163.496 398.16 160.859C398.592 160.666 398.454 160.021 397.982 160.021L218.834 160.021C218.593 160.021 218.397 160.217 218.397 160.459L218.397 167.086C218.397 167.328 218.593 167.524 218.834 167.524L391.546 167.524C391.788 167.524 391.984 167.328 391.984 167.087L391.992 163.894C391.992 163.722 392.093 163.566 392.251 163.496Z"/><path d="M557.705 69.947 367.548 69.947C367.432 69.947 367.318 69.907 367.228 69.8329L301.886 16.6769C301.702 16.5277 301.44 16.5248 301.254 16.6701L233.018 69.8397C232.929 69.9095 232.819 69.947 232.706 69.947L219.622 69.947C219.341 69.947 219.114 69.7198 219.114 69.439L219.114 58.6482C219.114 58.3679 219.341 58.1402 219.622 58.1402L232.367 58.1402C232.48 58.1402 232.59 58.1027 232.678 58.034L301.253 4.86281C301.44 4.71803 301.702 4.72144 301.885 4.87061L367.021 58.0261C367.111 58.1003 367.225 58.1407 367.342 58.1407L557.71 58.1407C557.988 58.1407 558.217 58.3679 558.217 58.6487L558.217 69.4395C558.217 69.7193 557.988 69.947 557.705 69.947Z" fill="#FFFFFF"/><path d="M595.35 175.418 392.532 175.418C392.234 175.418 391.992 175.176 391.992 174.878L391.992 164.151C391.992 163.853 392.234 163.611 392.532 163.611L595.35 163.611C595.647 163.611 595.891 163.853 595.891 164.151L595.891 174.878C595.891 175.176 595.647 175.418 595.35 175.418Z" fill="#FFFFFF"/><path d="M367.264 58.1407 557.086 58.1407C557.505 58.1407 557.715 57.6357 557.417 57.3393L521.601 21.334C521.513 21.2453 521.391 21.1955 521.269 21.1955L323.197 21.1955C322.755 21.1955 322.557 21.7498 322.9 22.0292L366.966 58.0344C367.05 58.1032 367.155 58.1407 367.264 58.1407Z"/><path d="M278.879 21.1955 261.422 21.1955C261.316 21.1955 261.214 21.234 261.134 21.3042L219.988 57.3739C219.685 57.6401 219.873 58.1407 220.277 58.1407L232.306 58.1407C232.403 58.1407 232.498 58.1085 232.575 58.0491L279.146 21.9794C279.477 21.724 279.296 21.1955 278.879 21.1955Z"/><path d="M394.488 162.541 493.37 120.161C493.506 120.101 493.667 120.101 493.803 120.161L593.375 162.541C593.931 162.779 593.765 163.611 593.156 163.611L394.708 163.611C394.101 163.611 393.931 162.78 394.488 162.541Z"/><path d="M348.837 273.987 342.547 279.799C342.378 279.955 342.282 280.175 342.282 280.405L342.282 287.147C342.282 287.603 342.651 287.972 343.107 287.972L401.267 287.972C401.722 287.972 402.092 287.603 402.092 287.147L402.092 274.593C402.092 274.137 401.722 273.768 401.267 273.768L349.397 273.768C349.189 273.767 348.99 273.846 348.837 273.987Z" fill="#FFFFFF"/><path d="M361.166 194.534 371.077 194.534C371.479 194.534 371.805 194.208 371.805 193.806L371.805 188.702C371.805 188.3 371.479 187.974 371.077 187.974L361.166 187.974C360.764 187.974 360.438 188.3 360.438 188.702L360.438 193.806C360.438 194.208 360.764 194.534 361.166 194.534ZM361.895 189.43 370.348 189.43 370.348 193.077 361.895 193.077 361.895 189.43Z"/><path d="M377.188 194.534 387.098 194.534C387.5 194.534 387.826 194.208 387.826 193.806L387.826 188.702C387.826 188.3 387.5 187.974 387.098 187.974L377.188 187.974C376.785 187.974 376.459 188.3 376.459 188.702L376.459 193.806C376.459 194.208 376.785 194.534 377.188 194.534ZM377.916 189.43 386.37 189.43 386.37 193.077 377.916 193.077 377.916 189.43Z"/><path d="M361.166 226.624 371.077 226.624C371.479 226.624 371.805 226.298 371.805 225.895L371.805 202.045C371.805 201.643 371.479 201.317 371.077 201.317L361.166 201.317C360.764 201.317 360.438 201.643 360.438 202.045L360.438 225.895C360.438 226.298 360.764 226.624 361.166 226.624ZM361.895 202.773 370.348 202.773 370.348 225.167 361.895 225.167 361.895 202.773Z"/><path d="M377.188 226.624 387.098 226.624C387.5 226.624 387.826 226.298 387.826 225.895L387.826 202.045C387.826 201.643 387.5 201.317 387.098 201.317L377.188 201.317C376.785 201.317 376.459 201.643 376.459 202.045L376.459 225.895C376.459 226.298 376.785 226.624 377.188 226.624ZM377.916 202.773 386.37 202.773 386.37 225.167 377.916 225.167 377.916 202.773Z"/><path d="M361.166 261.062 371.077 261.062C371.479 261.062 371.805 260.736 371.805 260.334L371.805 236.483C371.805 236.081 371.479 235.755 371.077 235.755L361.166 235.755C360.764 235.755 360.438 236.081 360.438 236.483L360.438 260.334C360.438 260.736 360.764 261.062 361.166 261.062ZM361.895 237.211 370.348 237.211 370.348 259.605 361.895 259.605 361.895 237.211Z"/><path d="M377.188 261.062 387.098 261.062C387.5 261.062 387.826 260.736 387.826 260.334L387.826 236.483C387.826 236.081 387.5 235.755 387.098 235.755L377.188 235.755C376.785 235.755 376.459 236.081 376.459 236.483L376.459 260.334C376.459 260.736 376.785 261.062 377.188 261.062ZM377.916 237.211 386.37 237.211 386.37 259.605 377.916 259.605 377.916 237.211Z"/><path d="M391.992 233.22C393.366 233.22 394.483 232.103 394.483 230.73 394.483 229.357 393.366 228.24 391.992 228.24 390.619 228.24 389.502 229.357 389.502 230.73 389.502 232.103 390.619 233.22 391.992 233.22ZM391.992 229.696C392.562 229.696 393.026 230.16 393.026 230.73 393.026 231.3 392.562 231.763 391.992 231.763 391.423 231.763 390.959 231.3 390.959 230.73 390.959 230.159 391.423 229.696 391.992 229.696Z"/><path d="M310.789 224.439 309.603 224.439 309.603 177.528C309.603 176.724 308.951 176.071 308.146 176.071L252.979 176.071C252.175 176.071 251.523 176.724 251.523 177.528L251.523 224.439 250.337 224.439C249.532 224.439 248.88 225.091 248.88 225.895L248.88 231.263C248.88 232.067 249.532 232.719 250.337 232.719L310.789 232.719C311.593 232.719 312.246 232.067 312.246 231.263L312.246 225.895C312.246 225.091 311.593 224.439 310.789 224.439ZM252.979 177.528 308.146 177.528 308.146 225.895 252.979 225.895 252.979 177.528ZM310.789 231.263 250.337 231.263 250.337 225.895 251.523 225.895C251.523 226.7 252.175 227.352 252.979 227.352L308.146 227.352C308.951 227.352 309.603 226.7 309.603 225.895L310.789 225.895 310.789 231.263Z"/><path d="M278.636 179.588 256.503 179.588C256.181 179.588 255.92 179.849 255.92 180.171L255.92 223.253C255.92 223.574 256.181 223.835 256.503 223.835L278.636 223.835C278.958 223.835 279.219 223.574 279.219 223.253L279.219 180.171C279.219 179.849 278.958 179.588 278.636 179.588ZM278.053 222.67 257.086 222.67 257.086 180.753 278.053 180.753 278.053 222.67Z"/><path d="M304.623 179.588 282.49 179.588C282.168 179.588 281.907 179.849 281.907 180.171L281.907 223.253C281.907 223.574 282.168 223.835 282.49 223.835L304.623 223.835C304.944 223.835 305.205 223.574 305.205 223.253L305.205 180.171C305.205 179.849 304.944 179.588 304.623 179.588ZM304.04 222.67 283.073 222.67 283.073 180.753 304.04 180.753 304.04 222.67Z"/><path d="M344.834 113.287 342.637 113.287 342.637 66.279C342.637 65.4747 341.985 64.8224 341.181 64.8224L264.911 64.8224C264.107 64.8224 263.455 65.4747 263.455 66.279L263.455 113.287 261.258 113.287C260.454 113.287 259.801 113.939 259.801 114.743L259.801 120.111C259.801 120.915 260.454 121.567 261.258 121.567L344.835 121.567C345.639 121.567 346.291 120.915 346.291 120.111L346.291 114.743C346.291 113.939 345.638 113.287 344.834 113.287ZM264.911 66.2785 341.181 66.2785 341.181 114.646 264.911 114.646 264.911 66.2785ZM344.834 120.111 261.258 120.111 261.258 114.743 263.46 114.743C263.51 115.502 264.14 116.103 264.911 116.103L341.181 116.103C341.952 116.103 342.582 115.502 342.633 114.743L344.835 114.743 344.835 120.111Z"/><path d="M288.639 68.3387 267.406 68.3387C267.085 68.3387 266.824 68.5995 266.824 68.9213L266.824 112.003C266.824 112.325 267.085 112.586 267.406 112.586L288.639 112.586C288.96 112.586 289.221 112.325 289.221 112.003L289.221 68.9213C289.221 68.5995 288.96 68.3387 288.639 68.3387ZM288.056 111.421 267.989 111.421 267.989 69.5039 288.056 69.5039 288.056 111.421Z"/><path d="M313.741 68.3387 292.509 68.3387C292.188 68.3387 291.927 68.5995 291.927 68.9213L291.927 112.003C291.927 112.325 292.188 112.586 292.509 112.586L313.741 112.586C314.063 112.586 314.324 112.325 314.324 112.003L314.324 68.9213C314.324 68.5995 314.063 68.3387 313.741 68.3387ZM313.159 111.421 293.092 111.421 293.092 69.5039 313.159 69.5039 313.159 111.421Z"/><path d="M338.685 68.3387 317.453 68.3387C317.131 68.3387 316.871 68.5995 316.871 68.9213L316.871 112.003C316.871 112.325 317.131 112.586 317.453 112.586L338.685 112.586C339.007 112.586 339.268 112.325 339.268 112.003L339.268 68.9213C339.268 68.5995 339.007 68.3387 338.685 68.3387ZM338.103 111.421 318.036 111.421 318.036 69.5039 338.103 69.5039 338.103 111.421Z"/><path d="M596.666 176.194 596.666 162.834 596.047 162.834 544.923 141.074 544.923 70.7236 558.217 70.7236C558.646 70.7236 558.992 70.3755 558.992 69.9465L558.992 58.5019C558.992 58.0905 558.558 57.6571 558.266 57.3661L521.879 20.7841C521.766 20.6744 521.62 20.6125 521.464 20.6125L322.404 20.6125 302.063 4.0131C301.783 3.78446 301.382 3.77959 301.096 4.00091L279.672 20.6125 261.258 20.6125C261.116 20.6125 260.98 20.6637 260.873 20.7568L219.116 57.3632 219.113 57.3632C218.773 57.7054 218.336 58.1017 218.336 58.5307L218.336 69.946C218.336 70.375 218.684 70.7231 219.113 70.7231L226.714 70.7231 226.714 159.147 217.523 159.147 217.523 168.397 225.829 168.397 225.829 187.666 217.111 196.385C217.001 196.494 216.94 196.642 216.94 196.797L216.94 277.876C216.94 278.198 217.201 278.459 217.523 278.459L225.829 278.459 225.829 282.256 341.504 282.256 341.504 287.972C341.504 288.401 341.853 288.749 342.282 288.749L401.315 288.749 401.315 295.679C401.315 296.108 401.663 296.457 402.092 296.457L435.101 296.457 550.919 296.457 583.928 296.457C584.357 296.457 584.708 296.108 584.708 295.679L584.708 265.97C584.708 265.772 584.63 265.582 584.493 265.437L576.069 256.5 576.069 176.194 596.666 176.194ZM595.111 174.641 392.769 174.641 392.769 164.388 595.111 164.388 595.111 174.641ZM396.775 272.991 352.15 272.991 352.15 181.546 396.775 181.546 396.775 272.991ZM401.315 274.544 401.315 279.267 344.267 279.267 349.378 274.544 401.315 274.544ZM401.495 260.295C401.379 260.435 401.315 260.61 401.315 260.792L401.315 272.991 398.232 272.991 398.232 250.638 408.93 250.638 408.93 251.35 401.495 260.295ZM395.908 162.778 493.589 120.912 592.083 162.834 395.919 162.834C395.888 162.834 395.878 162.791 395.908 162.778ZM487.632 121.775 482.678 123.898 461.204 123.898 461.204 76.2538 487.632 76.2538 487.632 121.775ZM521.22 21.7781 556.623 57.3636 367.438 57.3636 323.832 21.7781 521.22 21.7781ZM261.477 21.7781 278.169 21.7781 232.275 57.3636 220.883 57.3636 261.477 21.7781ZM219.89 58.9173 232.541 58.9173C232.713 58.9173 232.881 58.8598 233.017 58.7545L301.56 5.6082 366.67 58.7428C366.808 58.8559 366.982 58.9178 367.161 58.9178L557.437 58.9178 557.437 69.1704 367.644 69.1704 302.063 15.8189C301.782 15.5907 301.381 15.5864 301.095 15.8087L232.614 69.1699 219.89 69.1699 219.89 58.9173ZM227.879 70.7236 232.881 70.7236C233.054 70.7236 233.222 70.666 233.358 70.5593L301.562 17.4145 366.877 70.5491C367.016 70.6617 367.189 70.7231 367.368 70.7231L543.758 70.7231 543.758 140.577 493.891 119.352C493.696 119.269 493.477 119.269 493.282 119.353L489.089 121.15 489.089 76.2533C489.089 75.4489 488.436 74.7966 487.632 74.7966L461.204 74.7966C460.4 74.7966 459.748 75.4489 459.748 76.2533L459.748 123.898C459.748 124.702 460.4 125.354 461.204 125.354L479.279 125.354 400.434 159.147 227.879 159.147 227.879 70.7236ZM219.077 160.701 396.668 160.701C396.7 160.701 396.708 160.745 396.68 160.758L391.215 163.114 391.215 166.844 219.077 166.844 219.077 160.701ZM391.215 168.398 391.215 176.195 408.93 176.195 408.93 249.085 398.232 249.085 398.232 180.818C398.232 180.818 398.245 180.459 398.046 180.26 397.847 180.061 397.504 180.09 397.504 180.09L351.422 180.09C351.422 180.09 351.102 180.099 350.9 180.3 350.699 180.502 350.693 180.818 350.693 180.818L350.693 249.085 227.383 249.085 227.383 168.398 391.215 168.398ZM218.105 277.294 218.105 197.039 225.829 189.315 225.829 277.294 218.105 277.294ZM227.383 280.703 227.383 250.638 350.693 250.638 350.693 272.991 349.074 272.991C348.879 272.991 348.691 273.064 348.547 273.197L341.754 279.474C341.752 279.476 341.75 279.479 341.747 279.481 341.722 279.505 341.698 279.53 341.677 279.557 341.673 279.561 341.67 279.566 341.666 279.571 341.647 279.595 341.63 279.62 341.615 279.647 341.612 279.652 341.608 279.657 341.605 279.663 341.588 279.692 341.573 279.724 341.56 279.756 341.558 279.761 341.557 279.766 341.555 279.771 341.543 279.8 341.534 279.83 341.527 279.861 341.525 279.865 341.524 279.87 341.523 279.876 341.516 279.909 341.51 279.943 341.507 279.977 341.507 279.984 341.507 279.992 341.506 279.999 341.505 280.014 341.504 280.029 341.504 280.044L341.504 280.703 227.383 280.703ZM343.059 287.196 343.059 280.821 401.316 280.821 401.316 287.196 343.059 287.196ZM402.87 287.972 402.87 280.044 402.87 273.767 402.87 261.072 410.304 252.127C410.42 251.987 410.484 251.812 410.484 251.63L410.484 248.006 434.324 248.006 434.324 294.902 402.87 294.902 402.87 287.972ZM550.144 239.452 435.878 239.452 435.878 211.359 550.144 211.359 550.144 239.452ZM435.878 240.618 550.144 240.618 550.144 268.711 435.878 268.711 435.878 240.618ZM550.144 210.193 435.878 210.193 435.878 184.538 550.144 184.538 550.144 210.193ZM435.878 294.903 435.878 269.877 550.144 269.877 550.144 294.903 435.878 294.903ZM583.152 266.279 583.152 294.903 551.699 294.903 551.699 248.007 574.514 248.007 574.514 256.809C574.514 257.007 574.592 257.197 574.728 257.342L583.152 266.279ZM574.514 246.453 551.699 246.453 551.699 183.762C551.699 183.333 551.348 182.985 550.919 182.985L435.101 182.985C434.672 182.985 434.324 183.333 434.324 183.762L434.324 246.453 410.483 246.453 410.483 176.195 574.514 176.195 574.514 246.453Z"/><path d="M421.949 125.355C422.753 125.355 423.405 124.703 423.405 123.898L423.405 76.2538C423.405 75.4494 422.753 74.7971 421.949 74.7971L395.521 74.7971C394.717 74.7971 394.065 75.4494 394.065 76.2538L394.065 123.898C394.065 124.703 394.717 125.355 395.521 125.355L421.949 125.355ZM395.521 76.2538 421.949 76.2538 421.949 123.898 395.521 123.898 395.521 76.2538Z"/><path d="M418.976 78.5133 398.495 78.5133C398.146 78.5133 397.863 78.7961 397.863 79.1447L397.863 121.008C397.863 121.356 398.146 121.639 398.495 121.639L418.976 121.639C419.325 121.639 419.607 121.356 419.607 121.008L419.607 79.1447C419.607 78.7956 419.325 78.5133 418.976 78.5133ZM418.345 120.376 399.126 120.376 399.126 79.776 418.345 79.776 418.345 120.376Z"/><path d="M464.178 121.639 484.659 121.639C485.007 121.639 485.29 121.356 485.29 121.007L485.29 79.1442C485.29 78.7956 485.007 78.5129 484.659 78.5129L464.178 78.5129C463.829 78.5129 463.546 78.7956 463.546 79.1442L463.546 121.007C463.546 121.356 463.829 121.639 464.178 121.639ZM464.809 79.7755 484.028 79.7755 484.028 120.376 464.809 120.376 464.809 79.7755Z"/><path d="M256.957 291.127C257.077 290.952 257.308 290.893 257.496 290.993 258.825 291.699 263.887 293.986 269.234 291.135 274.34 288.411 272.603 284.238 271.185 282.728 270.964 282.492 271.081 282.104 271.397 282.035 272.333 281.829 273.594 281.287 273.749 279.863 273.89 278.562 273.277 278.006 272.718 277.768 272.433 277.647 272.372 277.271 272.607 277.068 273.616 276.19 275.202 274.203 273.915 271.055 272.495 267.582 268.528 266.9 266.913 266.766 266.611 266.741 266.436 266.415 266.582 266.15 267.071 265.258 267.764 263.496 266.742 261.943 265.337 259.808 263.167 256.962 257.738 258.728 257.518 258.8 257.279 258.681 257.209 258.46 256.814 257.216 255.3 253.44 251.038 251.446 246.18 249.174 243.095 250.522 241.575 251.682 241.423 251.798 241.213 251.795 241.063 251.675 240.385 251.129 238.451 249.754 236.553 250.089 234.42 250.465 232.695 251.388 231.835 252.856 231.702 253.082 231.402 253.139 231.204 252.968 230.506 252.366 228.984 251.241 227.552 251.446 225.82 251.694 225.06 253.024 224.543 253.977 224.445 254.158 224.23 254.24 224.036 254.171 223.506 253.984 222.455 253.687 221.736 253.967 220.838 254.316 219.894 254.801 219.27 255.663 219.153 255.826 218.935 255.881 218.754 255.794 217.489 255.186 212.694 253.276 207.777 256.459 207.777 256.459 203.782 259.184 203.757 263.936 203.756 264.127 203.626 264.291 203.442 264.339 202.379 264.613 198.969 265.838 197.945 270.445 196.97 274.835 198.55 276.616 199.418 277.137 199.624 277.261 199.684 277.53 199.55 277.729 199.295 278.106 198.993 278.714 199.026 279.446 199.059 280.191 199.339 280.678 199.56 280.95 199.688 281.109 199.686 281.336 199.551 281.489 198.972 282.144 197.867 283.984 200.078 286.951 201.937 289.444 204.629 288.743 205.818 288.26 206.088 288.151 206.387 288.345 206.391 288.637 206.402 289.265 206.525 290.158 207.113 290.469 207.748 290.805 208.51 290.675 208.938 290.554 209.124 290.502 209.321 290.588 209.414 290.758 209.647 291.188 210.198 291.879 211.267 291.687 212.221 291.516 212.638 290.653 212.803 290.138 212.868 289.938 213.067 289.813 213.273 289.851 214.056 289.996 215.985 289.993 218.173 287.32 218.281 287.189 218.457 287.135 218.618 287.186 219.285 287.396 221.085 287.741 222.342 285.903 222.47 285.715 222.722 285.659 222.912 285.783 224.062 286.53 227.929 288.529 232.167 284.984 232.327 284.85 232.561 284.852 232.716 284.992 233.394 285.608 235.303 287.036 237.447 285.934 237.577 285.868 237.732 285.871 237.857 285.948 238.258 286.19 239.238 286.661 240.484 286.389 240.739 286.333 240.982 286.515 240.995 286.776 241.029 287.536 241.325 288.856 242.916 289.16 243.056 289.187 243.174 289.279 243.228 289.41 243.688 290.517 246.085 295.375 251.376 291.457 251.52 291.351 251.714 291.347 251.861 291.448 252.668 291.999 255.317 293.527 256.957 291.127Z" fill="#FFFFFF"/><path d="M272.981 277.573C273.258 277.368 273.508 277.139 273.718 276.892 274.679 275.758 275.089 274.246 274.939 272.774 274.658 270.023 272.708 267.711 270.13 266.785 269.454 266.542 268.747 266.385 268.031 266.324 267.706 266.296 267.369 266.273 267.046 266.332 267.632 265.439 267.97 264.289 267.814 263.306 267.554 261.671 266.465 260.18 265.229 259.123 264.029 258.097 262.532 257.373 260.93 257.38 260.156 257.383 259.356 257.525 258.621 257.76 258.302 257.862 257.912 257.988 257.576 258.177 257.136 256.135 255.892 254.288 254.265 252.923 251.951 250.982 248.879 249.409 245.792 249.503 244.96 249.528 244.126 249.662 243.353 249.975 242.974 250.129 242.603 250.301 242.253 250.514 241.929 250.712 241.645 251.007 241.366 251.274 240.012 250.046 237.974 249.533 236.169 249.708 234.657 249.854 233.179 250.425 232.13 251.557 231.846 251.863 231.562 252.25 231.329 252.676 230.392 251.543 228.811 250.752 227.35 250.932 226.485 251.039 225.688 251.458 225.061 252.055 224.738 252.363 224.481 252.726 224.287 253.128 224.204 253.299 224.104 253.511 224.043 253.728 223.333 253.444 222.51 253.378 221.781 253.486 220.87 253.622 220.023 254.047 219.362 254.688 219.167 254.877 218.971 255.096 218.802 255.334 215.696 253.861 211.906 253.826 208.794 255.295 205.721 256.747 203.685 259.752 203.277 263.103 203.245 263.367 203.222 263.645 203.21 263.93 200.288 264.571 198.17 267.162 197.47 270.001 197.072 271.615 197.006 273.421 197.41 275.041 197.626 275.906 198.269 277.096 199.16 277.576 198.619 278.206 198.458 279.046 198.594 279.854 198.675 280.333 198.869 280.799 199.146 281.207 198.25 282.016 198.218 283.689 198.419 284.759 198.681 286.147 199.486 287.417 200.626 288.249 201.778 289.09 203.212 289.362 204.608 289.148 205.008 289.087 205.436 288.976 205.857 288.817 205.777 289.867 206.396 290.996 207.469 291.2 207.903 291.282 208.383 291.254 208.834 291.125 209.31 291.917 210.566 292.363 211.378 292.176 212.309 291.961 212.832 291.246 213.131 290.42 214.051 290.692 215.051 290.398 215.882 289.97 216.936 289.426 217.797 288.619 218.432 287.649 219.067 288.014 220.14 287.97 220.683 287.83 221.571 287.601 222.197 287.063 222.641 286.343 223.708 287.2 225.187 287.59 226.561 287.643 228.778 287.729 230.734 286.704 232.434 285.37 232.444 285.38 232.455 285.391 232.466 285.401 232.897 285.819 233.401 286.161 233.951 286.4 235.183 286.935 236.549 286.946 237.781 286.433 237.844 286.477 237.907 286.517 237.968 286.552 238.48 286.846 239.091 286.941 239.674 286.92 239.967 286.909 240.275 286.874 240.582 286.813 240.539 287.883 241.121 288.848 242.139 289.322 242.352 289.421 242.571 289.49 242.794 289.532 242.823 290.025 243.127 290.579 243.351 290.97 243.678 291.539 244.081 292.032 244.596 292.439 245.525 293.175 246.666 293.585 247.857 293.473 248.971 293.369 250.074 292.964 251.003 292.34 251.201 292.206 251.394 292.064 251.574 291.911 251.744 292.1 251.906 292.27 252.166 292.414 252.505 292.602 252.87 292.759 253.243 292.866 253.923 293.06 254.674 293.074 255.357 292.888 256.096 292.686 256.868 292.142 257.329 291.445 258.711 292.225 260.295 292.852 261.864 293.052 263.533 293.264 265.259 293.142 266.886 292.71 269.943 291.896 273.246 289.593 273.133 286.066 273.088 284.665 272.518 283.521 271.63 282.552 271.935 282.484 272.22 282.387 272.441 282.282 273.2 281.921 273.813 281.277 274.093 280.481 274.473 279.393 273.948 278.126 272.981 277.573ZM272.983 280.407C272.667 280.917 272.177 281.213 271.625 281.413 271.333 281.518 271.06 281.622 270.75 281.669 270.435 281.717 270.157 281.702 269.866 281.84 269.623 281.956 269.656 282.317 269.866 282.442 270.036 282.542 270.24 282.602 270.462 282.631 271.322 283.43 271.948 284.503 272.063 285.683 272.206 287.16 271.529 288.556 270.467 289.554 268.399 291.497 265.174 292.115 262.43 291.884 260.763 291.743 259.184 291.419 257.677 290.679 257.725 290.497 257.751 290.31 257.748 290.121 257.741 289.693 257.196 289.673 257.05 290.026 256.651 290.993 255.986 291.646 254.916 291.813 254.416 291.892 253.892 291.804 253.414 291.655 253.138 291.568 252.88 291.449 252.63 291.305 252.516 291.239 252.393 291.19 252.27 291.142 252.489 290.81 252.638 290.434 252.678 290.001 252.715 289.588 252.056 289.508 251.96 289.904 251.566 291.537 249.27 292.301 247.799 292.383 246.887 292.435 246.002 292.118 245.292 291.546 244.905 291.234 244.528 290.853 244.235 290.452 244.071 290.227 243.929 289.986 243.791 289.745 243.758 289.687 243.729 289.627 243.701 289.567 244.124 289.524 244.544 289.405 244.938 289.234 245.298 289.078 245.041 288.468 244.67 288.598 244.008 288.828 243.301 288.878 242.645 288.598 242.225 288.418 241.8 288.126 241.605 287.7 241.448 287.359 241.415 286.97 241.355 286.596 242.042 286.343 242.659 285.93 243.021 285.314 243.282 284.869 242.601 284.474 242.331 284.911 241.823 285.732 240.633 285.998 239.725 286.042 239.309 286.062 238.878 286.031 238.5 285.844 238.044 285.618 237.944 285.135 237.549 284.88 237.362 284.759 237.056 284.872 237.013 285.099 236.968 285.333 237.032 285.565 237.155 285.777 236.168 286.028 235.125 286.005 234.19 285.553 233.759 285.344 233.37 285.065 233.033 284.726 232.688 284.379 232.479 283.909 232.063 283.643 231.855 283.51 231.589 283.685 231.585 283.917 231.581 284.199 231.693 284.465 231.854 284.707 230.326 285.765 228.59 286.592 226.693 286.521 224.807 286.45 223.195 285.636 222.019 284.149 221.772 283.837 221.236 284.175 221.357 284.534 221.5 284.958 221.708 285.332 221.963 285.66 221.571 286.172 220.986 286.577 220.366 286.692 220.055 286.75 219.724 286.747 219.414 286.68 219.284 286.651 219.151 286.605 219.018 286.56 219.106 286.358 219.186 286.151 219.257 285.941 219.436 285.406 218.592 285.177 218.414 285.708 217.979 287.003 217.052 288.132 215.879 288.83 215.218 289.223 214.381 289.573 213.6 289.409 212.968 289.277 212.686 288.88 212.358 288.382 212.189 288.126 211.713 288.124 211.647 288.475 211.531 289.089 211.873 289.65 212.353 290.022 212.124 290.558 211.807 291.081 211.165 291.141 210.796 291.176 210.455 291.018 210.155 290.82 210.048 290.749 209.953 290.666 209.859 290.582 210.157 290.326 210.384 289.998 210.49 289.604 210.638 289.06 209.795 288.828 209.647 289.371 209.434 290.159 208.373 290.355 207.682 290.115 206.894 289.841 207.009 288.967 206.981 288.255 207.477 287.938 207.908 287.544 208.197 287.079 208.454 286.666 207.883 286.262 207.543 286.574 207.095 286.985 206.716 287.39 206.171 287.683 205.685 287.944 205.16 288.097 204.614 288.172 203.509 288.325 202.327 288.075 201.414 287.427 200.508 286.785 199.878 285.777 199.598 284.712 199.391 283.926 199.279 282.672 199.729 281.874 199.772 281.912 199.815 281.948 199.859 281.983 200.324 282.352 201.536 282.857 201.922 282.132 201.985 282.012 201.975 281.853 201.873 281.756 201.699 281.589 201.519 281.577 201.291 281.518 201.025 281.449 200.804 281.336 200.581 281.173 200.122 280.838 199.793 280.346 199.621 279.806 199.451 279.272 199.466 278.68 199.806 278.214 200.147 277.746 200.605 277.66 201.132 277.537 201.507 277.449 201.436 276.963 201.132 276.845 200.869 276.744 200.589 276.746 200.319 276.817 199.913 276.607 199.514 276.374 199.219 276.015 198.789 275.49 198.602 274.818 198.488 274.162 198.244 272.763 198.295 271.276 198.664 269.903 199.282 267.602 200.904 265.523 203.21 264.845 203.275 266.123 203.605 267.437 204.415 268.336 204.715 268.67 205.251 268.316 205.145 267.91 204.96 267.202 204.666 266.53 204.504 265.812 204.348 265.121 204.299 264.413 204.33 263.705 204.395 262.247 204.841 260.81 205.586 259.557 207.205 256.83 210.22 255.311 213.339 255.163 215.1 255.079 216.786 255.394 218.415 256.046 218.306 256.349 218.264 256.667 218.329 256.985 218.384 257.252 218.754 257.333 218.934 257.145 219.382 256.674 219.582 256.043 220.033 255.563 220.535 255.028 221.177 254.668 221.9 254.534 222.602 254.403 223.524 254.444 224.15 254.828 224.484 255.033 224.78 255.434 225.03 255.739 225.246 256.001 225.752 255.718 225.618 255.396 225.433 254.953 225.194 254.511 224.831 254.19 224.912 254.048 224.981 253.896 225.073 253.751 225.252 253.469 225.461 253.227 225.696 252.99 226.166 252.515 226.824 252.121 227.495 252.028 228.71 251.86 230.116 252.556 231.013 253.371 230.774 254.039 230.705 254.744 230.976 255.356 231.098 255.635 231.485 255.513 231.568 255.279 231.763 254.731 231.801 254.154 232.041 253.61 232.268 253.094 232.608 252.624 233.007 252.228 233.902 251.341 235.168 250.867 236.41 250.77 238.507 250.607 241.134 251.441 241.858 253.631 242.034 254.161 242.857 253.944 242.701 253.399 242.537 252.825 242.269 252.319 241.927 251.88 242.539 251.45 243.309 251.14 244.023 250.957 244.838 250.747 245.65 250.642 246.492 250.688 248.283 250.786 249.999 251.5 251.531 252.394 254.458 254.102 257.316 257.092 256.806 260.76 256.731 261.305 257.556 261.553 257.649 260.993 257.739 260.452 257.765 259.915 257.737 259.387 257.877 259.334 258.013 259.264 258.157 259.21 258.416 259.113 258.681 259.023 258.948 258.951 259.55 258.787 260.163 258.709 260.786 258.708 262.089 258.707 263.242 259.172 264.262 259.979 265.293 260.796 266.276 261.936 266.669 263.212 267.026 264.371 266.594 265.705 265.796 266.593 265.455 266.972 265.978 267.498 266.356 267.153 266.398 267.114 266.439 267.073 266.48 267.032 266.663 267.069 266.841 267.117 267.039 267.142 267.39 267.187 267.746 267.167 268.098 267.213 268.784 267.303 269.444 267.508 270.064 267.811 271.285 268.407 272.343 269.321 273.015 270.512 273.786 271.88 274.046 273.677 273.389 275.141 273.098 275.788 272.624 276.296 272.109 276.768 271.554 277.277 270.801 277.453 270.078 277.55 269.532 277.623 269.721 278.416 270.201 278.455 270.905 278.513 271.649 278.325 272.313 277.986 272.651 278.194 272.935 278.574 273.097 278.907 273.339 279.407 273.273 279.941 272.983 280.407Z"/><path d="M209.688 273.571C209.27 274.048 208.92 274.546 208.442 274.97 208.111 275.264 207.422 275.878 206.915 275.704 206.343 275.508 206.965 274.449 207.137 274.153 207.489 273.546 207.961 273.015 208.522 272.593 208.991 272.24 208.54 271.437 208.053 271.792 207.227 272.393 206.533 273.155 206.079 274.076 205.704 274.839 205.418 275.924 206.263 276.496 207.015 277.006 207.999 276.598 208.654 276.121 209.411 275.569 210.07 274.73 210.184 273.777 210.213 273.528 209.845 273.392 209.688 273.571Z"/><path d="M211.615 276.621C211.407 276.926 211.345 277.296 211.152 277.606 211.016 277.825 210.56 278.189 210.342 277.867 210.193 277.646 210.315 277.202 210.34 276.958 210.375 276.613 210.38 276.276 210.278 275.941 210.116 275.404 209.275 275.631 209.435 276.173 209.597 276.721 209.347 277.294 209.427 277.853 209.497 278.342 209.82 278.759 210.313 278.878 211.514 279.169 212.348 277.705 212.058 276.679 211.999 276.468 211.73 276.452 211.615 276.621Z"/><path d="M258.418 269.696C259.152 269.513 259.885 269.333 260.611 269.106 260.997 268.985 261.016 268.522 260.716 268.301 259.203 267.186 257.096 266.999 255.373 267.712 254.863 267.923 255.081 268.766 255.606 268.554 256.907 268.03 258.279 268.092 259.513 268.648 258.908 268.936 258.316 269.244 257.715 269.545 257.644 269.542 257.573 269.543 257.502 269.548 257.027 269.582 257.029 270.248 257.502 270.286 258.093 270.332 259.02 270.947 258.915 271.649 258.858 272.034 258.09 271.98 257.79 271.973 257.308 271.962 256.878 271.8 256.41 271.723 255.952 271.647 255.726 272.182 256.099 272.459 256.724 272.922 257.68 272.98 258.425 272.882 259.071 272.796 259.738 272.593 259.829 271.855 259.948 270.892 259.276 270.034 258.418 269.696Z"/><path d="M222.182 265.781C221.796 265.797 221.492 265.933 221.163 266.121 220.851 266.299 220.525 266.635 220.144 266.619 219.625 266.596 219.979 266.279 220.195 266.038 220.548 265.646 220.931 265.285 221.334 264.945 221.579 264.739 221.48 264.453 221.272 264.314 221.355 264.152 221.309 263.936 221.079 263.867 220.533 263.704 219.917 263.656 219.416 263.375 218.991 263.137 218.545 262.596 218.817 262.089 219.047 261.66 219.65 261.555 220.085 261.623 220.629 261.709 221.148 262.15 221.701 262.095 221.916 262.074 222.06 261.868 221.949 261.664 221.596 261.014 220.441 260.709 219.75 260.725 219.027 260.743 218.267 261.119 217.971 261.807 217.664 262.519 217.967 263.332 218.519 263.833 219.055 264.319 219.782 264.515 220.496 264.526 219.727 265.157 218.305 266.387 219.309 267.212 219.664 267.504 220.199 267.556 220.631 267.43 221.294 267.237 221.61 266.532 222.257 266.338 222.554 266.249 222.511 265.768 222.182 265.781Z"/><path d="M238.364 276.842C238.285 276.826 238.202 276.863 238.179 276.946 238.067 277.366 238.297 277.815 238.344 278.233 238.384 278.589 238.344 278.942 238.237 279.277 237.608 278.715 237.263 277.864 237.381 277.011 237.418 276.744 237.071 276.638 236.973 276.898 236.487 278.181 237.029 279.636 238.201 280.33 238.399 280.448 238.686 280.38 238.798 280.173 239.124 279.573 239.271 278.914 239.199 278.233 239.146 277.731 238.948 276.951 238.364 276.842Z"/><path d="M260.804 280.973C260.296 280.771 260.079 281.588 260.579 281.789 261.278 282.071 262.113 282.392 262.542 283.057 262.761 283.396 262.858 283.905 262.693 284.289 262.618 284.193 262.531 284.104 262.421 284.025 262.228 283.888 262.013 284.078 261.994 284.27 261.972 284.499 262.03 284.703 262.107 284.908 261.511 284.818 261.024 284.518 260.59 284.088 260.193 283.694 259.632 284.278 259.985 284.693 260.559 285.368 261.432 285.719 262.303 285.763 262.531 285.775 262.661 285.633 262.694 285.463 262.743 285.455 262.793 285.435 262.841 285.402 263.652 284.852 263.818 283.813 263.446 282.94 262.986 281.86 261.823 281.377 260.804 280.973Z"/><path d="M83.361 230.982C83.2679 230.825 83.0656 230.773 82.9077 230.865 80.4789 232.272 62.965 241.676 44.3776 231.763 26.11 222.02 35.0893 206.503 39.5806 203.44 39.8366 203.266 39.7352 202.865 39.4271 202.833 36.6927 202.541 30.5433 201.248 29.8662 195.528 29.3241 190.949 33.3065 188.748 34.8723 188.067 35.1166 187.961 35.1439 187.627 34.9211 187.48 32.6206 185.972 24.3155 179.488 29.3319 167.217 31.7075 161.407 36.0989 157.24 40.6916 155.274 46.0093 152.997 51.5643 153.28 53.5177 153.476 53.7976 153.504 53.9862 153.196 53.8322 152.96 52.476 150.885 48.4921 143.849 52.3902 137.927 56.9892 130.941 64.5206 120.835 82.3051 127.902 82.4913 127.977 82.7005 127.873 82.7531 127.679 83.4122 125.242 87.7841 111.242 102.869 104.186 119.188 96.5523 129.242 101.421 133.876 105.228 133.994 105.325 134.163 105.329 134.285 105.238 135.564 104.286 142.522 99.392 149.304 100.113 156.74 100.903 162.73 104.813 165.262 110.191 165.361 110.403 165.639 110.452 165.803 110.285 167.235 108.827 172.964 103.414 178.365 104.186 184.389 105.047 187.547 109.911 188.733 113.112 188.798 113.287 188.993 113.375 189.168 113.307 190.272 112.875 194.034 111.554 197.061 112.287 200.314 113.076 203.461 114.961 205.432 118.181 205.523 118.329 205.714 118.381 205.868 118.301 208.195 117.101 224.84 109.236 241.931 120.3 241.931 120.3 255.198 129.349 254.849 145.092 254.845 145.265 254.972 145.414 255.144 145.433 256.051 145.536 258.873 146.001 262.113 148.01 266.434 150.689 271.489 156.044 273.536 165.259 277.061 181.121 269.714 186.373 267.298 187.201 267.062 187.282 266.994 187.582 267.172 187.757 268.132 188.702 270.201 191.11 270.064 194.193 269.923 197.365 268.552 198.975 267.987 199.507 267.859 199.628 267.844 199.824 267.954 199.961 269.106 201.399 274.371 208.936 266.682 218.32 259.227 227.419 249.05 223.166 246.559 221.924 246.322 221.805 246.048 221.997 246.078 222.26 246.264 223.919 246.51 228.334 244.068 229.627 241.505 230.984 238.645 230.153 237.829 229.866 237.693 229.818 237.542 229.864 237.454 229.979 236.773 230.868 233.828 234.41 230.714 233.544 226.988 232.508 225.82 228.847 225.538 227.675 225.493 227.487 225.299 227.378 225.114 227.435 223.481 227.943 216.303 229.381 208.08 218.965 207.988 218.849 207.833 218.806 207.696 218.859 206.329 219.394 199.097 221.759 194.576 214.103 194.477 213.935 194.254 213.888 194.096 214.004 191.924 215.595 178.045 224.757 162.847 211.41 162.715 211.294 162.514 211.298 162.39 211.423 161.037 212.777 153.595 219.625 145.611 215.091 145.497 215.027 145.357 215.03 145.25 215.105 144.434 215.671 140.751 217.906 135.589 216.18 135.362 216.104 135.131 216.278 135.146 216.517 135.261 218.356 135.146 224.574 128.444 225.505 128.322 225.522 128.219 225.603 128.175 225.718 127.384 227.813 119.659 246.548 101.204 232.366 101.085 232.275 100.921 232.272 100.8 232.362 99.2492 233.518 89.0648 240.579 83.361 230.982Z" fill="#FFFFFF"/><path d="M275.001 169.811C274.456 158.653 267.262 146.976 255.684 144.881 255.548 119.569 227.221 106.744 206.062 117.723 202.638 112.107 195.059 109.854 189.113 112.648 188.309 108.919 185.42 105.804 181.962 104.315 176.31 101.81 169.509 104.879 165.906 109.493 160.485 97.7735 142.784 96.1984 133.925 104.782 119.082 88.9644 84.7226 108.015 82.3475 127.297 76.6194 124.055 69.0895 123.239 63.1103 126.272 56.435 129.737 50.2559 136.363 49.6685 144.136 49.804 147.393 51.2016 150.592 53.1541 153.173 49.8922 152.121 46.3271 152.875 43.1125 153.784 28.8049 157.293 20.1099 178.752 33.9198 188.055 25.0151 192.206 29.8209 203.054 38.3648 203.487 25.6035 215.605 36.3461 231.963 50.9818 235.499 61.5737 238.724 73.4263 237.402 82.9564 231.74 86.2056 237.411 93.9578 238.12 99.1443 234.782 99.5524 234.543 100.121 234.274 100.414 233.895 100.556 233.563 100.815 233.414 101.068 233.179 104.396 236.216 108.836 237.968 113.304 238.394 122.314 254.402 133.895 246.541 138.266 256.309 141.241 263.554 138.141 270.569 142.481 275.283 146.697 279.863 140.895 302.119 137.924 306.45 137.158 306.651 128.751 309.194 130.734 309.766 136.192 308.178 141.682 306.617 147.354 305.975 159.818 304.96 185.435 302.822 195.633 309.664 196.351 310.176 197.163 309.063 196.56 308.464 195.407 307.32 194 306.613 192.504 306.02 188.567 304.504 184.335 303.978 180.155 303.618 171.309 288.809 179.781 272.485 182.778 262.405 182.778 262.405 198.761 256.185 201.377 245.847 203.911 235.834 217.686 237.157 222.409 228.905 223.34 228.889 224.267 228.72 225.128 228.356 226.843 235.234 234 236.338 238.104 230.723 243.896 232.756 248.124 228.918 246.952 222.944 257.194 228.337 269.952 221.432 271.244 209.987 271.6 206.553 271.39 202.242 268.582 199.849 271.358 196.346 271.836 190.62 268.012 187.67 274.832 184.98 275.276 176.124 275.001 169.811ZM124.998 244.811C122.287 243.858 118.774 240.167 116.983 238.131 120.292 237.395 123.303 235.426 125.443 232.793 126.223 235.68 128.242 242.892 129.447 244.783 129.338 244.811 128.552 246.062 124.998 244.811ZM135.413 245.387C133.711 245.036 128.854 233.29 127.348 229.924 127.96 228.693 128.611 227.372 128.753 225.994 133.16 225.471 136.411 221.317 135.769 216.913 136.654 217.13 137.51 217.292 138.418 217.392 138.665 220.92 140.257 246.135 135.413 245.387ZM141.614 248.43C142.397 246.792 146.836 242.912 142.077 217.29 143.261 217.062 144.424 216.587 145.371 215.818 147.751 216.979 150.465 217.276 153.011 217.028 153.2 221.273 154.741 258.005 151.47 258.438 147.998 258.898 148.618 257.288 148.618 257.288 148.618 257.288 146.518 252.119 141.614 248.43ZM162.712 212.132C165.178 214.645 168.609 216.43 171.844 217.843 170.809 218.861 167.776 221.675 163.311 224.344 161.919 225.176 160.889 225.965 160.128 226.681 160.118 223.276 159.897 218.6 159.927 214.528 160.936 213.854 161.891 213.047 162.712 212.132ZM170.441 267.062C165.605 276.261 164.241 269.591 164.241 269.591 164.241 269.591 161.224 265.713 160.357 239.993 161.706 236.685 163.728 232.368 165.791 230.323 169.266 226.878 174.669 219.389 175.029 218.889 177.495 219.536 180.089 219.748 182.63 219.52 182.176 221.871 175.119 258.162 170.441 267.062ZM199.144 226.183C196.867 233.514 194.327 245.075 186.683 248.548 178.265 252.006 189.034 219.822 189.69 217.881 191.334 217.194 192.88 216.245 194.231 215.073 195.837 218.187 199.151 220.35 202.658 220.439 201.795 221.377 200.303 223.272 199.144 226.183ZM205.716 228.828C206.968 226.326 209.656 224.215 210.588 223.036 212.793 225.33 215.513 227.161 218.518 228.229 216.236 229.98 210.602 233.913 204.414 235.326 204.414 235.325 204.197 231.862 205.716 228.828ZM272.496 178.93C271.797 182.374 269.543 185.6 266.038 186.579 265.205 186.296 264.32 186.209 263.448 186.422 262.844 186.571 262.997 187.457 263.591 187.479 264.043 187.495 264.489 187.549 264.921 187.645 265.1 187.935 265.543 187.88 265.837 187.928 266.334 188.13 266.803 188.405 267.228 188.771 272.168 193.083 267.547 201.868 261.488 201.873 261.07 201.947 261.065 202.527 261.377 202.725 263.541 203.953 266.275 202.352 267.801 200.749 268.794 201.729 269.168 203.298 269.428 204.612 270.789 211.847 266.553 219.973 259.472 222.378 253.414 224.458 246.28 222.552 242.176 217.608 241.703 217.096 240.778 217.78 241.195 218.365 242.249 219.844 243.668 221.058 245.245 222.021 245.468 224.242 245.718 226.935 243.932 228.613 241.45 230.582 236.001 229.686 235.193 226.294 234.998 225.472 233.742 225.82 233.929 226.643 234.271 228.138 235.284 229.251 236.55 230.006 232.692 234.331 227.948 233.298 226.27 227.76 227.657 226.847 228.949 225.295 228.868 223.546 228.83 223.036 228.029 222.667 227.779 223.252 224.31 231.623 213.393 225.1 209.869 219.954 208.636 218.301 207.663 216.477 207.014 214.519 206.75 213.723 205.49 214.06 205.75 214.868 206.067 215.854 206.456 216.816 206.91 217.743 202.476 219.752 197.816 218.185 195.302 214.051 196.265 213.016 197.121 211.866 197.56 210.507 197.856 209.821 196.956 209.245 196.535 209.908 196.184 210.46 195.744 210.974 195.318 211.473 191.434 216.418 184.856 218.263 178.773 217.833 173.047 217.508 168.038 214.324 163.377 211.331 163.987 210.521 164.631 209.702 164.835 208.687 164.953 208.255 164.355 207.844 164.039 208.223 163.566 208.671 163.234 209.21 162.892 209.757 159.323 215.038 152.202 217.209 146.27 214.919 146.771 214.298 147.495 213.36 147.347 212.527 147.288 212.198 146.814 212.004 146.542 212.199 146.005 212.588 145.814 213.341 145.408 213.863 142.831 217.053 138.063 216.353 134.599 215.233 132.883 214.656 131.189 213.719 130.265 212.102 129.883 211.432 128.855 212.032 129.23 212.707 130.368 214.751 132.491 215.923 134.707 216.617 134.582 217.806 134.505 219.027 134.178 220.181 132.807 224.605 127.085 225.86 123.179 224.185 122.541 223.945 122.296 224.94 122.901 225.193 124.372 225.807 125.959 226.138 127.548 226.097 122.983 237.055 113.166 239.595 103.333 233.273 101.498 232.039 99.7074 230.232 99.3003 227.974 99.1921 227.373 98.1557 227.504 98.2239 228.12 98.4009 229.714 99.1273 231.047 100.123 232.203 98.7329 232.823 97.4381 233.754 95.9658 234.258 90.9382 236.355 84.2229 233.989 82.955 228.363 82.8029 227.799 81.8639 227.891 81.9088 228.504 81.9648 229.266 82.1496 230.001 82.4353 230.698 73.6749 235.171 63.2882 236.508 53.6801 234.302 38.5983 231.55 26.6019 216.066 40.2553 203.577 40.8627 203.571 41.4877 203.575 42.0444 203.306 42.4822 203.093 42.3062 202.49 41.9196 202.351 40.2119 202.064 38.416 202.208 36.777 201.517 32.5299 200.508 28.8142 195.615 31.6519 191.51 32.4051 190.289 33.5615 189.072 34.985 188.69 36.9194 189.731 39.0785 190.321 41.2683 190.237 42.1887 190.202 42.18 188.871 41.2683 188.814 20.0362 185.589 27.0879 152.373 53.7469 153.842 54.483 154.899 55.5248 154.07 54.9447 153.355 53.9034 152.293 53.1351 150.95 52.5281 149.602 47.679 140.187 58.9636 128.822 67.6757 126.746 72.5619 125.804 77.7046 126.848 82.1223 129.041 81.9541 130.912 82.0116 132.803 82.33 134.675 82.5767 135.493 83.7959 135.175 83.6038 134.324 81.2424 115.867 102.754 101.002 119.48 100.726 123.319 100.843 127.2 101.755 130.514 103.738 131.393 104.07 132.154 104.62 132.862 105.229 133.019 105.358 133.194 105.396 133.356 105.373 131.985 106.88 130.932 108.654 130.363 110.656 130.125 111.496 131.414 111.847 131.667 111.015 137.551 95.4062 165.468 98.7626 165.964 116.23 166.025 116.73 166.786 116.942 166.92 116.359 167.36 114.439 167.041 112.382 166.319 110.479 173.616 103.05 183.624 102.845 188.038 113.249 186.778 114.157 185.904 115.555 185.206 116.918 184.896 117.528 185.731 118.007 186.117 117.45 187.172 115.986 188.298 114.391 190.103 113.837 195.577 111.675 202.195 114.046 204.997 119.231 205.503 120.124 205.893 121.068 206.411 121.953 206.683 122.417 207.424 122.219 207.423 121.68 207.422 120.615 207.088 119.587 206.589 118.63 233.095 106.599 263.422 128.32 251.089 157.306 250.785 158.057 251.908 158.396 252.315 157.823 254.632 154.46 255.463 150.243 255.661 146.225 269.652 149.371 275.614 166.045 272.496 178.93Z"/><path d="M303.217 250.058C303.177 249.857 302.918 249.761 302.757 249.889 302.64 249.977 302.517 250.061 302.401 250.149 299.984 251.908 298.106 253.494 296.224 256.584 296.217 256.596 296.11 256.773 295.969 257.006 295.769 256.662 295.549 256.329 295.311 256.01 295.232 255.904 295.092 255.864 294.969 255.912 293.795 256.374 292.756 257.114 291.916 258.038 291.613 257.711 291.29 257.378 291.264 257.326 290.573 255.931 289.537 254.844 288.353 253.909 288.417 253.556 288.459 253.244 288.455 253.158 288.441 252.283 288.718 251.351 289.238 250.535 289.327 250.4 289.279 250.203 289.138 250.125 288.308 249.641 287.58 248.963 286.721 248.488 286.54 248.381 286.29 248.521 286.287 248.732 286.278 248.939 286.256 249.154 286.234 249.363 286.103 250.368 286.195 251.375 286.504 252.362 286.507 252.382 286.492 252.465 286.467 252.583 286 252.283 285.526 251.992 285.055 251.704 284.881 251.596 284.671 251.594 284.499 251.488 284.328 251.375 284.115 251.389 284.091 251.593 283.913 252.495 283.76 253.275 283.802 254.202 283.823 255.172 283.987 256.099 284.079 257.053 284.088 257.149 284.144 257.234 284.23 257.282 286.099 258.308 287.722 259.909 288.801 261.791 288.873 261.927 289.348 262.476 289.738 262.859 289.725 262.99 289.713 263.121 289.706 263.253 289.497 263.433 289.572 263.768 289.863 263.793 292.229 263.919 294.923 263.831 297.116 263.706 297.268 263.698 297.388 263.574 297.392 263.422 297.493 262.395 297.436 261.356 297.234 260.344 297.66 259.906 298.06 259.455 298.113 259.354 298.983 257.797 300.624 256.532 302.735 255.793 302.835 255.759 302.908 255.673 302.926 255.569 303.252 253.763 303.639 251.906 303.217 250.058Z" fill="#FFFFFF"/><path d="M305.876 256.163C305.816 256.087 305.723 256.046 305.627 256.052 305.451 256.064 305.276 256.073 305.101 256.087 301.885 256.354 299.414 258.392 297.907 260.053 297.846 260.122 297.82 260.214 297.837 260.305 298.06 261.477 298.1 262.439 297.961 263.333 297.93 263.507 298.081 263.679 298.258 263.671 298.542 263.663 298.826 263.657 299.111 263.649 300.14 263.624 301.204 263.6 302.25 263.531 302.432 263.523 302.568 263.329 302.512 263.156 302.403 262.683 303.179 261.803 303.5 261.318 304.597 259.719 305.413 258.075 305.925 256.431 305.955 256.339 305.936 256.238 305.876 256.163Z" fill="#FFFFFF"/><path d="M299.774 247.886C299.658 247.775 299.454 247.787 299.353 247.914 299.254 248.032 299.127 248.155 298.965 248.287 298.776 248.439 298.587 248.597 298.405 248.748 297.719 249.325 297.244 249.624 297.013 250.023 296.181 248.328 295.186 246.52 294.849 246.768 292.323 247.695 288.558 250.527 288.332 253.477 288.326 253.576 288.371 253.67 288.451 253.729 289.605 254.574 290.564 255.67 291.3 256.985 291.345 257.065 291.425 257.119 291.516 257.131 291.606 257.144 291.699 257.113 291.763 257.048 292.744 256.056 293.845 255.465 294.942 255.338 295.026 255.33 295.158 255.43 295.174 255.514 295.187 255.579 295.22 255.638 295.27 255.682 295.468 255.853 295.662 256.042 295.847 256.245 295.984 256.405 296.267 256.352 296.336 256.152 296.768 255.025 297.412 253.928 298.198 252.976 298.269 252.891 298.285 252.773 298.24 252.672 298.235 252.659 298.229 252.646 298.223 252.631 298.555 252.443 298.88 252.228 298.947 252.157 299.445 251.665 300.007 251.181 300.667 250.679 300.727 250.634 300.767 250.567 300.779 250.494 300.931 249.545 300.574 248.62 299.774 247.886Z" fill="#FFFFFF"/><path d="M284.334 257.832C284.298 257.807 284.14 257.712 284.099 257.689 283.32 257.233 282.579 256.882 281.835 256.615 281.609 256.526 281.368 256.773 281.464 256.997 282.141 258.722 282.972 260.276 283.935 261.616 284.051 261.802 285.371 263.551 285.544 263.56 286.618 263.64 287.72 263.705 288.819 263.753 289.025 263.768 289.187 263.539 289.102 263.349 288.188 261.125 286.495 259.165 284.334 257.832Z" fill="#FFFFFF"/><path d="M303.625 279.872C303.267 279.67 302.966 280.573 302.351 280.588 302.062 280.605 300.442 279.191 300.041 278.825 299.918 278.709 299.704 278.73 299.607 278.869 299.278 279.319 298.949 279.769 298.622 280.222 297.755 281.467 297.285 281.372 296.025 280.371 295.439 279.947 294.943 279.585 294.487 279.241 294.383 279.163 294.239 279.162 294.136 279.241 293.074 280.127 292.394 281.464 290.828 281.274 289.517 281.135 288.268 279.964 287.537 278.914 287.449 278.788 287.279 278.752 287.148 278.83 286.844 279.013 286.665 279.296 286.458 279.553 285.668 280.717 284.537 280.622 283.782 279.512 283.623 279.255 283.19 279.424 283.252 279.724 283.521 281.05 283.514 282.302 284.224 283.399 285.082 284.678 287 285.836 289.699 286.354 293.922 287.267 302.641 286.824 303.634 282.298 303.755 281.691 303.917 280.78 304.015 280.183 304.036 280.053 303.745 279.927 303.625 279.872Z" fill="#FFFFFF"/><path d="M304.45 275.024C297.319 277.067 289.248 277.279 282.963 275.166 282.766 275.097 282.544 275.282 282.584 275.49 282.699 276.235 282.817 276.979 282.932 277.725 282.946 277.818 283.004 277.898 283.088 277.941 283.839 278.361 284.266 280.253 285.366 279.916 286.053 279.642 286.288 278.788 286.905 278.458 287.118 278.337 287.571 278.195 287.77 278.526 288.82 280.087 289.963 280.914 291.038 280.911 292.33 280.975 293.032 279.637 293.965 278.901 294.173 278.745 294.343 278.674 294.405 278.716 295.126 279.209 297.065 280.698 297.373 280.727 297.907 280.769 299.579 278.222 299.579 278.222 299.674 278.093 299.808 278.055 299.929 278.168 300.24 278.442 301.598 279.693 301.982 280.025 302.347 280.298 302.529 280.104 302.717 279.89 303.175 279.413 303.625 278.889 304.056 278.335 304.302 277.423 304.359 276.437 304.568 275.305 304.584 275.196 304.538 275.087 304.45 275.024Z" fill="#FFFFFF"/><path d="M306.282 263.768C306.21 263.698 305.783 262.597 305.664 262.548 305.214 262.366 304.752 262.204 304.306 262.047L304.092 261.972C303.973 261.931 303.877 262.013 303.765 262.068 303.148 262.366 303.01 262.539 302.813 262.922 302.777 262.991 302.545 263.297 302.316 263.891 301.365 263.947 300.308 264.082 299.37 264.099 298.63 264.112 286.665 264.26 285.032 264.085 284.642 263.536 283.652 262.283 283.43 261.972 283.35 261.86 283.264 261.861 283.138 261.915 283.012 261.969 280.831 263.172 280.74 263.243 280.648 263.313 280.607 263.431 280.634 263.542 281.073 265.356 282.465 274.725 282.465 274.725 282.484 274.852 282.584 274.951 282.712 274.969 283.204 275.041 284.575 275.494 284.776 275.538 287.423 276.11 290.191 276.474 292.853 276.474 295.378 276.474 298.041 276.366 300.444 275.85 301.494 275.612 304.482 274.613 304.563 274.569 304.644 274.526 304.7 274.446 304.713 274.356 304.852 273.451 304.986 272.53 305.117 271.638 305.483 269.136 305.861 266.548 306.366 264.037 306.386 263.938 306.354 263.837 306.282 263.768Z" fill="#FFFFFF"/><path d="M307.213 262.845C307.502 262.076 305.102 261.589 304.531 261.503 305.319 260.28 306.864 257.379 306.807 255.955 307.256 254.546 304.623 254.988 303.868 255.179 304.369 253.395 304.248 250.919 303.501 249.223 303.09 248.559 301.935 249.503 301.467 249.752 301.256 248.605 300.501 247.771 299.59 247.124 299.467 247.034 299.329 247.051 299.221 247.123 298.881 247.21 298.518 247.527 298.327 247.693 297.947 248.022 297.568 248.352 297.188 248.681 296.722 247.84 296.217 247.019 295.653 246.241 295.483 246.003 295.166 245.896 294.911 246.079 292.718 246.409 290.866 248.035 289.493 249.677 289.235 249.304 288.776 249.011 288.442 248.792 287.882 248.425 287.296 248.092 286.685 247.819 286.342 247.666 286.026 247.954 286.032 248.235 285.41 249.27 285.581 250.704 285.832 251.831 285.331 251.585 284.819 251.353 284.302 251.125 283.08 250.146 283.001 253.618 283.06 254.253 283.104 255.036 283.217 255.819 283.438 256.572 282.793 256.33 281.826 255.859 281.142 256.058 280.273 255.873 281.23 257.941 281.33 258.309 281.765 259.505 282.204 260.714 282.932 261.769 282.943 261.785 282.922 261.792 282.9 261.784 282.844 261.76 282.783 261.747 282.721 261.749 281.968 261.807 280.473 261.866 280.208 262.729 280 262.816 279.922 263.036 279.953 263.251 280.046 264.869 280.331 266.647 280.597 268.311 281.377 273.1 281.969 277.93 282.911 282.688 284.924 288.826 299.85 288.674 303.406 284.172 303.966 283.47 304.236 282.692 304.395 281.822 304.694 280.18 304.943 278.528 305.201 276.88 305.852 272.43 306.672 268.045 307.161 263.566 307.38 263.386 307.363 263.074 307.213 262.845ZM305.502 262.83C304.656 263 303.801 263.111 302.941 263.185 303.362 262.98 303.698 262.626 303.995 262.247 304.497 262.425 305 262.596 305.495 262.795 305.514 262.803 305.519 262.826 305.502 262.83ZM305.124 256.379C305.299 256.364 305.473 256.356 305.646 256.344 305.113 258.055 304.272 259.676 303.259 261.152 302.921 261.658 302.053 262.634 302.231 263.239 300.906 263.325 299.573 263.342 298.25 263.378 298.411 262.334 298.319 261.281 298.123 260.25 299.944 258.242 302.364 256.608 305.124 256.379ZM284.37 257.027C284.279 256.084 284.114 255.143 284.094 254.194 284.053 253.294 284.204 252.532 284.381 251.634 286.876 253.174 289.654 254.735 291.002 257.456 290.02 258.665 289.325 260.108 289.055 261.646 287.953 259.726 286.316 258.094 284.37 257.027ZM289.998 263.271C290.163 260.195 292.202 257.317 295.076 256.185 296.243 257.756 296.97 259.671 297.126 261.621 297.177 262.224 297.115 262.81 297.1 263.416 294.695 263.547 292.287 263.624 289.877 263.503 289.945 263.444 289.993 263.361 289.998 263.271ZM302.574 250.384C302.69 250.297 302.813 250.212 302.932 250.124 303.34 251.909 302.958 253.746 302.638 255.519 300.718 256.191 298.865 257.41 297.857 259.213 297.621 258.451 297.265 257.703 296.811 257.014 296.865 256.958 296.908 256.885 296.936 256.794 297.17 256.011 297.507 255.252 297.979 254.582 299.196 252.871 300.885 251.595 302.574 250.384ZM299.149 248.514C299.264 248.42 299.434 248.272 299.577 248.102 300.245 248.714 300.636 249.533 300.489 250.446 299.877 250.912 299.288 251.408 298.741 251.949 298.469 251.17 298.104 250.413 297.723 249.678 298.207 249.303 298.671 248.899 299.149 248.514ZM291.163 249.38C292.255 248.348 293.56 247.586 294.956 247.04 296.202 248.83 297.096 250.799 297.971 252.789 297.171 253.758 296.507 254.885 296.062 256.048 295.872 255.839 295.671 255.643 295.46 255.46 295.417 255.228 295.15 255.023 294.913 255.046 293.614 255.197 292.472 255.914 291.554 256.841 290.821 255.531 289.834 254.379 288.623 253.492 288.717 251.816 290.013 250.49 291.163 249.38ZM286.776 252.243C286.557 251.547 286.45 250.833 286.469 250.103 286.481 249.656 286.56 249.199 286.578 248.746 287.429 249.217 288.153 249.893 288.99 250.38 288.464 251.206 288.145 252.182 288.161 253.164 287.718 252.861 287.261 252.585 286.793 252.329 286.791 252.301 286.785 252.272 286.776 252.243ZM281.737 256.891C282.517 257.17 283.241 257.526 283.953 257.942 284.002 258.021 284.091 258.068 284.181 258.081 286.23 259.346 287.914 261.226 288.832 263.461 287.742 263.413 286.654 263.349 285.566 263.269 285.679 262.841 284.45 261.898 284.178 261.454 283.165 260.045 282.37 258.506 281.737 256.891ZM282.848 262.681C283.074 262.626 283.229 262.38 283.194 262.156 283.193 262.152 283.198 262.15 283.2 262.153 283.429 262.472 283.684 262.827 283.973 263.136 283.289 263.074 282.608 262.994 281.925 262.923 281.893 262.919 281.893 262.901 281.925 262.894 282.235 262.833 282.542 262.765 282.848 262.681ZM303.824 278.156C303.415 278.684 302.97 279.203 302.506 279.688 302.334 279.869 302.337 279.928 302.158 279.792 301.469 279.194 300.808 278.556 300.123 277.95 299.868 277.719 299.534 277.783 299.341 278.05 298.988 278.539 298.633 279.028 298.28 279.517 298.111 279.75 297.754 280.466 297.397 280.435 297.183 280.417 296.919 280.151 296.758 280.034 296.034 279.507 295.31 278.981 294.57 278.475 293.903 278.031 292.597 280.091 291.952 280.382 290.34 281.235 288.85 279.599 288.021 278.376 287.749 277.92 287.171 277.97 286.761 278.203 286.437 278.384 286.202 278.682 285.972 278.965 285.787 279.195 285.567 279.537 285.28 279.636 284.458 279.891 284.018 278.087 283.222 277.68 283.106 276.935 282.989 276.19 282.874 275.444 289.125 277.452 295.955 277.33 302.312 275.877 302.96 275.685 303.682 275.564 304.279 275.26 304.128 276.226 303.978 277.191 303.824 278.156ZM303.184 281.947C302.007 287.564 287.239 287.362 284.466 283.236 284.069 282.655 283.946 282.032 283.823 281.339 283.724 280.785 283.63 280.231 283.54 279.675 283.975 280.315 284.714 280.851 285.524 280.642 286.022 280.513 286.384 280.124 286.689 279.733 286.87 279.511 287.05 279.227 287.297 279.082 288.597 280.948 291.005 282.652 293.039 280.746 293.477 280.343 293.833 279.833 294.312 279.475 294.817 279.855 295.326 280.227 295.839 280.597 297.069 281.612 297.896 281.861 298.868 280.382 299.147 279.996 299.428 279.611 299.71 279.225 299.93 279.217 299.985 279.215 300.203 279.207 301.624 280.869 302.354 281.503 303.504 280.138 303.403 280.742 303.303 281.346 303.184 281.947ZM304.425 274.311C304.054 274.14 303.693 274.274 303.322 274.383 302.273 274.689 301.215 274.965 300.149 275.205 295.125 276.285 289.865 276.205 284.849 275.121 284.153 274.968 283.461 274.783 282.754 274.68 282.701 274.334 282.647 273.988 282.594 273.643 283.164 273.458 283.329 272.836 283.008 272.319 282.912 272.177 282.732 272.062 282.569 272.023 282.497 272.013 282.344 271.995 282.34 271.995 281.858 269.158 281.598 266.273 280.919 263.474 281.572 263.822 282.335 263.975 283.063 264.109 285.787 264.583 288.56 264.614 291.314 264.733 293.263 264.839 295.212 264.768 297.159 264.661 300.134 264.532 303.162 264.702 306.081 263.98 305.392 267.395 304.951 270.869 304.425 274.311Z"/><path d="M288.276 273.02C288.095 272.185 286.908 272.184 286.689 272.999 286.687 273.011 286.659 273.211 286.66 273.222 286.662 273.234 286.687 273.44 286.692 273.45 287.02 274.502 288.541 274.091 288.276 273.02Z"/><path d="M294.099 272.86C293.537 272.159 292.519 273.043 293.137 273.706 293.712 274.258 294.586 273.496 294.099 272.86Z"/><path d="M299.852 272.225C299.007 271.435 297.831 272.622 298.617 273.46 299.461 274.25 300.637 273.063 299.852 272.225Z"/><path d="M335.845 276.629C329.303 278.475 320.953 278.992 314.438 276.758 314.241 276.688 314.02 276.873 314.06 277.08 314.365 279.03 314.659 280.988 315.007 282.955 315.12 283.587 315.248 284.304 315.695 284.957 317.148 287.054 321.229 288.098 325.16 288.098 328.732 288.259 334.409 286.725 334.854 283.562 335.271 281.332 335.594 279.114 335.945 276.897 335.96 276.797 335.922 276.695 335.845 276.629Z" fill="#FFFFFF"/><path d="M336.152 274.219C335.831 274.076 335.59 274.577 335.258 274.467 334.611 274.29 334.262 273.457 333.763 273.035 332.722 271.769 332.86 272.089 331.95 273.205 330.974 274.473 330.6 275.216 329.329 273.775 328.792 273.23 328.212 272.715 327.688 272.151 327.623 272.083 327.528 272.049 327.435 272.063 327.341 272.076 327.26 272.135 327.217 272.219 326.899 272.84 326.643 273.318 326.389 273.767 326.054 274.224 325.869 275.019 325.357 275.228 324.79 275.384 324.16 274.295 323.705 273.856 323.376 273.62 322.696 272.352 322.287 272.748 321.505 273.67 321.24 275.225 319.797 275.287 318.183 275.406 317.229 274.134 316.736 272.594 316.707 272.508 316.639 272.44 316.552 272.412 316.185 272.362 315.985 272.741 315.649 272.956 315.106 273.404 314.362 274.018 313.922 274.024 313.752 274.022 313.607 274.19 313.638 274.36 313.782 274.792 313.772 276.475 314.162 276.557 320.172 277.977 325.863 278.342 331.611 277.082 332.652 276.846 333.721 276.569 334.787 276.258 335.121 276.154 335.452 276.052 335.68 276.172 335.848 276.256 336.068 276.139 336.091 275.952 336.078 275.539 336.515 274.438 336.152 274.219Z" fill="#FFFFFF"/><path d="M337.659 265.379C335.417 265.563 332.978 266 330.663 265.92 327.99 265.952 325.651 266.228 322.7 266.07 319.367 265.845 315.696 266.099 312.539 264.861 312.267 264.718 312.01 265.037 312.148 265.298 312.798 268.053 313.053 270.837 313.525 273.617 313.56 273.856 313.885 273.946 314.036 273.756 314.749 272.911 315.708 272.3 316.544 271.577 317.221 271.037 317.112 273.058 318.106 274.013 318.538 274.487 319.315 274.951 320.084 274.7 321.251 274.262 321.309 272.485 322.502 272.145 322.599 272.126 322.675 272.142 322.746 272.195 326.297 276.133 324.654 275.174 327.261 271.567 327.344 271.46 327.396 271.494 327.488 271.551 328.451 272.322 329.278 273.234 330.201 274.041 330.59 274.307 330.8 274.014 330.879 273.904 331.26 273.409 331.636 272.923 331.89 272.576 332.86 271.35 332.719 271.062 333.712 272.262 334.036 272.633 334.481 273.142 335.082 273.748 335.489 274.117 336.247 272.962 336.559 272.589 336.85 270.303 337.529 267.736 337.659 265.379Z" fill="#FFFFFF"/><path d="M312.4 259.247C312.447 259.282 312.624 259.638 312.773 259.636 313.52 259.626 314.254 259.694 314.952 259.836 315.182 259.891 315.387 259.621 315.267 259.413 314.52 258.102 314.161 256.549 313.586 255.095 312.118 253.836 310.251 253.223 308.453 252.747 308.329 252.714 308.198 252.767 308.13 252.876 307.938 253.222 308.547 253.565 308.731 253.827 308.586 253.895 308.523 254.077 308.597 254.22 309.485 255.989 310.491 257.992 312.4 259.247Z" fill="#FFFFFF"/><path d="M320.153 262.946C320.153 262.946 320.153 262.946 320.153 262.946 318.002 260.632 313.468 259.618 310.143 260.419 310.01 260.448 309.555 260.58 309.372 260.61 309 260.637 308.896 261.107 309.28 261.209 311.282 261.555 312.929 262.273 314.174 263.341 314.624 263.762 315.449 264.291 315.522 264.85 315.538 264.987 315.648 265.095 315.786 265.107 316.429 265.163 320.298 265.406 321.426 265.448 322.477 265.315 320.262 263.04 320.153 262.946Z" fill="#FFFFFF"/><path d="M324.214 253.161C323.818 252.62 323.583 251.961 323.256 251.363 322.319 249.752 321.26 248.147 319.803 247.216 319.757 246.909 319.274 246.858 319.21 247.185 318.638 249.823 318.677 252.495 319.325 254.918 319.364 255.028 319.378 255.154 319.442 255.254 320.531 256.766 321.452 258.388 322.156 260.167 322.257 260.441 322.69 260.387 322.716 260.093 322.992 257.768 323.563 255.568 324.41 253.555 324.482 253.397 324.384 253.197 324.214 253.161Z" fill="#FFFFFF"/><path d="M339.266 250.67C339.196 250.59 339.087 250.555 338.983 250.578 338.914 250.593 338.47 250.71 338.403 250.727 335.625 251.441 333.006 252.285 331.481 254.74 331.476 254.748 331.391 254.855 331.379 254.91 330.583 258.525 328.768 263.043 326.064 264.884 325.943 264.966 325.894 265.115 325.94 265.253 325.984 265.387 326.106 265.474 326.246 265.474 326.251 265.474 326.255 265.474 326.26 265.474 326.554 265.462 326.849 265.449 327.143 265.437 328.088 265.396 329.065 265.355 330.025 265.335 330.159 265.332 330.274 265.238 330.303 265.106 330.843 262.649 332.649 260.43 335.388 258.859 335.429 258.835 335.464 258.802 335.49 258.761 337.051 256.262 338.34 253.637 339.32 250.962 339.357 250.862 339.336 250.75 339.266 250.67Z" fill="#FFFFFF"/><path d="M322.544 263.038C322.543 262.893 322.531 262.542 322.521 262.513 321.329 259.137 319.839 256.435 317.97 254.254 316.614 252.639 315.392 251.501 314.125 250.673 314.036 250.615 313.617 250.487 313.494 250.528 313.37 250.569 313.288 250.687 313.294 250.816 313.39 253.223 314.074 255.536 314.824 257.886 315.005 258.508 315.341 259.083 315.379 259.725 315.387 259.851 315.474 259.958 315.596 259.99 316.746 260.292 317.891 260.895 319 261.782 320.152 262.662 321.029 263.763 321.774 265.304 321.821 265.402 321.919 265.465 322.027 265.469 322.213 265.474 322.784 265.436 322.838 265.353 322.893 265.268 322.9 265.16 322.856 265.068 322.557 264.444 322.551 263.761 322.544 263.038Z" fill="#FFFFFF"/><path d="M331.616 245.904C331.519 245.855 331.402 245.863 331.313 245.927 330.09 246.81 329.086 247.681 328.243 248.592 326.361 250.664 324.956 253.277 324.068 256.358 323.284 259.078 322.939 262.097 323.07 265.089 323.073 265.15 323.29 265.503 323.421 265.507 323.707 265.514 325.19 265.508 325.373 265.503 325.456 265.501 326.993 263.289 326.995 263.288 328.444 261.402 329.473 259.262 330.195 257.062 331.438 253.277 331.772 249.313 331.775 246.163 331.774 246.054 331.714 245.954 331.616 245.904Z" fill="#FFFFFF"/><path d="M339.689 257.751C339.615 257.634 339.469 257.586 339.34 257.635 339.101 257.726 338.871 257.815 338.656 257.901 338.655 257.901 338.654 257.902 338.653 257.902 334.227 259.737 331.609 262.035 330.647 264.929 330.617 265.02 330.633 265.119 330.689 265.195 330.744 265.269 330.831 265.313 330.923 265.313 330.926 265.313 330.928 265.313 330.931 265.313 331.888 265.288 332.913 265.255 333.925 265.186 334.004 265.181 334.247 265.158 334.319 265.158 334.326 265.158 334.333 265.158 334.34 265.157 335.027 265.106 335.583 265.046 336.09 264.968 336.245 264.944 336.354 264.802 336.335 264.646 336.199 263.503 336.579 262.271 337.464 260.983 337.552 260.854 338.861 258.871 339.645 258.117 339.745 258.021 339.763 257.868 339.689 257.751Z" fill="#FFFFFF"/><path d="M342.171 256.079C342.169 256.079 342.168 256.078 342.167 256.077 341.86 255.911 341.595 256.212 341.288 256.203 339.734 256.406 338.279 257.118 336.855 257.747 336.842 257.752 336.829 257.737 336.837 257.725 337.83 256.193 338.738 254.586 339.345 252.859 339.644 252.048 339.907 251.223 339.982 250.358 340.013 250.093 339.676 249.944 339.465 250.043 339.463 250.044 339.461 250.044 339.459 250.044 336.748 250.002 333.895 250.959 332.068 253.031 332.058 253.042 332.041 253.033 332.043 253.019 332.441 250.527 332.746 248.01 332.451 245.495 332.451 245.491 332.452 245.486 332.456 245.484 332.688 245.26 332.501 244.793 332.148 244.916 332.145 244.917 332.141 244.917 332.138 244.916 331.901 244.798 331.58 244.928 331.466 245.17 331.464 245.173 331.462 245.175 331.459 245.177 328.264 246.546 325.968 249.554 324.509 252.621 324.503 252.633 324.486 252.631 324.482 252.618 324.185 251.402 323.447 250.27 322.725 249.254 321.847 248.088 320.813 247.072 319.633 246.212 319.39 246.038 319.013 246.23 318.958 246.505 318.958 246.507 318.957 246.509 318.956 246.511 317.926 247.787 318.125 251.754 318.389 253.42 318.391 253.434 318.373 253.442 318.363 253.431 317.765 252.751 317.123 252.111 316.432 251.526 315.505 250.74 314.492 250.057 313.377 249.566 312.976 249.389 312.61 249.809 312.737 250.118 312.738 250.12 312.739 250.123 312.738 250.125 312.498 251.455 312.843 252.813 313.093 254.117 313.095 254.13 313.081 254.139 313.07 254.131 311.47 252.986 309.552 252.353 307.604 252.264 307.601 252.264 307.599 252.263 307.597 252.261 307.368 252.103 306.97 252.141 306.899 252.453 306.805 252.913 307.216 253.383 307.44 253.767 307.647 254.12 307.846 254.476 308.036 254.838 308.854 256.599 309.923 258.258 311.51 259.404 311.521 259.411 311.517 259.428 311.504 259.429 310.101 259.597 308.58 259.907 307.391 260.709 307.122 260.892 307.166 261.39 307.506 261.445 309.66 261.728 311.883 262.259 313.597 263.667 313.607 263.675 313.602 263.692 313.589 263.693 312.951 263.744 312.05 263.76 311.695 264.375 311.694 264.378 311.692 264.38 311.689 264.38 311.489 264.469 311.413 264.685 311.444 264.897 311.536 266.507 311.82 268.277 312.084 269.933 312.861 274.7 313.45 279.508 314.388 284.245 314.388 284.246 314.388 284.246 314.388 284.247 316.495 290.384 331.154 290.208 334.791 285.724 335.349 285.025 335.617 284.251 335.775 283.384 336.073 281.75 336.32 280.105 336.577 278.464 337.227 274.016 338.048 269.634 338.533 265.159 338.534 265.156 338.535 265.154 338.536 265.152 338.631 265.028 338.667 264.873 338.654 264.724 338.654 264.722 338.654 264.72 338.655 264.718 338.961 263.929 337.684 263.677 337.146 263.454 337.138 263.451 337.135 263.444 337.137 263.436 337.74 261.515 339.267 260.074 340.619 258.654 341.202 258.007 341.968 257.466 342.339 256.661 342.34 256.66 342.341 256.659 342.342 256.657 342.541 256.491 342.443 256.092 342.171 256.079ZM336.032 264.682C335.474 264.768 334.909 264.822 334.348 264.864 334.335 264.865 334.328 264.852 334.334 264.842 335.08 263.63 335.905 262.468 336.79 261.354 336.821 261.315 336.881 261.356 336.856 261.399 336.282 262.389 335.91 263.507 336.044 264.667 336.045 264.674 336.04 264.681 336.032 264.682ZM338.764 258.171C338.967 258.09 339.171 258.011 339.376 257.932 339.391 257.927 339.403 257.946 339.392 257.956 337.331 259.942 335.063 262.323 333.909 264.887 333.906 264.892 333.902 264.895 333.897 264.896 332.914 264.963 331.929 264.995 330.944 265.021 330.934 265.022 330.927 265.011 330.93 265.002 332.089 261.542 335.564 259.497 338.764 258.171ZM331.731 254.889C333.216 252.5 335.861 251.683 338.421 251.023 338.435 251.02 338.445 251.038 338.434 251.048 335.891 253.443 333.723 256.207 331.538 258.924 331.386 259.116 331.654 259.392 331.812 259.197 334.018 256.336 336.68 253.777 338.836 250.915 338.838 250.912 338.841 250.91 338.844 250.909 338.903 250.895 338.962 250.882 339.021 250.868 339.032 250.866 339.042 250.877 339.038 250.888 338.045 253.59 336.769 256.163 335.245 258.605 335.244 258.607 335.242 258.609 335.24 258.609 332.782 260.02 330.648 262.2 330.021 265.034 330.02 265.04 330.014 265.045 330.008 265.045 328.738 265.07 327.468 265.134 326.202 265.185 326.183 265.186 326.175 265.161 326.191 265.15 329.117 263.191 330.929 258.306 331.663 254.977 331.663 254.975 331.665 254.972 331.667 254.97 331.69 254.948 331.712 254.921 331.731 254.889ZM328.459 248.787C329.358 247.816 330.384 246.958 331.46 246.18 331.469 246.173 331.483 246.18 331.483 246.192 331.474 251.979 330.358 258.434 326.763 263.111 326.267 263.726 325.838 264.388 325.403 265.047 325.37 265.097 325.358 265.149 325.363 265.197 325.364 265.205 325.358 265.213 325.349 265.213 325.179 265.218 325.008 265.221 324.838 265.223 324.829 265.223 324.822 265.215 324.823 265.206 325.851 259.217 327.102 253.076 330.422 247.884 330.557 247.66 330.229 247.486 330.08 247.684 326.442 252.765 325.563 259.184 324.627 265.214 324.626 265.221 324.619 265.226 324.612 265.226 324.222 265.23 323.831 265.227 323.44 265.217 323.433 265.217 323.428 265.212 323.426 265.206 323.414 265.162 323.394 265.12 323.363 265.08 323.361 265.077 323.36 265.075 323.36 265.072 323.115 259.444 324.541 253.1 328.459 248.787ZM319.605 254.836C318.963 252.437 318.956 249.861 319.455 247.433 319.488 247.436 319.476 247.436 319.508 247.439 319.472 248.67 319.807 249.901 320.048 251.103 320.295 252.164 320.624 253.205 320.996 254.228 321.117 254.56 321.222 254.918 321.409 255.219 321.508 255.378 321.732 255.271 321.7 255.096 320.902 252.632 320.112 250.131 319.814 247.545 319.813 247.532 319.828 247.523 319.839 247.532 321.135 248.64 322.19 250.007 322.999 251.502 323.326 252.095 323.547 252.733 323.946 253.284 323.992 253.368 324.056 253.417 324.126 253.438 324.134 253.44 324.138 253.449 324.135 253.457 323.262 255.533 322.704 257.764 322.433 260.003 322.431 260.018 322.411 260.02 322.405 260.006 321.992 258.976 321.505 257.974 320.94 257.018 320.55 256.357 320.13 255.71 319.678 255.085 319.677 255.083 319.677 255.082 319.676 255.08 319.653 254.999 319.629 254.918 319.605 254.836ZM317.747 254.441C319.787 256.822 321.21 259.676 322.246 262.607 322.247 262.609 322.247 262.61 322.247 262.612 322.27 263.474 322.204 264.363 322.584 265.173 322.588 265.183 322.581 265.194 322.57 265.194 322.395 265.189 322.22 265.183 322.045 265.178 322.04 265.178 322.035 265.174 322.033 265.169 321.415 263.89 320.593 262.7 319.49 261.804 319.488 261.803 319.487 261.8 319.486 261.798 318.129 257.975 316.273 254.338 314.008 250.978 313.999 250.965 314.014 250.949 314.028 250.958 315.446 251.897 316.659 253.146 317.747 254.441ZM315.68 259.711C315.674 259.709 315.67 259.704 315.669 259.698 315.627 259.012 315.294 258.442 315.103 257.803 314.383 255.548 313.692 253.235 313.587 250.857 313.586 250.843 313.606 250.836 313.614 250.848 315.86 254.174 317.727 257.759 319.162 261.504 319.168 261.518 319.151 261.53 319.139 261.52 318.114 260.707 316.937 260.043 315.68 259.711ZM312.565 259.008C310.788 257.841 309.826 256.017 308.899 254.174 308.892 254.159 308.911 254.145 308.922 254.157 310.127 255.388 311.496 256.585 313.075 257.297 313.199 257.348 313.313 257.15 313.208 257.069 311.479 255.904 309.818 254.616 308.412 253.066 308.403 253.055 308.413 253.038 308.427 253.042 310.2 253.514 311.984 254.108 313.393 255.313 313.395 255.315 313.397 255.318 313.397 255.32 313.834 256.755 314.293 258.198 314.995 259.524 315.001 259.534 314.992 259.547 314.98 259.545 314.26 259.401 313.521 259.336 312.781 259.345 312.774 259.345 312.768 259.34 312.767 259.332 312.75 259.212 312.687 259.096 312.565 259.008ZM314.556 260.59C315.932 260.861 317.61 261.344 318.841 262.209 319.505 262.675 319.932 263.137 319.949 263.154 320.538 263.733 321.087 264.378 321.427 265.134 321.432 265.144 321.424 265.156 321.413 265.155 320.358 265.117 319.303 265.066 318.251 264.999 318.246 264.999 318.242 264.997 318.24 264.993 316.336 262.49 313.232 261.402 310.27 260.717 310.255 260.714 310.255 260.692 310.27 260.689 311.669 260.388 313.146 260.356 314.556 260.59ZM311.009 261.274C313.55 261.944 316.086 262.913 317.821 264.946 317.83 264.955 317.822 264.971 317.809 264.97 317.147 264.926 316.484 264.876 315.823 264.817 315.816 264.817 315.811 264.811 315.81 264.805 315.723 264.125 314.847 263.568 314.368 263.124 313.331 262.233 312.097 261.637 310.794 261.258 310.313 261.118 310.486 261.136 311.009 261.274ZM312.496 265.49C312.469 265.377 312.44 265.264 312.41 265.15 312.408 265.138 312.42 265.127 312.431 265.133 313.074 265.469 313.822 265.618 314.536 265.75 317.228 266.218 319.965 266.249 322.688 266.362 324.623 266.46 326.557 266.391 328.489 266.274 331.473 266.146 334.505 266.281 337.435 265.594 337.446 265.591 337.455 265.6 337.453 265.611 336.999 267.866 336.652 270.146 336.318 272.425 336.318 272.428 336.318 272.43 336.316 272.432 336.032 272.857 335.687 273.197 335.3 273.535 335.294 273.54 335.285 273.54 335.28 273.534 332.309 270.538 333.428 270.192 330.708 273.648 330.569 273.822 330.554 273.93 330.366 273.801 330.145 273.65 329.95 273.413 329.757 273.229 329.074 272.584 328.4 271.922 327.673 271.326 327.46 271.155 327.172 271.166 327.016 271.411 326.355 272.409 325.781 273.413 325.207 274.467 325.202 274.476 325.19 274.478 325.183 274.47 324.43 273.625 323.697 272.827 322.948 271.985 322.948 271.985 322.947 271.984 322.946 271.983 322.301 271.451 321.34 272.624 321.056 273.155 320.792 273.617 320.542 274.245 319.994 274.424 319.385 274.623 318.722 274.258 318.32 273.819 317.766 273.211 317.528 272.369 317.292 271.601 317.159 271.17 316.682 271.09 316.357 271.354 315.516 272.081 314.554 272.696 313.832 273.546 313.824 273.556 313.809 273.552 313.807 273.54 313.36 270.859 313.085 268.143 312.496 265.49ZM335.806 275.888C335.804 275.898 335.794 275.903 335.785 275.899 335.422 275.74 335.069 275.871 334.704 275.978 333.66 276.283 332.607 276.557 331.546 276.797 325.83 278.079 319.894 277.632 314.239 276.276 314.233 276.275 314.229 276.27 314.228 276.264 314.128 275.619 314.028 274.975 313.928 274.33 313.927 274.321 313.933 274.314 313.942 274.313 314.685 274.288 315.802 273.146 316.444 272.698 316.452 272.693 316.463 272.697 316.466 272.706 316.693 273.369 316.979 274.009 317.436 274.552 318.562 275.93 320.764 276.008 321.653 274.335 321.941 273.89 322.116 273.349 322.484 272.962 322.49 272.956 322.5 272.956 322.506 272.962 322.933 273.426 323.35 273.897 323.771 274.365 324.18 274.82 324.716 275.695 325.443 275.505 325.444 275.505 325.444 275.505 325.445 275.504 326.09 275.262 326.264 274.445 326.634 273.922 326.634 273.922 326.634 273.922 326.634 273.921 326.926 273.408 327.198 272.891 327.465 272.368 327.47 272.359 327.482 272.357 327.489 272.365 327.864 272.761 328.259 273.141 328.649 273.519 329.17 273.963 329.585 274.604 330.252 274.834 330.253 274.834 330.253 274.834 330.254 274.834 330.992 275.033 331.419 274.346 331.808 273.853 332.164 273.403 332.519 272.953 332.874 272.503 332.88 272.495 332.891 272.495 332.897 272.502 333.417 273.093 333.956 273.668 334.468 274.266 334.468 274.267 334.468 274.267 334.469 274.267 334.833 274.808 335.494 274.933 335.987 274.503 335.997 274.494 336.013 274.502 336.011 274.516 335.944 274.974 335.875 275.432 335.806 275.888ZM334.567 283.508C333.298 289.128 318.783 288.901 315.934 284.791 315.539 284.214 315.416 283.593 315.294 282.904 314.949 280.96 314.656 279.008 314.351 277.058 314.35 277.048 314.36 277.039 314.37 277.042 320.86 279.131 329.179 279.029 335.634 276.86 335.644 276.856 335.654 276.865 335.653 276.876 335.303 279.088 334.98 281.307 334.567 283.508Z"/><path d="M318.487 272.756C319.006 274.12 320.752 272.872 319.713 271.916 319.125 271.444 318.294 272.045 318.487 272.756Z"/><path d="M324.458 272.68C325.069 273.258 325.892 272.435 325.314 271.824 324.753 271.267 323.901 272.119 324.458 272.68Z"/><path d="M329.747 272.447C330.542 273.204 331.678 272.059 330.924 271.269 330.129 270.512 328.994 271.657 329.747 272.447Z"/><path d="M581.505 329.463 69.9046 329.463 26.2753 345.99 26.2753 350.223 597.724 350.223 597.724 345.99Z" fill="#FFFFFF"/><path d="M598.275 345.442C598.275 345.442 598.275 345.441 598.275 345.442L582.06 328.919C581.914 328.77 581.714 328.686 581.505 328.686L176.012 328.686C176.01 328.686 176.008 328.686 176.007 328.686L69.9046 328.686C69.8105 328.686 69.7174 328.703 69.6291 328.736L25.9998 345.264C25.9979 345.265 25.7478 345.369 25.625 345.548 25.4982 345.733 25.4982 345.993 25.4982 345.993L25.4982 350.222C25.4982 350.651 25.8458 351 26.2753 351L597.724 351C598.153 351 598.504 350.651 598.504 350.222L598.504 345.99C598.504 345.986 598.504 345.832 598.445 345.694 598.392 345.56 598.275 345.442 598.275 345.442ZM595.876 345.214 435.291 345.214 421.486 330.24 581.183 330.24 595.876 345.214ZM148.319 345.214 176.202 330.24 295.954 330.24 282.149 345.214 148.319 345.214ZM298.068 330.24 419.373 330.24 433.178 345.214 284.263 345.214 298.068 330.24ZM70.0464 330.24 172.918 330.24 145.035 345.214 30.519 345.214 70.0464 330.24ZM596.949 349.446 27.0519 349.446 27.0519 346.768 145.229 346.768C145.23 346.768 145.231 346.768 145.232 346.768 145.233 346.768 145.234 346.768 145.235 346.768L596.949 346.768 596.949 349.446Z"/></g></svg>