<svg width="624" height="351" xmlns="http://www.w3.org/2000/svg" xmlns:xlink="http://www.w3.org/1999/xlink" xml:space="preserve" overflow="hidden"><g><path d="M537.63 303.423C537.128 303.119 536.294 305.074 535.558 304.965 534.456 304.948 533.072 302.918 532.096 302.128 531.38 301.657 531.063 302.914 530.615 303.44 529.084 306.028 528.226 306.649 526.071 304.605 525.345 304.201 523.746 302.357 523.273 302.8 522.527 303.401 521.991 304.231 521.328 304.893 518.33 308.022 514.98 304.455 513.123 302.077 511.919 302.366 511.534 304.36 510.3 304.604 509.272 304.897 508.331 304.089 507.795 303.237 507.546 302.813 506.483 302.984 506.6 303.474 506.985 305.469 506.976 307.587 508.043 309.383 510.227 312.799 516.76 314.613 522.668 314.616 529.815 314.652 537.961 312.182 537.995 304.46 538.059 304.203 537.888 303.538 537.63 303.423Z" fill="#FFFFFF"/><path d="M538.99 296.312C529.167 299.387 516.18 300.056 506.488 296.739 506.191 296.637 505.508 296.83 505.567 297.175 505.762 297.913 505.884 301.045 506.332 301.247 507.444 301.952 508.477 305.013 510.139 304.523 511.319 304.12 512.358 300.776 513.752 302.212 516.165 306.184 519.153 307.721 521.727 304.211 522.342 303.469 523.273 302.354 523.702 302.549 524.774 303.364 525.832 304.214 526.909 305.085 528.236 306.601 529.103 305.559 529.82 304.139 531.833 301.452 531 300.52 533.305 303.005 534.012 303.49 535.207 305.682 536.006 304.586 536.728 303.669 537.893 302.652 538.458 301.557 538.668 300.114 538.883 298.588 539.141 296.756 539.16 296.59 539.107 296.42 538.99 296.312Z" fill="#FFFFFF"/><path d="M539.599 292.749C538.931 292.465 538.02 294.1 536.981 292.491 536.196 291.411 535.416 290.839 534.627 289.775 534.456 289.535 534.115 289.545 533.954 289.796 533.895 289.95 532.121 292.006 532.126 292.054 530.985 294.143 530.029 293.385 528.928 291.954 528.123 290.988 527.158 290.47 526.368 289.469 526.271 289.347 526.13 289.289 525.988 289.313 525.847 289.337 525.725 289.439 525.661 289.589 525.179 290.699 524.891 291.154 524.516 291.941 524.014 292.751 523.736 294.16 522.966 294.529 521.796 295.143 518.992 289.306 518.149 290.366 516.974 291.999 516.784 294.525 514.615 294.635 512.192 294.847 510.759 292.589 510.022 289.862 509.974 289.709 509.876 289.589 509.745 289.538 509.194 289.451 508.892 290.123 508.384 290.505 507.57 291.298 506.02 292.767 505.362 292.777 505.104 292.773 504.889 293.071 504.938 293.371 505.152 294.137 505.074 296.594 505.659 296.739 511.041 298.264 516.692 299.174 521.576 299.174 527.104 299.202 531.989 298.156 537.128 296.356 537.63 296.17 538.327 296.476 538.668 296.688 538.922 296.835 539.463 296.293 539.497 295.962 539.477 295.23 540.145 293.138 539.599 292.749Z" fill="#FFFFFF"/><path d="M541.827 278.499C541.827 277.714 534.008 276.242 533.281 276.53 532.896 277.062 533.549 279.618 533.539 280.243 530.263 280.423 526.958 280.505 523.692 280.624 519.339 280.562 515.292 280.55 511.353 280.189 511.071 279.098 510.866 277.584 510.842 277.308 510.725 276.605 507.619 277.574 506.746 277.566 505.893 277.652 504.065 278.216 503.329 278.344 503.071 278.381 502.788 279.648 502.861 279.846 503.505 282.527 503.763 285.337 504.158 288.034 504.387 288.821 504.426 292.853 505.035 293.008 505.201 293.053 505.854 292.681 505.962 292.551 506.664 291.713 507.566 291.009 508.433 290.328 511.49 287.587 509.725 290.288 512.075 292.937 512.723 293.649 513.893 294.346 515.049 293.968 516.799 293.309 516.887 290.642 518.68 290.132 519.28 290.079 520.304 291.78 520.83 292.195 523.755 295.671 522.439 293.991 525.822 289.264 525.949 289.104 526.027 289.154 526.164 289.24 527.612 290.396 528.85 291.766 530.239 292.977 530.922 293.397 531.146 292.894 531.341 292.658 531.926 291.917 532.394 291.287 532.774 290.781 534.232 288.935 534.022 288.512 535.509 290.309 535.997 290.866 536.679 291.994 537.581 292.904 538.19 293.459 539.911 291.855 540.379 291.298 540.813 287.867 541.681 283.62 541.881 280.105 541.764 280.121 541.827 278.987 541.827 278.499Z" fill="#FFFFFF"/><path d="M523.741 280.074C522.405 274.971 521.362 270.383 521.649 265.682 521.489 264.57 521.537 263.461 521.021 262.374 520.816 261.315 518.447 258.531 517.121 258.247 516.794 258.178 516.341 257.616 514.971 257.616 513.996 257.616 512.163 258.861 511.656 259.205 507.39 262.095 510.257 275.596 511.617 280.054 511.782 280.684 514.473 280.326 515.136 280.476 515.439 280.483 521.069 280.596 521.537 280.656 522.069 280.526 523.853 281.03 523.741 280.074Z" fill="#FFFFFF"/><path d="M529.43 257.403C529.04 252.728 529.215 247.046 526.227 242.856 525.857 242.404 524.477 241.051 523.224 240.889 522.259 240.765 521.323 241.771 521.245 241.832 517.35 245.094 516.053 252.617 516.984 257.548 517.008 257.694 517.111 257.82 517.247 257.883 517.871 258.164 518.456 258.553 518.992 259.038 519.29 259.322 521.186 263.525 522.137 262.228 522.766 260.606 523.931 258.082 526.042 257.972 526.597 257.932 528.255 258.278 528.772 258.704 529.103 258.9 529.527 257.768 529.43 257.403Z" fill="#FFFFFF"/><path d="M533.252 275.983C533.257 271.674 532.589 257.921 526.388 257.823 518.115 259.608 522.551 275.08 524.082 280.225 524.365 280.851 525.311 280.423 525.866 280.498 526.505 280.332 530.751 280.2 531.399 280.321 532.004 280.187 533.281 280.644 533.383 279.812 533.31 278.541 533.281 277.241 533.252 275.983Z" fill="#FFFFFF"/><path d="M542.948 278.85C542.914 278.74 542.865 278.64 542.797 278.553 543.163 276.996 535.197 275.726 534.022 276.056 533.988 270.038 533.73 263.362 529.878 258.432 530.332 253.715 529.864 241.955 524.253 240.54 524.492 240.38 524.745 240.202 524.862 239.938 524.93 239.79 524.813 239.543 524.618 239.622 524.223 239.782 523.907 240.059 523.555 240.302 523.531 240.321 523.497 240.297 523.512 240.265 523.643 239.935 523.848 239.606 523.833 239.246 523.824 239.065 523.585 238.932 523.448 239.087 523.175 239.416 523.039 239.861 522.907 240.273 522.888 240.321 522.819 240.316 522.81 240.266 522.722 239.792 522.678 239.243 522.259 238.963 522.142 238.892 521.976 238.959 521.942 239.092 521.844 239.556 522.112 240.008 522.181 240.469 522.186 240.506 522.147 240.533 522.112 240.52 521.576 240.32 520.967 240.277 520.484 240.506 520.304 240.59 520.353 240.884 520.538 240.924 520.728 240.965 520.923 240.991 521.113 241.02 517.174 243.537 515.546 251.908 516.019 256.323 515.741 256.409 515.556 256.721 515.356 256.934 515.356 256.938 515.341 256.965 515.331 256.964 515.322 256.962 515.331 256.923 515.331 256.918 515.356 256.463 515.292 255.985 515.214 255.596 515.166 255.345 514.756 255.345 514.707 255.596 514.634 255.992 514.566 256.479 514.59 256.941 514.59 256.949 514.595 256.972 514.586 256.976 514.576 256.98 514.566 256.949 514.561 256.943 513.615 254.848 512.865 256.16 514.157 257.517 506.556 257.919 508.848 271.737 509.93 276.697 508.477 276.615 503.066 276.885 502.491 278.452 502.154 278.569 502.023 278.912 502.071 279.247 502.213 281.665 502.637 284.323 503.032 286.81 504.202 293.968 505.084 301.189 506.493 308.302 509.652 317.52 531.667 317.256 537.132 310.521 537.966 309.471 538.371 308.308 538.609 307.008 539.058 304.554 539.429 302.084 539.814 299.62 540.789 292.943 542.022 286.364 542.748 279.645 542.938 279.438 543.031 279.162 542.948 278.85ZM534.071 277.089C536.177 277.391 538.268 277.869 540.277 278.58 540.306 278.59 540.301 278.631 540.272 278.637 538.249 279.067 536.172 279.24 534.086 279.325 534.056 278.578 534.037 277.83 534.027 277.081 534.042 277.084 534.056 277.087 534.071 277.089ZM531.726 267.981C531.726 267.99 531.726 267.998 531.726 268.007 531.697 267.794 531.716 267.92 531.726 267.981ZM531.482 266.636C532.331 270.827 532.121 275.132 532.34 279.381 531.317 279.406 530.293 279.421 529.274 279.448 527.948 272.552 528.591 265.329 526.597 258.561 526.627 258.563 526.807 258.539 527.022 258.586 527.226 258.63 527.47 258.745 527.48 258.749 529.942 260.031 530.868 264.102 531.482 266.636ZM516.077 279.597C514.503 274.971 513.669 270.093 513.464 265.211 513.416 263.029 513.201 260.532 514.498 258.645 514.771 258.526 515.239 258.567 515.341 258.244 516.921 259.185 517.199 262.942 517.442 264.656 518.018 269.684 518.968 274.665 519.456 279.705 518.33 279.678 517.203 279.643 516.077 279.597ZM520.314 279.723C519.87 274.628 518.929 269.589 518.266 264.521 518.022 262.494 517.808 260.396 516.701 258.616 518.388 259.267 519.631 260.808 520.299 262.448 520.762 263.44 520.713 264.524 520.865 265.572 520.562 270.369 521.698 275.096 522.863 279.706 522.015 279.73 521.167 279.74 520.314 279.723ZM524.716 279.637C523.307 274.662 522.078 269.522 522.517 264.332 522.732 261.809 523.853 259.694 526.047 258.445 526.052 258.447 526.052 258.448 526.056 258.45 527.373 265.394 527.236 272.51 528.396 279.474 527.168 279.516 525.939 279.582 524.716 279.637ZM525.827 243.569C527.236 245.444 527.675 247.854 528.099 250.11 528.353 251.668 528.547 253.273 528.591 254.851 528.616 255.683 528.552 256.653 528.733 257.524 528.353 257.307 527.933 257.141 527.519 257.078 527.777 256.888 528.786 255.917 528.021 255.844 527.529 255.973 527.221 256.437 526.836 256.741 526.802 256.766 526.754 256.741 526.754 256.7 526.758 256.235 526.778 255.765 526.646 255.314 526.1 254.667 526.081 256.039 526.095 256.486 526.095 256.523 526.056 256.546 526.022 256.528 525.564 256.283 525.072 256.061 524.579 256.087 524.306 256.101 524.248 256.418 524.448 256.57 524.877 256.898 525.428 257.207 525.969 257.395 526.013 257.41 526.017 257.509 525.983 257.549 523.911 257.66 522.351 259.545 521.664 261.392 520.699 259.894 520.426 258.121 520.416 256.358 520.27 252.744 520.996 249.194 521.727 245.679 521.947 244.502 522.156 243.354 522.61 242.265 522.717 242.233 522.829 242.208 522.941 242.191 524.141 244.491 524.34 247.077 524.57 249.617 524.677 250.63 524.706 251.89 525.213 252.793 525.354 253.037 525.725 252.922 525.73 252.654 525.744 252.113 525.588 251.572 525.505 251.041 525.418 250.478 525.35 249.912 525.291 249.347 525.018 246.918 524.882 244.373 523.658 242.196 524.545 242.328 525.276 242.867 525.827 243.569ZM517.71 253.386C518.061 250.002 519.022 244.861 521.805 242.654 520.182 247.801 519.032 253.293 519.738 258.702 519.222 258.215 518.642 257.805 518.003 257.504 517.779 256.125 517.628 254.79 517.71 253.386ZM516.092 256.811C516.107 256.895 516.121 256.98 516.136 257.064 516.043 257.067 515.946 257.076 515.858 257.092 515.936 257 516.014 256.905 516.092 256.811ZM510.486 265.13C510.637 262.84 511.129 259.816 513.572 258.931 511.28 263.723 513.523 274.493 515.093 279.554 514.2 279.513 513.308 279.465 512.416 279.409 511.119 274.748 510.305 269.942 510.486 265.13ZM507.146 278.371C508.194 278.266 509.208 278.195 510.271 278.191 510.359 278.555 510.447 278.918 510.544 279.28 508.667 279.149 506.795 278.953 504.928 278.746 504.894 278.742 504.894 278.694 504.923 278.688 505.664 278.563 506.4 278.445 507.146 278.371ZM503.651 280.138C503.612 279.953 503.558 279.767 503.514 279.579 505.772 280.645 508.38 280.774 510.832 281.048 515.141 281.328 519.461 281.549 523.78 281.525 529.557 281.122 535.441 281.579 541.125 280.324 540.443 283.709 539.926 287.133 539.424 290.556 538.99 291.202 538.468 291.718 537.878 292.231 533.398 287.719 535.09 287.191 531 292.387 530.79 292.649 530.766 292.811 530.483 292.617 530.151 292.39 529.864 292.034 529.571 291.759 528.543 290.79 527.534 289.796 526.442 288.901 526.12 288.643 525.691 288.659 525.457 289.029 524.457 290.535 523.59 292.052 522.727 293.645 521.586 292.367 520.479 291.161 519.348 289.888 518.378 289.085 516.935 290.848 516.506 291.646 516.111 292.34 515.736 293.283 514.912 293.553 513.996 293.851 513.001 293.303 512.397 292.642 511.568 291.729 511.207 290.466 510.856 289.312 510.656 288.665 509.94 288.546 509.452 288.942 508.18 290.043 506.717 290.975 505.63 292.269 504.953 288.232 504.538 284.137 503.651 280.138ZM532.218 301.218C531.838 300.873 531.341 300.971 531.053 301.369 530.522 302.1 529.995 302.831 529.464 303.562 528.718 304.644 528.465 305.547 527.192 304.334 526.105 303.546 525.023 302.759 523.921 302.003 522.776 301.416 521.055 304.379 520.007 304.855 517.593 306.13 515.37 303.685 514.127 301.856 513.723 301.176 512.86 301.248 512.246 301.598 511.31 302.073 510.954 303.284 510.032 303.74 508.731 304.072 508.112 301.356 506.956 300.816 506.781 299.702 506.605 298.588 506.435 297.474 516.194 300.626 528.723 300.473 538.434 297.199 538.21 298.642 537.986 300.085 537.751 301.527 537.142 302.316 536.474 303.093 535.782 303.817 535.529 304.088 535.533 304.176 535.265 303.973 534.232 303.079 533.242 302.124 532.218 301.218ZM538.653 295.781C538.098 295.524 537.557 295.724 537.001 295.888 535.436 296.345 533.852 296.757 532.262 297.117 523.672 299.044 514.751 298.37 506.259 296.331 506.103 295.35 505.952 294.37 505.801 293.389 506.927 293.375 508.638 291.612 509.603 290.947 509.949 291.953 510.378 292.923 511.071 293.747 512.762 295.816 516.072 295.933 517.403 293.421 517.842 292.746 518.105 291.923 518.671 291.342 519.314 292.043 519.948 292.756 520.587 293.465 521.196 294.148 522.005 295.464 523.097 295.177 524.067 294.815 524.331 293.585 524.886 292.8 525.325 292.019 525.74 291.234 526.149 290.44 526.714 291.042 527.319 291.622 527.909 292.196 528.694 292.863 529.318 293.826 530.317 294.17 531.429 294.47 532.067 293.437 532.652 292.696 533.193 292.013 533.73 291.331 534.271 290.648 535.056 291.543 535.875 292.413 536.65 293.318 537.206 294.147 538.229 294.326 538.975 293.632 538.868 294.35 538.761 295.066 538.653 295.781ZM536.796 307.194C534.89 315.634 513.094 315.294 508.814 309.121 507.8 307.554 507.809 305.588 507.429 303.799 508.082 304.756 509.184 305.557 510.398 305.244 511.641 304.955 512.114 303.608 513.045 302.911 514.902 305.669 518.705 308.247 521.63 305.399 522.283 304.797 522.819 304.034 523.531 303.498 524.287 304.066 525.047 304.623 525.818 305.175 526.573 305.719 527.387 306.511 528.387 306.409 529.766 306.288 530.819 304.042 531.716 302.951 531.984 302.961 532.062 302.964 532.326 302.974 534.29 305.542 535.597 306.547 537.274 304.49 537.123 305.393 536.976 306.297 536.796 307.194Z"/><path d="M512.601 291.061C512.821 291.952 514.01 292.317 514.654 291.637 515.171 291.129 515.112 290.17 514.522 289.75 513.601 289.012 512.304 289.95 512.601 291.061Z"/><path d="M521.43 290.775C522.02 291.787 523.609 290.996 523.131 289.924 522.6 288.702 520.786 289.599 521.43 290.775Z"/><path d="M529.522 290.618C530.766 291.8 532.535 290.013 531.36 288.782 530.122 287.601 528.348 289.387 529.522 290.618Z"/><path d="M536.63 289.667C537.352 290.878 539.224 289.946 538.668 288.646 538.029 287.181 535.855 288.257 536.63 289.667Z"/><path d="M505.713 289.502C506.196 290.339 507.512 289.685 507.117 288.798 506.693 287.786 505.167 288.543 505.713 289.502Z"/><path d="M98.2269 162.945 86.5678 173.341 86.988 173.341 86.5678 173.73 86.5678 180.045 86.5678 241.839 86.5678 248.155 86.5678 309.948 86.5678 316.264 182.853 316.264 194.415 303.342 194.513 162.945 98.2269 162.945ZM98.2152 180.045 182.853 180.045 182.853 231.055 98.2269 231.055 98.1796 231.096 98.2152 180.045ZM98.1679 248.155 182.853 248.155 182.853 299.164 98.2269 299.164 98.1328 299.248 98.1679 248.155Z" fill="#FFFFFF"/><path d="M194.863 162.144C194.545 162.005 194.174 162.067 193.919 162.304L193.691 162.515C193.558 162.335 193.345 162.217 193.104 162.217L98.708 162.217C98.6666 162.19 98.6237 162.165 98.5774 162.145 98.259 162.006 97.8881 162.068 97.6331 162.304L91.7811 167.718 86.0828 172.799C85.9531 172.914 85.8741 173.069 85.8492 173.234 85.7488 173.378 85.6932 173.552 85.6932 173.731L85.6932 316.265C85.6932 316.628 85.917 316.953 86.2558 317.082 86.3572 317.121 86.463 317.14 86.5678 317.14 86.7384 317.14 86.9057 317.089 87.0495 316.994L182.375 316.994C182.427 317.028 182.482 317.059 182.541 317.082 182.643 317.121 182.749 317.14 182.853 317.14 183.098 317.14 183.336 317.037 183.505 316.848L195.067 303.926C195.211 303.766 195.29 303.558 195.29 303.343L195.387 162.947C195.387 162.598 195.181 162.283 194.863 162.144ZM192.375 163.731 182.774 172.613 88.4798 172.613 98.5047 163.674 192.375 163.674 192.375 163.731ZM97.3055 230.9 87.4424 239.695 87.4424 180.774 97.3406 180.774 97.3055 230.9ZM97.2582 299.051 87.4419 307.804 87.4419 248.883 97.2928 248.883 97.2582 299.051ZM181.979 308.831 88.4798 308.831 98.5047 299.892 181.979 299.892 181.979 308.831ZM181.979 298.435 99.0073 298.435 99.0415 248.883 181.979 248.883 181.979 298.435ZM181.979 247.426 87.2966 247.426 87.2966 242.568 181.979 242.568 181.979 247.426ZM181.979 240.722 88.4798 240.722 98.5047 231.783 181.979 231.783 181.979 240.722ZM181.979 230.326 99.0546 230.326 99.0888 180.774 181.978 180.774 181.978 230.326ZM181.979 179.317 87.2966 179.317 87.2966 174.459 181.979 174.459 181.979 179.317ZM87.2961 310.677 181.978 310.677 181.978 315.535 87.2961 315.535 87.2961 310.677ZM193.541 303.007 183.728 313.975 183.728 174.113 193.636 164.947 193.541 303.007Z"/><path d="M149.699 128.843C149.625 128.694 149.473 128.599 149.306 128.599L143.934 128.599C143.799 128.599 143.671 128.662 143.588 128.77L141.046 132.073C140.974 132.166 140.463 133.146 140.191 133.771 140.107 133.851 140.053 133.963 140.053 134.088L140.053 134.12C140.027 134.202 140.015 134.26 140.026 134.281 140.03 134.291 140.04 134.305 140.053 134.323L140.053 167.9C140.053 168.142 140.249 168.338 140.491 168.338L146.32 168.338C146.562 168.338 146.757 168.142 146.757 167.9L146.757 133.211C146.94 132.893 147.083 132.642 147.111 132.607L149.653 129.304C149.755 129.171 149.772 128.993 149.699 128.843Z" fill="#FFFFFF"/><path d="M158.206 140.39 156.385 136.914C156.378 136.902 156.373 136.89 156.369 136.877L156.369 136.877C156.369 136.877 156.369 136.877 156.368 136.876 156.362 136.861 156.357 136.845 156.352 136.829L156.349 136.81C156.348 136.809 156.348 136.807 156.348 136.806 156.344 136.791 156.342 136.778 156.34 136.768 156.34 136.759 156.34 136.751 156.339 136.741L156.339 136.722C156.339 136.714 156.339 136.707 156.339 136.698 156.339 136.693 156.339 136.683 156.339 136.675 156.341 136.661 156.343 136.646 156.346 136.63 156.347 136.626 156.348 136.622 156.349 136.618L156.357 136.584C156.359 136.58 156.36 136.578 156.361 136.574 156.368 136.558 156.372 136.543 156.376 136.53L158.421 132.105C158.441 132.053 158.332 128.662 158.317 128.633 158.243 128.484 151.512 128.599 151.512 128.599 151.377 128.599 151.248 128.662 151.165 128.77L148.109 132.675C147.868 132.675 147.632 133.848 147.632 134.089L147.632 167.9C147.632 168.142 147.828 168.338 148.069 168.338L153.898 168.338C154.097 168.338 154.262 168.205 154.316 168.024 154.38 168.007 158.402 163.686 158.402 163.686 158.473 163.605 158.512 163.501 158.511 163.393 158.511 163.393 158.238 140.451 158.206 140.39Z" fill="#FFFFFF"/><path d="M181.524 157.872 166.669 128.974C166.598 128.836 166.459 128.747 166.308 128.738 166.188 128.378 165.882 127.791 165.78 127.7 165.644 127.578 164.292 128.169 164.13 128.253L159.78 130.532C159.687 130.581 159.614 130.662 159.576 130.76L158.035 134.695C157.977 134.841 157.59 136.374 157.57 136.875 157.503 136.999 157.497 137.153 157.567 137.287L173.259 167.236C173.337 167.386 173.489 167.471 173.647 167.471 173.715 167.471 173.784 167.455 173.849 167.421L180.029 164.491C180.132 164.438 181.552 158.201 181.552 158.201 181.586 158.092 181.576 157.974 181.524 157.872Z" fill="#FFFFFF"/><path d="M182.853 157.59 166.822 126.402C166.731 126.226 166.586 126.092 166.414 126.012 166.162 125.876 165.856 125.868 165.594 126.005L159.44 129.229 159.437 128.929C159.436 128.831 159.417 128.736 159.385 128.646 159.557 128.388 159.583 128.057 159.444 127.775 159.297 127.476 158.993 127.287 158.66 127.287L151.081 127.287 143.502 127.287C143.231 127.287 142.975 127.413 142.809 127.628L138.923 132.681C138.92 132.685 138.918 132.69 138.915 132.694 138.896 132.719 138.878 132.746 138.861 132.774 138.859 132.778 138.856 132.783 138.853 132.788 138.835 132.82 138.819 132.853 138.805 132.888 138.802 132.893 138.801 132.9 138.798 132.906 138.787 132.935 138.778 132.965 138.77 132.995 138.768 133.003 138.766 133.01 138.764 133.018 138.756 133.053 138.75 133.089 138.746 133.126 138.746 133.128 138.746 133.129 138.746 133.131 138.743 133.158 138.742 133.185 138.742 133.213L138.742 168.774C138.742 169.257 139.133 169.649 139.616 169.649L147.195 169.649 154.773 169.649C155.243 169.649 155.625 169.279 155.646 168.814L159.609 164.299C159.751 164.137 159.828 163.928 159.826 163.712L159.606 144.003 172.503 168.62C172.611 168.825 172.796 168.98 173.017 169.049 173.102 169.076 173.19 169.089 173.278 169.089 173.418 169.089 173.557 169.055 173.684 168.989L180.397 165.472C180.597 165.367 180.739 165.195 180.811 164.998 180.834 164.952 180.856 164.905 180.871 164.855L182.911 158.248C182.979 158.03 182.958 157.794 182.853 157.59ZM164.333 128.641 162.792 132.575 159.4 134.353 158.442 134.854 159.983 130.92 164.333 128.641ZM154.343 132.34 148.971 132.34 151.513 129.037 156.885 129.037 154.343 132.34ZM143.934 129.036 149.306 129.036 146.765 132.34 141.393 132.34 143.934 129.036ZM140.491 134.089 146.321 134.089 146.321 167.9 140.491 167.9 140.491 134.089ZM148.07 134.089 153.899 134.089 153.899 167.9 148.07 167.9 148.07 134.089ZM158.074 163.397 155.649 166.161 155.649 133.512 157.052 131.687 157.712 131.027 157.722 131.898 155.961 136.396C155.959 136.401 155.958 136.406 155.956 136.411 155.951 136.425 155.945 136.44 155.941 136.454 155.935 136.473 155.93 136.493 155.925 136.512 155.924 136.519 155.922 136.524 155.921 136.53 155.912 136.568 155.907 136.606 155.904 136.644 155.903 136.654 155.903 136.663 155.902 136.673 155.901 136.708 155.901 136.744 155.903 136.78 155.904 136.783 155.903 136.787 155.904 136.791 155.907 136.829 155.914 136.867 155.922 136.904 155.924 136.913 155.926 136.922 155.928 136.931 155.938 136.968 155.949 137.005 155.963 137.041 155.963 137.042 155.963 137.042 155.963 137.043 155.974 137.069 155.986 137.096 156 137.121L157.819 140.593 158.074 163.397ZM173.647 167.034 157.955 137.084 163.118 134.378 163.196 134.526 163.196 134.526 163.196 134.526 178.811 164.328 173.647 167.034ZM179.824 162.32 164.907 134.021 166.281 129.174 181.135 158.073 179.824 162.32Z"/><path d="M113.361 196.952C113.287 196.803 113.135 196.708 112.968 196.708L107.597 196.708C107.461 196.708 107.333 196.771 107.25 196.879L104.708 200.182C104.626 200.289 104.103 200.865 103.947 201.159 103.814 201.187 103.716 201.239 103.716 201.335L103.716 236.009C103.716 236.251 103.912 236.447 104.153 236.447L109.983 236.447C110.224 236.447 110.42 236.251 110.42 236.009L110.42 201.262C110.599 200.985 110.743 200.754 110.774 200.715L113.315 197.412C113.416 197.28 113.434 197.102 113.361 196.952Z" fill="#FFFFFF"/><path d="M120.939 196.952C120.866 196.803 120.714 196.708 120.547 196.708L115.175 196.708C115.04 196.708 114.912 196.771 114.829 196.879L112.287 200.182C112.251 200.228 112.134 200.386 112 200.577 111.661 200.831 111.294 201.186 111.294 201.335L111.294 236.009C111.294 236.251 111.49 236.447 111.732 236.447L117.561 236.447C117.802 236.447 117.998 236.251 117.998 236.009L117.998 201.222 120.893 197.412C120.995 197.28 121.013 197.102 120.939 196.952Z" fill="#FFFFFF"/><path d="M128.518 196.952C128.444 196.803 128.292 196.708 128.125 196.708L122.753 196.708C122.618 196.708 122.49 196.771 122.407 196.879L119.166 201.039C118.996 201.157 118.873 201.275 118.873 201.36L118.873 236.009C118.873 236.251 119.069 236.447 119.31 236.447L125.14 236.447C125.381 236.447 125.577 236.251 125.577 236.009L125.577 201.164 128.472 197.412C128.574 197.28 128.591 197.102 128.518 196.952Z" fill="#FFFFFF"/><path d="M137.032 204.807 136.968 197.086C136.967 197.032 136.973 196.81 136.931 196.758 136.881 196.708 136.865 196.708 136.761 196.708L130.331 196.708C130.196 196.708 130.067 196.771 129.985 196.879L126.722 201.108C126.563 201.174 126.451 201.33 126.451 201.513L126.451 236.009C126.451 236.25 126.647 236.446 126.888 236.446L132.717 236.446C132.959 236.446 133.155 236.25 133.155 236.009L133.155 210.084 136.941 205.078C137.001 205 137.033 204.905 137.032 204.807Z" fill="#FFFFFF"/><path d="M143.311 204.434C143.238 204.284 143.086 204.189 142.919 204.189L138.943 204.189C138.808 204.189 138.68 204.252 138.597 204.36L135.985 207.662C135.862 207.739 135.779 207.876 135.779 208.032L135.779 236.009C135.779 236.251 135.975 236.447 136.216 236.447L140.651 236.447C140.892 236.447 141.088 236.251 141.088 236.009L141.088 207.715 143.266 204.893C143.367 204.761 143.385 204.583 143.311 204.434Z" fill="#FFFFFF"/><path d="M149.493 204.434C149.42 204.284 149.268 204.189 149.101 204.189L145.125 204.189C144.99 204.189 144.862 204.252 144.779 204.36L142.147 207.767C142.112 207.813 142.087 207.865 142.073 207.919 142.004 207.996 141.962 208.096 141.962 208.207L141.962 236.009C141.962 236.25 142.158 236.446 142.399 236.446L146.833 236.446C147.074 236.446 147.27 236.25 147.27 236.009L147.27 207.745 149.448 204.893C149.549 204.761 149.567 204.583 149.493 204.434Z" fill="#FFFFFF"/><path d="M155.676 204.434C155.602 204.284 155.45 204.189 155.283 204.189L151.308 204.189C151.172 204.189 151.044 204.252 150.961 204.36L148.317 207.791C148.276 207.845 148.249 207.907 148.236 207.971 148.179 208.045 148.144 208.136 148.144 208.236L148.144 236.009C148.144 236.251 148.34 236.447 148.581 236.447L153.015 236.447C153.256 236.447 153.452 236.251 153.452 236.009L153.452 207.724 155.63 204.894C155.732 204.761 155.749 204.583 155.676 204.434Z" fill="#FFFFFF"/><path d="M162.749 204.625C162.747 204.449 162.64 204.292 162.478 204.225 162.435 204.207 162.389 204.198 162.343 204.195 162.322 204.192 162.301 204.19 162.279 204.19L157.49 204.19C157.355 204.19 157.227 204.253 157.144 204.36L154.459 207.844C154.432 207.879 154.412 207.917 154.397 207.957 154.353 208.025 154.327 208.105 154.327 208.193L154.327 236.009C154.327 236.251 154.523 236.447 154.764 236.447L159.449 236.447C159.553 236.447 159.648 236.408 159.724 236.347 159.765 236.323 159.804 236.295 159.837 236.258L162.931 232.726C163.002 232.645 163.04 232.54 163.04 232.432L162.749 204.625Z" fill="#FFFFFF"/><path d="M164.354 232.753 164.037 204.377C164.036 204.306 164.025 204.238 164.009 204.172 164.144 203.925 164.154 203.624 164.027 203.366 163.879 203.067 163.575 202.878 163.242 202.878L157.06 202.878 150.877 202.878 144.695 202.878 138.512 202.878C138.448 202.878 138.384 202.886 138.322 202.899L138.257 197.039C138.256 196.94 138.237 196.846 138.205 196.756 138.377 196.498 138.403 196.166 138.264 195.885 138.117 195.586 137.813 195.397 137.48 195.397L129.901 195.397 122.323 195.397 114.744 195.397 107.165 195.397C106.894 195.397 106.638 195.523 106.472 195.738L102.586 200.791C102.583 200.794 102.58 200.799 102.577 200.803 102.558 200.829 102.54 200.856 102.524 200.884 102.521 200.889 102.518 200.893 102.515 200.898 102.497 200.93 102.482 200.963 102.468 200.998 102.465 201.004 102.463 201.01 102.461 201.016 102.45 201.045 102.441 201.075 102.433 201.105 102.431 201.113 102.429 201.12 102.427 201.128 102.419 201.163 102.413 201.2 102.409 201.237 102.409 201.238 102.409 201.24 102.409 201.241 102.406 201.268 102.404 201.296 102.404 201.323L102.404 236.884C102.404 237.367 102.796 237.759 103.279 237.759L110.857 237.759 118.436 237.759 126.015 237.759 133.594 237.759C134.063 237.759 134.445 237.389 134.466 236.925L134.47 236.92C134.489 237.386 134.872 237.759 135.343 237.759L141.525 237.759 147.708 237.759 153.89 237.759 160.073 237.759C160.522 237.759 160.893 237.419 160.941 236.983L164.138 233.339C164.279 233.177 164.357 232.968 164.354 232.753ZM159.641 207 155.665 207 157.49 204.627 161.466 204.627 159.641 207ZM151.308 204.627 155.284 204.627 154.732 205.344 153.459 207 149.483 207 151.308 204.627ZM147.276 207 143.3 207 143.852 206.283 145.125 204.627 149.101 204.627 147.276 207ZM138.943 204.627 142.919 204.627 142.367 205.344 141.094 207 137.118 207 138.943 204.627ZM135.871 199.797 136.531 199.136 136.595 204.812 134.649 207.342C134.646 207.345 134.644 207.35 134.641 207.354 134.622 207.38 134.604 207.407 134.588 207.435 134.585 207.44 134.582 207.444 134.579 207.449 134.561 207.481 134.545 207.514 134.531 207.549 134.529 207.555 134.527 207.561 134.524 207.567 134.513 207.596 134.504 207.626 134.496 207.656 134.494 207.664 134.492 207.671 134.491 207.679 134.482 207.714 134.476 207.751 134.472 207.788 134.472 207.789 134.472 207.791 134.472 207.792 134.47 207.819 134.468 207.847 134.468 207.874L134.468 201.621 135.871 199.797ZM133.163 200.449 127.79 200.449 128.92 198.981 130.332 197.145 135.704 197.145 133.163 200.449ZM113.763 198.981 115.175 197.145 120.547 197.145 119.418 198.614 118.006 200.449 112.633 200.449 113.763 198.981ZM121.341 198.981 122.753 197.145 128.125 197.145 126.996 198.614 125.584 200.449 120.212 200.449 121.341 198.981ZM107.596 197.145 112.968 197.145 111.839 198.614 110.427 200.449 105.055 200.449 107.596 197.145ZM104.153 202.198 109.983 202.198 109.983 236.009 104.153 236.009 104.153 202.198ZM111.732 202.198 117.562 202.198 117.562 236.009 111.732 236.009 111.732 202.198ZM119.311 202.198 125.14 202.198 125.14 236.009 119.311 236.009 119.311 202.198ZM126.889 202.198 132.718 202.198 132.718 236.009 126.889 236.009 126.889 202.198ZM136.216 208.748 140.65 208.748 140.65 236.009 136.216 236.009 136.216 208.748ZM142.399 208.748 146.832 208.748 146.832 236.009 142.399 236.009 142.399 208.748ZM148.581 208.748 153.015 208.748 153.015 236.009 148.581 236.009 148.581 208.748ZM154.764 208.748 159.198 208.748 159.198 236.009 154.764 236.009 154.764 208.748ZM160.946 234.324 160.946 208.172 162.051 206.735 162.312 206.474 162.602 232.437 160.946 234.324Z"/><path d="M158.66 264.38 151.082 264.38 147.195 269.432 147.195 304.993 154.774 304.993 158.952 299.941Z" fill="#FFFFFF"/><path d="M128.347 264.38 124.46 269.432 124.46 304.993 132.038 304.993 132.038 269.432 135.925 264.38Z" fill="#FFFFFF"/><path d="M182.076 294.208 166.044 263.02 159.288 266.515 156.775 272.933 173.278 304.433 180.036 300.815Z" fill="#FFFFFF"/><path d="M135.925 264.38 132.038 269.432 132.038 304.993 139.617 304.993 139.617 269.432 143.503 264.38Z" fill="#FFFFFF"/><path d="M143.581 264.614 139.695 269.666 139.695 305.226 147.273 305.226 147.273 269.666 151.16 264.614Z" fill="#FFFFFF"/><path d="M182.853 293.808 166.822 262.62C166.731 262.444 166.586 262.311 166.414 262.23 166.162 262.095 165.856 262.086 165.594 262.223L159.44 265.448 159.437 265.148C159.436 265.049 159.417 264.955 159.385 264.865 159.557 264.607 159.583 264.275 159.444 263.994 159.297 263.695 158.993 263.506 158.66 263.506L128.346 263.506C128.075 263.506 127.819 263.632 127.653 263.847L123.767 268.9C123.764 268.904 123.761 268.908 123.758 268.912 123.739 268.938 123.721 268.965 123.705 268.993 123.702 268.998 123.699 269.002 123.696 269.007 123.678 269.039 123.663 269.072 123.649 269.107 123.646 269.113 123.644 269.119 123.642 269.125 123.631 269.154 123.622 269.184 123.614 269.214 123.612 269.222 123.61 269.229 123.608 269.237 123.6 269.273 123.593 269.309 123.59 269.346 123.59 269.347 123.59 269.349 123.59 269.35 123.587 269.377 123.585 269.405 123.585 269.432L123.585 304.993C123.585 305.476 123.977 305.868 124.46 305.868L154.773 305.868C155.243 305.868 155.625 305.498 155.646 305.034L159.609 300.518C159.751 300.356 159.828 300.147 159.826 299.931L159.606 280.222 172.503 304.838C172.611 305.043 172.796 305.198 173.017 305.267 173.102 305.294 173.19 305.307 173.278 305.307 173.418 305.307 173.557 305.273 173.684 305.207L180.397 301.69C180.597 301.585 180.739 301.413 180.811 301.217 180.834 301.171 180.856 301.123 180.871 301.073L182.911 294.466C182.979 294.248 182.958 294.012 182.853 293.808ZM164.333 264.859 162.792 268.793 159.887 270.315 158.442 271.072 159.983 267.138 164.333 264.859ZM154.343 268.558 148.971 268.558 150.101 267.09 151.513 265.255 156.885 265.255 154.343 268.558ZM134.944 267.09 136.356 265.255 141.728 265.255 140.598 266.723 139.187 268.558 133.814 268.558 134.944 267.09ZM142.522 267.09 143.934 265.255 149.306 265.255 148.177 266.723 146.765 268.558 141.393 268.558 142.522 267.09ZM128.777 265.255 134.149 265.255 133.02 266.723 131.608 268.558 126.236 268.558 128.777 265.255ZM125.334 270.307 131.164 270.307 131.164 304.119 125.334 304.119 125.334 270.307ZM132.913 270.307 138.743 270.307 138.743 304.119 132.913 304.119 132.913 270.307ZM140.491 270.307 146.321 270.307 146.321 304.119 140.491 304.119 140.491 270.307ZM148.07 270.307 153.899 270.307 153.899 304.119 148.07 304.119 148.07 270.307ZM158.074 299.616 155.649 302.379 155.649 269.73 157.052 267.906 157.712 267.246 157.722 268.116 155.961 272.614C155.959 272.619 155.958 272.624 155.956 272.628 155.943 272.662 155.933 272.697 155.924 272.733 155.923 272.738 155.921 272.743 155.92 272.747 155.912 272.785 155.906 272.824 155.903 272.863 155.903 272.871 155.902 272.88 155.902 272.888 155.898 272.966 155.904 273.045 155.922 273.123 155.923 273.131 155.925 273.138 155.927 273.146 155.937 273.184 155.948 273.222 155.963 273.259 155.964 273.26 155.964 273.261 155.965 273.262 155.976 273.288 155.987 273.313 156 273.338L157.819 276.81 158.074 299.616ZM173.647 303.252 157.955 273.302 158.583 272.973 163.118 270.597 178.811 300.547 173.647 303.252ZM179.824 298.538 164.907 270.239 166.281 265.393 181.135 294.291 179.824 298.538Z"/><path d="M123.903 156.901C123.772 156.804 123.597 156.789 123.45 156.861 118.457 159.333 112.29 159.31 107.738 156.803 107.593 156.724 107.416 156.732 107.28 156.826 107.144 156.919 107.072 157.081 107.094 157.245 107.144 157.618 107.19 158.005 107.235 158.379 107.642 161.774 108.103 165.623 112.476 166.52 112.482 166.521 112.489 166.522 112.495 166.523 113.526 166.687 114.688 166.809 115.862 166.809 117.976 166.809 120.129 166.413 121.614 165.146 121.62 165.142 121.625 165.137 121.63 165.132 123.365 163.499 123.634 161.077 123.871 158.94 123.934 158.375 123.993 157.84 124.076 157.323 124.101 157.161 124.035 156.999 123.903 156.901Z" fill="#FFFFFF"/><path d="M122.139 150.031C120.701 149.52 119.434 149.289 118.291 149.136 118.222 149.127 116.276 148.82 116.219 148.813 115.222 148.689 115.024 148.499 113.89 148.52 113.766 148.523 112.757 148.565 112.538 148.576 111.071 148.65 109.684 149.005 108.52 149.342 108.333 149.397 108.205 149.568 108.205 149.763 108.206 149.958 108.336 150.13 108.523 150.183 111.153 150.926 113.844 151.302 116.532 151.302 116.696 151.302 118.517 151.233 118.517 151.233 119.82 151.139 120.981 150.943 122.066 150.635 122.248 150.583 122.377 150.419 122.383 150.229 122.39 150.038 122.318 150.094 122.139 150.031Z" fill="#FFFFFF"/><path d="M125.675 148.502C122.026 146.92 117.386 146.122 113.348 146.545 110.642 146.88 108.324 147.147 106.031 148.647 105.535 149.068 106.779 153.816 106.929 155.998 106.949 156.149 107.046 156.278 107.186 156.34 112.574 158.661 119.428 158.907 124.293 155.557 124.35 154.266 125.638 149.795 125.675 148.502ZM107.875 150.331C107.526 150.095 107.79 149.86 107.824 149.81 110.993 148.155 114.739 148.46 118.058 149.072 119.205 149.305 120.757 149.682 122.281 149.823 122.335 149.828 123.525 150.212 122.667 150.892 118.107 152.388 112.142 151.823 107.875 150.331Z" fill="#FFFFFF"/><path d="M125.002 121.297C124.691 121.53 122.819 117.139 120.199 121.978 120.195 121.987 120.191 121.995 120.187 122.005 120.105 122.235 119.14 125.17 122.704 126.275 122.831 126.315 122.872 126.474 122.777 126.568 122.312 127.031 121.534 128.159 124.264 128.693 124.27 128.694 124.275 128.695 124.281 128.697 124.432 128.743 126.825 129.467 126.897 128.306 126.958 127.308 127.237 126.738 127.48 126.751 127.723 126.764 128.743 129.277 129.714 129.277 130.686 129.277 135.544 128.694 134.864 127.917 134.184 127.14 131.693 125.559 132.568 125.365 133.442 125.17 136.225 127.82 137.779 127.723 139.334 127.626 141.957 127.528 142.152 127.043 142.346 126.556 140.888 125.779 140.014 125.488 139.139 125.196 137.779 123.933 138.945 123.933 140.111 123.933 145.667 126.772 146.896 126.802 147.971 126.828 149.079 126.725 149.147 126.362 149.212 126.014 147.992 125.53 147.89 125.49 147.886 125.488 147.882 125.487 147.877 125.484 147.718 125.405 144.806 123.936 146.507 124.03 148.126 124.119 152.775 125.952 154.056 125.613 154.187 125.579 154.233 125.417 154.139 125.32 153.547 124.716 151.352 122.657 148.531 122.27 148.376 122.248 148.32 122.051 148.445 121.957 148.897 121.618 149.199 120.978 146.816 120.241 145.212 119.745 143.829 119.692 143.347 119.483 142.672 119.19 143.291 118.777 143.23 118.55 143.133 118.186 140.299 118.54 139.952 118.585 139.929 118.588 139.907 118.586 139.884 118.58 139.532 118.483 136.494 117.674 136.129 118.589 136.129 118.589 135.545 120.921 134.574 120.435 133.602 119.95 135.06 118.006 135.545 117.326 135.727 117.071 135.976 116.666 135.859 116.413 135.668 115.996 134.842 115.849 133.655 116.426 133.621 116.442 133.584 116.448 133.547 116.441 133.115 116.361 130.284 115.898 130.104 117.424 129.91 119.075 130.885 121.228 129.521 121.213 127.75 121.193 129.813 117.327 129.618 116.744 129.424 116.161 128.064 115.967 126.607 117.327 125.977 117.915 125.041 118.265 124.848 118.978 124.592 119.914 125.178 121.165 125.002 121.297Z" fill="#FFFFFF"/><path d="M127.692 87.9284C128.054 87.9747 132.736 88.5466 133.097 87.2898 133.112 87.2386 133.107 87.184 133.085 87.1358 132.986 86.9188 132.605 86.2587 131.522 85.8736 131.37 85.8195 131.32 85.623 131.438 85.5124 131.669 85.2945 132.279 85.1151 133.891 85.6523 136.464 86.5098 140.642 86.5259 140.654 84.6929 140.655 84.6227 140.624 84.5559 140.568 84.513 140.338 84.3346 139.591 83.8675 137.953 83.734 137.903 83.7301 137.855 83.7091 137.819 83.6745 137.616 83.4815 137.038 82.835 138.361 82.835 139.915 82.835 146.548 83.8836 145.651 82.2773L145.382 81.8669C145.299 81.7396 145.367 81.569 145.514 81.5339 146.582 81.2823 150.076 80.3961 149.796 79.6346 149.615 79.1427 146.527 78.7547 142.839 80.2079 142.833 80.2103 142.827 80.2123 142.821 80.2137 142.655 80.261 140.174 80.9489 141.453 79.4542 141.463 79.4415 141.476 79.4298 141.49 79.4196 141.6 79.3372 142.123 78.9121 141.661 78.5977 141.408 78.4251 140.604 78.4212 139.77 78.2608 138.317 77.9815 137.331 77.8728 136.816 78.3383 136.458 78.6625 136.419 79.365 136.174 79.9973 136.144 80.0743 136.071 80.127 135.989 80.1328 135.685 80.1538 134.988 80.0719 135.056 78.8692 135.057 78.8575 135.058 78.8458 135.06 78.8346 135.096 78.6674 135.367 77.238 134.085 77.8786 132.725 78.5587 132.452 78.389 131.556 78.0015 130.597 77.5871 129.227 77.8045 130.286 79.3231 131.28 80.7476 131.634 81.4734 130.519 81.4218 129.157 81.3584 129.166 78.6947 127.514 78.2091 125.862 77.7231 124.855 78.1706 124.952 79.3367 125.047 80.4775 128.686 82.6844 126.841 83.6891 126.763 83.7315 126.667 83.7228 126.598 83.6672 126.282 83.4108 125.355 82.5713 124.564 80.9884 124.089 80.0382 123.497 79.2358 122.902 79.0642 122.281 78.8848 121.659 79.3723 121.26 80.0168 120.398 81.411 121.623 82.0516 122.632 82.7595 122.778 82.8623 122.747 83.0861 122.578 83.146 122.144 83.3011 121.296 83.4488 120 83.0281 118.242 82.4572 117.862 84.6086 119.223 86.1632 120.581 87.7149 123.384 88.3116 127.646 87.927 127.662 87.9265 127.677 87.9265 127.692 87.9284ZM132.94 82.1725C133.641 82.8014 132.558 83.266 132.231 83.3869 132.175 83.4073 132.113 83.4049 132.061 83.3786 130.941 82.8209 131.68 82.25 132.308 82.0701 132.569 81.9951 132.81 82.0979 132.891 82.1389 132.909 82.1481 132.926 82.1593 132.94 82.1725Z" fill="#FFFFFF"/><path d="M150.798 92.8424C151.089 91.5793 151.012 90.1607 148.952 90.1222 145.159 90.0505 145.162 89.2476 143.316 88.3735 141.47 87.4989 139.465 88.509 138.396 89.0921 137.38 89.6464 133.96 89.7268 133.626 89.7331 133.608 89.7336 133.591 89.7356 133.573 89.7405 133.256 89.8209 130.22 90.6448 128.839 93.0374 127.551 95.2697 130.436 96.4402 131.125 96.682 131.239 96.722 131.31 96.8419 131.28 96.9594 131.229 97.1568 130.991 97.4098 130.102 97.4098 128.644 97.4098 125.536 96.8268 124.953 98.8674 124.37 100.908 125.519 100.985 127.359 100.156 128.429 99.6733 128.742 100.422 130.394 100.616 132.045 100.81 132.142 100.033 132.725 99.1585 133.308 98.2839 135.057 99.9356 135.057 99.9356 137.015 101.668 139.498 101.124 140.516 100.791 140.71 100.728 140.742 100.468 140.57 100.359 139.925 99.9521 138.653 99.118 137.68 98.2839 136.32 97.1178 137.583 96.2437 138.749 96.1462 139.915 96.0492 142.263 97.5356 143.51 96.8263 145.841 95.5003 147.342 95.2156 147.562 95.179 147.581 95.1761 147.599 95.1751 147.618 95.1766L150.537 95.3901C150.694 95.4018 150.82 95.2624 150.792 95.1074 150.707 94.6467 150.592 93.7336 150.798 92.8424ZM133.551 93.9461C133.401 94.2318 132.971 94.1475 132.941 93.8267 132.831 92.6586 132.807 90.8827 133.733 91.2132 134.632 91.5345 134.049 92.994 133.551 93.9461ZM137.36 93.7297C137.353 93.7331 137.224 93.8277 137.127 93.6522 136.967 93.3611 138.657 89.4592 139.916 90.8027 141.001 91.9596 137.653 93.5995 137.36 93.7297ZM142.445 93.5547C141.679 92.5689 143.273 92.2745 143.715 92.2915 143.785 92.2945 143.939 92.5075 143.922 92.5767 143.805 93.0491 143.099 94.3966 142.445 93.5547Z" fill="#FFFFFF"/><path d="M113.65 103.751C113.65 103.751 113.303 102.45 112.817 102.175 112.474 101.981 112.028 101.973 111.414 102.15 111.213 102.2 110.987 102.278 110.748 102.36 109.763 102.699 108.984 102.918 108.67 102.407 108.251 101.726 108.966 100.723 109.488 99.9902 109.583 99.8566 109.844 99.4705 109.889 99.4032 110.1 99.0892 110.338 98.7334 110.402 98.2727 110.427 98.0913 110.331 97.9124 110.168 97.8286 109.692 97.5839 109.161 97.5629 108.691 97.5444 108.632 97.5419 105.528 97.5395 105.528 97.5395 104.792 97.5795 103.679 97.6399 103.079 98.2542 102.763 98.5759 102.822 98.8279 102.916 99.0785L102.926 99.1058C102.93 99.118 102.936 99.1302 102.941 99.1419 103.142 99.5602 103.409 99.9351 103.666 100.297 104.056 100.847 104.425 101.366 104.532 101.984 104.549 102.075 104.53 102.156 104.48 102.205 104.421 102.263 104.337 102.261 104.278 102.249 103.412 102.07 102.596 101.796 101.851 101.434 101.476 101.251 101.14 101.013 100.784 100.761 100.531 100.582 100.269 100.397 99.9872 100.23L99.9643 100.216C99.744 100.085 99.1585 99.7366 98.7777 100.348 98.7709 100.361 98.7631 100.375 98.7563 100.387 98.5028 100.913 98.4531 101.346 98.6076 101.677 98.6286 101.722 98.8777 102.004 98.9108 102.026 99.529 102.436 100.317 102.673 101.079 102.903 102.475 103.324 103.793 103.721 104.048 105.081 104.06 105.186 103.848 105.373 103.786 105.361 103.128 105.234 102.453 105.168 101.801 105.105 100.832 105.011 97.9129 104.216 97.6536 104.138 97.3693 104.052 96.9798 103.934 96.6517 104.15 96.33 104.362 96.2851 104.766 96.27 104.898 96.2306 105.25 96.35 105.552 96.4558 105.818 96.5055 105.943 96.5518 106.06 96.5723 106.161 96.5733 106.165 96.5738 106.169 96.5747 106.173 96.6547 106.521 96.4529 106.929 96.2388 107.361 95.9293 107.986 95.5442 108.763 96.1711 109.457 96.7463 110.172 97.4669 110.747 98.164 111.303 98.5047 111.574 98.8567 111.855 99.177 112.142 99.3471 112.295 99.6065 112.29 99.7713 112.132 99.9643 111.947 100.347 111.804 100.848 111.73 100.852 111.73 100.856 111.729 100.86 111.728 102.96 111.357 104.555 111.471 105.512 113.228 105.592 113.373 105.741 113.456 105.896 113.456 105.964 113.456 106.034 113.44 106.099 113.406 106.932 112.969 107.206 112.26 107.47 111.574 107.499 111.498 107.529 111.42 107.561 111.342 107.607 111.226 107.752 111.191 107.849 111.269 108.975 112.167 110.958 112.185 112.23 111.524 114.412 110.337 114.903 107.649 113.65 103.751ZM100.096 108.128C98.7168 107.992 98.1333 107.045 98.2698 106.788 98.4448 106.457 100.232 106.496 101.165 106.71 102.098 106.924 102.914 107.487 102.914 107.876 102.914 108.265 101.476 108.264 100.096 108.128ZM104.138 110.616C103.497 110.577 102.856 110.266 102.856 109.994 102.856 109.722 103.536 109.314 103.944 109.391 104.352 109.469 105.116 109.852 105.132 110.136 105.144 110.334 104.779 110.655 104.138 110.616ZM111.036 105.505C110.725 105.952 110.104 106.457 109.812 106.185 109.521 105.913 109.482 105.505 109.89 104.961 110.298 104.417 110.706 103.776 111.036 103.931 111.485 104.142 111.347 105.058 111.036 105.505Z" fill="#FFFFFF"/><path d="M108.252 116.551C108.235 116.062 108.037 115.643 107.694 115.371 107.694 115.371 107.694 115.371 107.694 115.371 107.362 115.108 106.938 114.943 106.491 114.88 105.915 114.798 105.557 114.349 105.515 114.235 104.704 112.059 103.545 111.756 101.411 111.929 101.353 111.931 101.252 111.928 101.146 111.924 100.782 111.91 100.33 111.893 99.9906 112.035 99.8439 112.097 99.742 112.233 99.725 112.391 99.7074 112.549 99.7776 112.704 99.9073 112.795 100.188 112.993 100.57 113.942 100.431 114.422 100.399 114.533 100.358 114.561 100.277 114.569 99.3793 114.487 98.8699 113.884 98.281 113.186 97.9851 112.836 97.6794 112.474 97.3065 112.16 96.3061 111.28 95.199 111.723 94.3088 112.08 94.2469 112.105 94.185 112.129 94.1226 112.154 93.9651 112.216 93.4698 112.481 93.1978 112.52 93.0306 112.544 92.0614 112.056 90.443 112.755 90.4395 112.756 90.4356 112.758 90.4322 112.76 90.1485 112.891 89.8848 113.047 89.6298 113.198 89.3783 113.347 89.1408 113.488 88.8927 113.603 88.8878 113.605 88.8834 113.607 88.8791 113.609 88.3238 113.889 87.674 114.06 86.9866 114.24 85.5563 114.616 84.0772 115.004 83.2826 116.442 83.1933 116.603 83.2148 116.803 83.3362 116.942 83.3815 116.994 83.4717 117.091 83.5751 117.189 83.5331 117.205 83.4917 117.22 83.4498 117.237 81.6641 117.964 80.6579 118.939 79.5761 120.565 79.4683 120.726 79.2173 121.29 79.3431 121.439 79.4688 121.588 78.3325 122.061 77.5183 124.105L77.4837 124.19C77.2078 124.858 76.6935 126.101 77.417 126.641 77.5447 126.736 77.7138 126.755 77.8586 126.69 78.548 126.378 79.1198 125.905 79.6731 125.447 80.3278 124.906 80.9465 124.394 81.7225 124.168 83.2596 123.695 85.8005 123.773 86.3748 125.151 86.4128 125.242 86.4796 125.315 86.5624 125.363 83.4156 125.368 81.2346 126.065 80.0772 127.433 79.2499 128.412 78.9716 129.711 79.2485 131.293 79.2865 131.638 79.3367 131.985 79.3855 132.32 79.4703 132.907 79.5581 133.514 79.578 134.102 79.5829 134.244 79.6565 134.375 79.775 134.453 79.8471 134.501 79.931 134.525 80.0148 134.525 80.069 134.525 80.1236 134.515 80.1752 134.494 80.9021 134.207 81.59 133.801 82.2252 133.403 84.6656 132.038 85.4549 130.615 86.1515 129.359 86.6746 128.417 87.1265 127.602 88.2502 126.983 88.3004 126.963 88.3574 126.964 88.3828 126.971 88.7055 127.679 88.6758 128.345 88.2921 129.005 88.1683 129.219 88.0157 129.423 87.8548 129.64 87.6881 129.865 87.5155 130.097 87.3678 130.35 87.2752 130.508 87.2917 130.708 87.4088 130.849 87.5257 130.99 87.7188 131.043 87.8914 130.982 89.641 130.362 91.0801 128.662 91.7821 127.704 91.785 127.7 91.7875 127.696 91.7904 127.692 92.3198 126.919 92.5329 126.018 92.7386 125.148 92.9931 124.072 93.2334 123.055 94.0422 122.369 94.1182 122.324 94.1684 122.309 94.1913 122.305 94.225 122.341 94.3556 122.522 94.4219 123.209 94.476 123.774 94.4702 124.467 94.4643 125.136 94.4531 126.425 94.459 127.172 94.7144 127.552 94.7159 127.554 94.7178 127.557 94.7193 127.559 94.7461 127.6 94.7866 127.658 94.8373 127.713 94.8407 127.716 94.8441 127.72 94.8475 127.724 94.9523 127.828 95.0966 127.874 95.2395 127.849 95.5456 127.801 95.8176 127.625 96.0473 127.464 99.1248 125.329 98.6656 122.777 98.1342 119.822L98.1157 119.718C98.1299 119.691 98.1688 119.653 98.1913 119.646 98.8977 119.471 99.4554 119.656 99.8493 120.198 100.052 120.473 100.183 120.799 100.323 121.145 100.453 121.468 100.588 121.803 100.789 122.099 100.794 122.106 100.798 122.112 100.803 122.118 100.911 122.259 101.19 122.437 101.481 122.317 102.203 122.025 102.785 121.359 103.211 120.872 103.444 120.604 104.189 119.669 104.021 118.88 103.947 118.534 103.722 118.206 103.505 117.889 103.2 117.444 102.991 117.109 103.09 116.88 103.235 116.672 103.407 116.569 103.785 116.681 104.186 116.801 104.666 117.121 105.131 117.431 105.721 117.824 106.278 118.196 106.802 118.267 107.028 118.309 107.355 118.33 107.645 118.067 108.04 117.705 108.272 117.125 108.252 116.551ZM95.6027 117.322C95.5671 117.377 95.5446 117.44 95.5368 117.505 95.512 117.709 95.4286 117.846 95.2648 117.95 94.2445 118.598 91.1503 117.649 89.7902 117.206 89.9374 117.097 90.0608 117.006 90.0958 116.991 91.4779 116.397 94.0553 115.82 95.2088 116.461 95.4052 116.583 95.5832 116.826 95.6329 117.043 95.6592 117.156 95.649 117.25 95.6027 117.322Z" fill="#FFFFFF"/><path d="M118.288 120.585C117.988 119.577 117.317 118.788 116.294 118.24 116.286 118.236 116.278 118.232 116.269 118.228 114.555 117.447 113.171 118.253 111.95 118.964 111.508 119.222 111.051 119.488 110.59 119.677 110.543 119.685 110.434 119.636 110.41 119.597 110.351 119.477 110.294 119.358 110.237 119.239 109.92 118.576 109.591 117.889 109.038 117.343 108.93 117.236 108.774 117.194 108.627 117.23 108.479 117.266 108.361 117.376 108.315 117.521 108.078 118.257 107.428 118.662 106.728 118.505 106.117 118.375 105.578 118.004 105.008 117.611 104.787 117.458 104.557 117.3 104.323 117.157 104.149 117.05 103.923 117.079 103.781 117.226 103.639 117.373 103.618 117.599 103.73 117.77 104.24 118.546 104.376 119.089 104.196 119.649 103.803 120.926 102.59 122.222 101.434 122.598 101.345 122.627 100.989 122.566 100.882 122.515 100.545 122.355 100.373 121.881 100.191 121.379 99.9643 120.752 99.7069 120.042 99.001 119.83 98.8557 119.787 98.6988 119.821 98.5852 119.922 98.4716 120.022 98.4185 120.174 98.4443 120.323L98.4945 120.613C98.6827 121.69 98.8772 122.804 98.749 123.847 98.7134 124.132 98.6559 124.403 98.5798 124.646 98.0606 126.205 96.76 127.602 95.4179 128.042 95.2161 128.109 95.0913 128.31 95.1215 128.52 95.2331 129.296 95.3487 130.098 95.0372 130.807 94.9436 131.021 94.7949 131.231 94.6374 131.453 94.2713 131.97 93.815 132.613 94.088 133.457 94.0895 133.461 94.0909 133.465 94.0924 133.47 94.3415 134.164 94.7105 134.821 95.0674 135.456 95.7187 136.615 96.3339 137.709 96.2374 138.97 96.2247 139.134 96.3061 139.292 96.448 139.378 96.5172 139.42 96.5957 139.44 96.6737 139.44 96.7546 139.44 96.836 139.418 96.9072 139.372 101.176 136.675 101.464 134.985 101.743 133.351 101.905 132.399 102.045 131.576 103.044 130.52 103.105 130.475 103.171 130.453 103.226 130.461 103.278 130.469 103.325 130.504 103.365 130.564 104.418 132.162 103.883 133.403 103.206 134.976 103.007 135.438 102.801 135.916 102.63 136.424 102.574 136.589 102.622 136.771 102.751 136.888 102.881 137.004 103.067 137.033 103.225 136.961 106.429 135.507 106.665 133 106.916 130.346 106.961 129.873 107.007 129.385 107.071 128.886 107.134 128.314 107.411 127.851 107.63 127.777 107.79 127.723 107.997 127.903 108.11 128.021 108.82 128.825 108.896 130.246 108.969 131.621 109.045 133.043 109.117 134.386 109.854 135.223 109.916 135.294 110 135.343 110.093 135.362 112.063 135.773 114.007 132.347 115.168 130.3 115.329 130.018 115.468 129.773 115.58 129.586 115.584 129.58 115.588 129.574 115.591 129.568 115.683 129.398 115.781 129.217 115.885 129.029 117.152 126.711 119.068 123.208 118.288 120.585ZM99.4549 129.057C98.9498 129.64 98.0299 130.275 97.5634 130.003 97.0968 129.731 97.3952 128.474 97.9392 127.969 98.4833 127.464 99.3774 127.088 99.9599 127.127 100.736 127.179 99.9604 128.474 99.4549 129.057ZM101.971 124.616C101.692 124.835 101.186 124.981 100.602 124.731 100.598 124.729 100.595 124.728 100.591 124.726 100.103 124.533 99.7157 124.218 99.7469 124.014 99.7737 123.848 100.136 123.473 100.505 123.392 100.657 123.359 101.308 123.385 101.426 123.426 101.902 123.591 102.198 123.83 102.24 124.082 102.27 124.261 102.169 124.46 101.971 124.616ZM113.744 130.598C113.394 130.987 112.397 129.834 111.351 128.209 110.305 126.583 110.339 125.228 110.687 125.053 110.998 124.898 111.736 125.87 112.863 127.424 113.99 128.979 114.094 130.21 113.744 130.598Z" fill="#FFFFFF"/><path d="M100.464 126.904C100.159 126.797 99.8532 126.768 99.5933 126.972 98.8011 126.894 97.8822 127.588 97.4581 128.144 97.0417 128.691 96.6737 129.972 97.5731 130.299 98.2649 130.55 99.0288 129.792 99.4515 129.349 99.821 128.999 101.293 127.246 100.464 126.904ZM99.2555 128.532C98.9659 128.885 98.4321 129.588 97.9353 129.652 97.3542 129.726 97.8832 128.648 98.046 128.451 98.475 127.931 99.0888 127.575 99.7386 127.397 99.8073 127.426 99.8775 127.447 99.9477 127.467 99.7956 127.858 99.5066 128.226 99.2555 128.532Z"/><path d="M113.151 130.96C115.901 130.995 112.542 126.462 111.794 125.59 111.499 125.229 111.126 124.681 110.634 124.587 110.38 124.54 110.256 124.832 110.438 125.001 109.379 126.183 111.536 129.172 112.328 130.189 112.539 130.453 112.811 130.851 113.151 130.96ZM110.734 125.346C111.847 126.647 113.134 128.039 113.58 129.736 113.634 129.935 113.649 130.18 113.501 130.263 113.436 130.299 113.354 130.283 113.301 130.232 112.497 129.45 110.338 126.273 110.734 125.346Z"/><path d="M131.265 83.5629C131.926 84.0021 132.903 83.9665 133.342 83.245 133.655 82.7317 133.596 81.9356 132.985 81.6753 132.614 81.4661 131.7 81.724 131.678 82.1798 131.287 82.3792 130.795 83.2523 131.265 83.5629ZM132.757 82.5094C132.76 82.6308 132.724 82.7848 132.589 82.9091 132.46 83.0291 132.27 83.0466 132.266 83.0466 132.131 83.0476 131.989 83.0213 131.866 82.972 131.907 82.5732 132.281 82.5815 132.512 82.3402 132.513 82.3388 132.591 82.2968 132.672 82.3402 132.723 82.369 132.756 82.446 132.757 82.5094Z"/><path d="M133.034 95.0601C133.089 95.1142 133.184 95.0961 133.216 95.0289 133.388 95.1649 133.66 95.1551 133.727 94.8738 133.911 94.0943 135.279 91.2317 133.88 90.9343 132.134 90.6306 132.38 94.1987 133.034 95.0601ZM133.185 93.0418C133.189 92.9087 133.309 91.3009 133.739 91.5978 133.96 92.0151 133.443 93.3738 133.234 93.9296 133.228 93.9456 133.204 93.9413 133.203 93.9242 133.188 93.6302 133.176 93.3358 133.185 93.0418Z"/><path d="M137.178 93.9125C137.362 94.516 138.175 93.696 138.436 93.5132 139.276 92.8746 141.395 91.6027 140.095 90.462 138.719 89.2715 135.955 93.8915 137.178 93.9125ZM139.793 91.0221C140.314 91.7592 137.962 92.878 137.446 93.3923 137.435 93.404 137.424 93.404 137.429 93.3928 137.853 92.4066 139.153 90.2826 139.793 91.0221Z"/><path d="M142.31 93.9018C143.131 94.5589 144.134 93.5239 144.211 92.6884 144.227 92.4115 143.834 92.2477 143.651 92.4563 143.6 92.5212 143.546 92.5875 143.498 92.6543 143.431 92.7717 143.363 92.9219 143.279 93.0569 143.258 93.091 143.235 93.1242 143.212 93.1554 143.109 93.2934 142.981 93.3992 142.808 93.4079 142.795 93.4084 142.756 93.3987 142.721 93.368 142.564 93.2339 142.574 92.9936 142.698 92.8405 142.701 92.8371 142.739 92.7825 142.769 92.7537 142.792 92.7318 142.838 92.6996 142.844 92.6952 142.996 92.5865 143.173 92.509 143.351 92.4519 143.476 92.4125 143.604 92.3842 143.734 92.3618 143.835 92.3447 143.835 92.1741 143.734 92.157 143.302 92.0858 142.842 92.078 142.454 92.3101 141.894 92.6279 141.806 93.4932 142.31 93.9018ZM142.635 92.9472C142.643 92.9268 142.649 92.918 142.635 92.9472L142.635 92.9472Z"/><path d="M100.027 108.462C101.311 108.743 104.997 108.781 102.416 106.913 102.349 106.77 102.114 106.755 101.981 106.679 101.654 106.52 101.274 106.367 100.927 106.382 100.18 106.256 99.3827 106.098 98.6276 106.246 98.1138 106.349 97.7267 106.744 97.9851 107.28 98.3541 108.043 99.2545 108.329 100.027 108.462ZM100.489 106.936C100.632 106.948 100.774 106.96 100.915 106.972 101.431 107.244 102.142 107.31 102.509 107.778 101.436 107.972 99.2877 107.969 98.6252 106.976 99.1809 106.775 99.9156 106.886 100.489 106.936Z"/><path d="M110.639 106.376C111.222 105.963 111.695 105.149 111.701 104.425 111.709 103.53 110.784 103.491 110.229 103.963 110.145 104.034 110.145 104.122 110.186 104.192 109.727 104.587 109.341 105.139 109.236 105.615 109.042 106.492 110.021 106.814 110.639 106.376ZM110.038 105.31C110.228 104.94 110.494 104.575 110.789 104.255 111.51 104.117 110.558 105.672 110.277 105.802 110.194 105.866 110.029 105.993 109.918 105.905 109.773 105.791 109.975 105.434 110.038 105.31Z"/><path d="M102.48 109.622C102.376 109.713 102.363 109.89 102.431 110.005 103.051 111.056 104.529 111.069 105.489 110.511 105.838 110.285 105.522 109.927 105.299 109.742 105.145 109.463 103.902 108.81 103.681 109.149 103.236 109.182 102.804 109.342 102.48 109.622ZM103.154 109.898C103.456 109.72 103.784 109.709 104.122 109.739 104.331 109.873 104.55 109.994 104.75 110.14 104.205 110.315 103.565 110.286 103.154 109.898Z"/><path d="M109.39 153.257C108.57 153.255 108.087 154.189 108.521 154.869 108.892 155.522 109.887 155.522 110.258 154.869 110.692 154.189 110.21 153.255 109.39 153.257Z"/><path d="M115.173 154.503C114.773 153.336 113.185 153.935 113.466 155.073 113.83 156.264 115.607 155.674 115.173 154.503Z"/><path d="M120.442 153.996C119.457 153.057 118.049 154.477 118.983 155.455 119.968 156.394 121.375 154.974 120.442 153.996Z"/><path d="M154.96 125.115C152.908 123.366 151.723 122.305 148.931 122.084 149.44 121.82 149.855 121.454 149.486 120.897 149.072 120.329 147.68 120.252 146.993 119.908 145.955 119.499 144.945 118.969 143.845 119.043 144.174 118.779 144.168 118.273 143.736 118.126 142.502 117.691 141.271 118.227 140.022 118.104 138.919 117.996 137.771 117.325 136.656 117.727 135.465 118.113 135.486 119.63 134.771 120.028 134.752 120.039 134.727 120.022 134.729 120.001 134.828 118.62 136.619 117.327 136.344 116.306 136.216 115.884 135.78 115.682 135.378 115.609 134.815 115.508 134.362 115.797 133.84 115.94 133.211 116.112 132.586 115.852 131.949 115.9 131.302 115.949 130.563 116.064 130.091 116.535 130.092 116.159 130.016 115.547 129.519 115.559 128.76 115.646 128.047 115.957 127.366 116.292 126.005 117.036 123.695 118.117 124.353 120.022 123.018 117.998 120.939 119.485 120.039 121.082 121.692 113.747 125.415 107.107 129.826 101.089 131.119 101.7 132.319 100.602 133.084 99.6567 133.288 99.4583 133.532 99.6855 133.795 99.8493 135.125 100.776 135.902 101.803 137.692 101.778 138.473 101.861 142.625 101.648 141.587 100.207 140.647 99.3359 138.246 98.3736 137.846 97.2065 137.814 96.8755 138.076 96.7473 138.388 96.7078 139.352 96.5854 140.339 96.9945 141.26 97.2134 142.739 97.6136 143.949 97.2056 145.197 96.4056 145.591 96.1857 145.99 95.9619 146.434 95.861 147.989 95.5641 149.571 96.0809 151.131 95.7786 151.482 95.7158 151.589 95.2819 151.445 95.0069 150.436 92.8215 153.358 89.4031 147.61 89.4046 146.837 89.4095 146.196 89.3144 145.524 88.9122 143.68 87.5028 142.604 87.0353 140.248 87.6272 139.074 87.9455 138.099 88.7455 136.904 89.0034 135.566 89.2149 134.185 89.1691 132.899 89.6605 129.977 90.4761 125.776 94.4487 129.725 96.8151 128.274 96.6683 126.595 96.6264 125.367 97.5366 124.115 98.4838 123.728 101.191 125.855 101.179 126.79 101.116 127.633 100.332 128.584 100.592 124.433 106.185 120.944 112.34 119.129 119.106 119.319 110.95 120.519 102.692 123.561 95.0869 124.481 92.7596 125.782 90.5731 127.143 88.5071 127.94 88.4968 128.738 88.5212 129.534 88.5568 130.494 88.6002 131.544 88.844 132.488 88.5934 133.367 88.3604 134.02 87.3785 133.451 86.5371 133.127 86.0789 132.594 85.8721 132.081 85.6864 132.41 85.6177 132.789 85.7405 133.123 85.8575 133.743 86.0745 134.347 86.3158 134.982 86.4898 136.251 86.8379 137.533 86.9169 138.824 86.6682 139.646 86.5098 140.795 86.1915 141.091 85.2906 141.392 84.376 140.645 83.676 139.815 83.5161 139.326 83.4254 138.809 83.4098 138.324 83.2938 138.279 83.283 138.322 83.2601 138.389 83.2621 140.267 83.3094 142.044 83.7047 143.952 83.6647 144.981 83.6872 146.731 83.1519 145.958 81.8347 147.469 81.1887 149.267 81.2541 150.558 80.1674 150.945 79.8418 150.684 79.2714 150.284 79.1276 148.493 78.4846 146.539 78.4997 144.733 79.0862 143.735 79.4113 142.828 79.7852 141.771 79.9617 142.215 79.6141 142.605 79.2543 142.644 78.5616 142.662 78.2408 142.359 77.9727 142.054 77.9708 140.812 77.9625 139.607 77.6173 138.363 77.6807 137.152 77.6978 136.167 77.883 136.008 79.2807 135.978 79.4196 135.94 79.5527 135.798 79.6117 135.579 78.7766 135.987 77.5759 135.135 77.0269 134.427 76.6545 133.633 77.4345 133.047 77.7319 132.71 77.903 132.435 77.7801 132.079 77.6315 131.608 77.435 131.153 77.2054 130.628 77.2727 129.91 77.3648 129.235 77.9771 129.441 78.7468 129.571 79.4601 130.671 80.1606 130.608 80.7646 130.015 80.358 129.678 79.6638 129.267 79.0935 126.974 75.7984 122.971 78.4427 125.304 80.6515 126.053 81.3218 126.973 81.9931 126.807 83.1251 125.236 82.3071 125.274 80.1543 123.954 79.0715 123.229 78.4485 122.259 78.3071 121.466 78.8951 120.711 79.4542 120.009 80.5608 120.511 81.492 120.81 82.0482 121.366 82.3539 121.851 82.7283 120.985 82.5796 120.119 82.1394 119.219 82.3909 118.289 82.6186 117.638 83.3747 117.74 84.3541 118.298 87.7407 122.427 88.8006 125.355 88.8084 119.812 97.5522 118.317 108.171 117.804 118.332 116.715 117.301 115.018 116.822 113.555 117.225 112.738 117.453 112.055 117.948 111.335 118.373 109.88 116.168 109.864 114.373 108.232 111.92 109.245 112.5 110.673 112.541 111.691 112.283 115.391 111.309 115.405 106.846 114.436 103.841 114.196 103.006 113.996 101.937 113.155 101.5 111.892 100.845 110.48 101.852 109.337 101.939 109.506 101.072 110.235 100.362 110.672 99.6089 111.726 98.048 111.048 96.8931 109.214 96.7999 106.1 96.5747 99.3886 96.3017 103.236 101.119 102.842 100.984 102.457 100.824 102.086 100.629 101.031 100.101 100.053 98.7787 98.7539 99.2726 98.1606 99.5343 97.8705 100.164 97.7442 100.768 97.2904 103.526 100.94 103.338 102.573 104.375 101.433 104.262 100.278 104.193 99.1945 103.846 98.2425 103.542 96.8336 102.681 95.9766 103.636 95.5169 104.149 95.3721 104.905 95.53 105.562 95.6529 106.051 95.9322 106.309 95.6382 106.83 95.3292 107.66 94.7968 108.479 95.2575 109.362 95.6904 110.158 96.4967 110.728 97.1987 111.267 95.628 110.386 94.2191 111.711 92.705 112.01 90.4142 111.515 89.5674 113.046 87.6242 113.648 85.8166 114.217 83.2679 114.787 82.8891 116.987 81.2614 117.781 79.4323 119.331 79.2665 121.182 77.5349 122.003 76.557 123.931 76.4127 125.783 76.3869 126.629 76.9884 127.618 77.9634 127.372 79.2889 126.986 80.1611 125.688 81.3379 125.038 82.4952 124.514 84.1245 124.364 85.3525 124.854 85.3817 124.866 85.3729 124.909 85.3413 124.91 83.2372 124.92 80.9728 125.466 79.6083 127.072 77.688 129.331 79.1432 132.217 78.9599 134.817 78.9355 135.163 79.3128 135.402 79.6219 135.321 81.5914 134.72 83.362 133.505 84.9093 132.17 86.2402 130.967 86.6682 129.059 88.0103 127.871 87.9626 129.038 86.6678 129.826 86.4654 130.987 86.4094 131.232 86.54 131.584 86.8267 131.624 87.8494 131.763 88.7942 131.309 89.6108 130.726 91.2771 129.511 92.7405 127.89 93.1744 125.821 93.3533 125.099 93.4942 124.296 93.8403 123.62 93.9715 124.96 93.3416 127.464 94.5692 128.336 94.5716 129.15 94.6803 130.007 94.2669 130.718 93.7653 131.582 93.0603 132.17 93.2446 133.268 93.442 134.447 94.2299 135.522 94.7817 136.559 95.3579 137.641 95.5827 138.684 95.2921 139.895 95.1873 140.331 95.5953 140.847 96.0716 140.674 98.0621 139.869 99.7903 138.43 101.195 136.825 101.882 135.982 102.193 135.097 102.41 134.039 102.563 133.295 102.678 132.477 103.045 131.807 103.521 133.732 101.632 135.477 101.728 137.44 101.728 137.809 102.105 138.123 102.472 138.006 104.298 137.422 105.931 136.281 106.768 134.511 107.63 132.722 107.387 130.762 107.795 128.871 108.908 130.96 107.206 137.241 111.351 135.962 111.878 139.309 111.761 142.707 112.096 146.071 109.72 146.516 106.041 146.957 104.789 149.279 104.627 149.467 104.543 149.726 104.613 150.035 105.25 152.873 105.583 155.797 105.976 158.675 106.595 165.299 108.739 168.149 115.737 168.067 122.702 168.096 124.702 164.923 125.245 158.41 125.629 155.359 125.901 152.238 126.575 149.234 126.721 148.581 126.181 148.15 125.668 148.143 125.145 147.716 124.482 147.497 123.852 147.268 122.06 146.648 120.198 146.232 118.316 146.008 118.426 143.488 118.095 140.985 118.016 138.497 119.023 134.29 120.698 131.843 124.152 129.311 124.996 129.479 125.877 129.61 126.693 129.271 127.225 129.05 127.592 128.724 127.472 128.112 127.437 127.935 127.409 127.885 127.472 127.71 127.96 128.654 128.539 129.572 129.667 129.671 131.524 129.927 133.572 129.537 135.232 128.67 136.341 127.76 133.55 126.527 133.058 125.915 135.903 127.053 135.559 128.406 139.439 128.181 140.541 128.148 141.605 127.948 142.62 127.512 142.899 127.392 142.935 127.004 142.815 126.77 142.392 125.95 141.504 125.601 140.698 125.274 140.211 125.076 139.602 124.882 139.249 124.484 142.821 124.713 146.108 128.965 149.741 126.784 151.097 125.523 147.407 124.8 146.665 124.431 148.687 124.583 150.56 125.408 152.55 125.716 153.318 125.836 153.928 126.176 154.729 125.998 155.097 125.915 155.259 125.369 154.96 125.115ZM127.996 99.4598C127.209 99.5031 126.528 100.068 125.756 100.137 125.038 100.123 125.506 99.078 125.704 98.7543 126.564 97.5239 128.357 97.7199 129.683 97.7199 130.191 97.7735 130.77 97.7637 131.217 97.5141 131.907 97.91 132.319 96.7951 131.61 96.4865 130.833 96.1701 129.718 95.747 129.348 94.9182 128.655 92.877 132.285 90.9119 133.923 90.576 135.045 90.2904 136.207 90.3762 137.329 90.109 138.407 89.8521 139.295 89.1603 140.339 88.8264 141.452 88.4705 142.764 88.4013 143.774 89.0516 144.7 89.6483 145.526 90.3211 146.669 90.4308 147.723 90.5322 149.163 90.0915 150.074 90.83 150.626 91.2771 150.372 92.1892 150.288 92.782 150.189 93.4796 150.145 94.1514 150.292 94.811 148.513 94.829 146.649 94.3259 145.012 95.2609 144.367 95.5983 143.752 96.0692 143.03 96.2262 142.392 96.3651 141.752 96.2286 141.135 96.0633 140.099 95.7859 138.842 95.3589 137.777 95.7153 136.566 96.1062 136.457 97.5999 137.298 98.4297 138.046 99.2886 139.08 99.8176 140.009 100.448 138.786 100.666 136.87 100.862 135.877 100.013 135.198 99.4661 134.545 98.8241 133.712 98.5169 133.036 98.2683 132.532 98.535 132.107 99.0581 130.438 101.276 129.946 99.3306 127.996 99.4598ZM119.559 85.334C119.118 84.7577 118.644 83.8139 119.611 83.5843 120.948 83.3971 121.911 84.5193 123.303 83.42 124.051 82.5718 121.919 81.7557 121.53 81.1502 121.045 80.5828 121.881 79.5756 122.499 79.4922 124.22 79.3884 124.254 82.9359 125.803 83.8198 126.45 84.2897 127.425 84.4477 127.78 83.5497 128.076 82.7985 127.776 81.724 127.302 81.1068 126.931 80.4716 124.912 79.598 125.931 78.8185 126.339 78.4894 126.837 78.528 127.286 78.7439 128.546 79.3504 128.868 80.8685 129.978 81.6601 130.529 82.0536 131.199 81.9814 131.542 81.3598 132.172 80.2132 130.937 79.3601 130.466 78.4539 130.636 78.1974 131.096 78.3486 131.312 78.4324 132.983 79.2329 133.097 78.8682 134.594 78.0999 134.735 78.9258 134.389 80.1591 135.263 80.6739 135.956 81.0298 136.77 80.4317 136.959 79.7599 137.033 79.4947 136.987 79.1788 137.098 78.9258 137.45 78.1375 140.34 79.1144 141.194 79.0935 140.789 79.5922 139.549 80.1192 140.339 80.7485 142.517 81.7674 145.282 79.3445 148.557 80.0007 147.391 80.5121 146.041 80.6013 144.907 81.2336 144.626 81.3906 144.574 81.8035 144.805 82.0263 144.909 82.1272 144.99 82.2393 145.084 82.3446 145.09 82.3514 145.087 82.3617 145.079 82.3651 143.9 82.7965 142.578 82.72 141.346 82.5723 140.064 82.3968 138.782 82.2432 137.486 82.233 137.263 82.231 137.058 82.3914 136.999 82.6044 136.749 83.4907 137.281 84.0855 138.117 84.2902 138.502 84.3848 139.925 84.397 139.999 84.8279 140.064 85.2009 138.599 85.5294 138.244 85.6026 136.906 85.9565 135.523 85.7088 134.254 85.2169 133.001 84.7875 131.689 84.1976 130.742 85.5002 130.619 85.6698 130.67 85.9648 130.82 86.1022 131.29 86.5327 131.974 86.6024 132.452 87.0085 133.04 87.5077 131.615 87.5501 131.397 87.5375 129.102 87.4102 126.811 87.0319 124.532 87.5457 122.723 87.2952 120.731 86.8632 119.559 85.334ZM129.588 118.638C129.611 118.565 129.635 118.492 129.659 118.418 129.749 119.195 129.931 119.987 129.539 120.614 129.09 120.101 129.382 119.289 129.588 118.638ZM124.173 152.985C123.826 152.121 122.375 152.372 122.402 153.328 122.385 154.175 123.568 154.517 124.06 153.865 123.992 154.412 123.926 154.959 123.86 155.505 118.671 158.227 112.705 158.304 107.363 155.941 107.109 154.034 106.834 152.124 106.444 150.247 111.533 152.435 119.462 153.1 124.526 150.614 124.391 151.4 124.277 152.192 124.173 152.985ZM118.486 150.796C118.398 150.802 118.308 150.807 118.219 150.813 118.229 150.297 118.241 149.78 118.253 149.263 119.52 149.432 120.744 149.786 121.947 150.215 120.82 150.534 119.653 150.712 118.486 150.796ZM117.019 150.86C114.192 150.909 111.354 150.528 108.643 149.761 109.922 149.391 111.225 149.079 112.561 149.012 112.763 150.116 114.045 150.205 113.899 148.958 114.949 148.938 116.006 148.98 117.048 149.109 117.039 149.693 117.029 150.276 117.019 150.86ZM114.998 148.402C114.591 148.352 114.174 148.322 113.753 148.311 113.624 147.859 113.568 147.416 113.495 146.956 114.681 146.846 115.882 146.826 117.07 146.904 117.068 147.515 117.061 148.126 117.053 148.738 116.371 148.605 115.686 148.488 114.998 148.402ZM116.979 132.098C116.918 132.743 116.863 133.39 116.82 134.038 116.495 133.098 116.045 132.063 115.346 131.383 116.109 130.067 116.855 128.767 117.546 127.398 117.322 128.96 117.127 130.527 116.979 132.098ZM108.551 115.427C108.119 114.752 107.277 114.357 106.475 114.274 106.388 114.036 106.29 113.798 106.18 113.564 106.718 113.334 107.08 112.872 107.399 112.384 107.839 113.474 108.186 114.349 108.551 115.427ZM96.5026 109.173C95.707 108.31 97.2563 107.191 96.9993 106.076 96.9248 105.704 96.6596 105.339 96.7034 104.948 96.7683 104.363 97.0671 104.419 97.5258 104.557 97.9968 104.699 98.4384 104.922 98.9074 105.067 100.453 105.547 102.121 105.486 103.701 105.791 104.213 105.889 104.546 105.503 104.479 105.014 104.032 102.569 100.87 102.768 99.1882 101.687 99.1814 101.683 99.1165 101.635 99.0668 101.579 99.022 101.529 98.9922 101.469 98.9903 101.464 98.8977 101.224 99.0064 100.874 99.1492 100.579 99.3067 100.326 99.4875 100.444 99.763 100.607 100.415 100.995 100.969 101.493 101.659 101.829 102.464 102.22 103.312 102.498 104.188 102.679 104.679 102.78 105.05 102.39 104.96 101.907 104.761 100.758 103.819 99.9648 103.334 98.9547 103.261 98.7597 103.235 98.7197 103.389 98.5618 103.906 98.0328 105.012 98.0094 105.696 97.9695 106.626 97.9149 107.562 97.9295 108.492 97.9748 108.986 97.9982 109.524 97.9904 109.966 98.2186 109.904 98.6632 109.617 99.0064 109.386 99.372 108.826 100.207 107.637 101.564 108.296 102.636 108.956 103.709 110.644 102.788 111.525 102.573 112.826 102.196 112.941 102.796 113.229 103.875 113.987 106.227 114.594 109.74 112.018 111.141 110.822 111.763 108.675 111.722 107.807 110.615 107.576 110.355 107.141 110.599 107.258 110.924 106.893 111.764 106.752 112.57 105.893 113.02 104.777 110.968 102.856 110.932 100.782 111.298 100.354 111.362 99.7966 111.501 99.4666 111.817 98.4891 110.94 97.3265 110.202 96.5026 109.173ZM99.1058 112.501C99.1283 112.814 99.3052 113.071 99.4602 113.327 99.4778 113.356 99.4393 113.387 99.4144 113.363 98.9454 112.924 98.5808 112.415 98.1299 111.97 98.1045 111.946 98.1357 111.906 98.1659 111.925 98.4745 112.122 98.788 112.312 99.1058 112.501ZM93.7877 122.013C92.1438 123.376 92.5607 125.795 91.4306 127.445 90.5361 128.667 89.2218 130.048 87.7466 130.571 88.0186 130.104 88.4003 129.692 88.6714 129.225 89.135 128.427 89.1594 127.612 88.7762 126.778 88.6504 126.503 88.295 126.481 88.0591 126.59 85.2769 128.108 86.2446 130.659 82.0029 133.027 81.374 133.421 80.7134 133.812 80.0153 134.088 79.9827 133.131 79.7857 132.182 79.6814 131.231 78.8687 126.64 83.1855 125.773 86.7692 125.8 87.3035 125.784 87.284 125.045 86.7779 124.982 86.0516 123.239 83.129 123.278 81.5943 123.75 80.0494 124.199 79.1061 125.646 77.6787 126.291 77.1947 125.93 77.7562 124.682 77.9269 124.26 78.84 121.633 82.077 121.292 84.4686 121.153 86.5293 121.057 88.5948 121.055 90.6555 120.989 91.3677 120.989 91.3687 119.882 90.6555 119.882 86.9364 120.047 82.8428 119.576 79.367 121.127 81.4325 118.023 85.4012 116.172 89.0438 117.422 90.3338 117.834 95.7021 119.776 95.9707 117.558 96.2886 117.062 95.8864 116.36 95.4296 116.084 94.0782 115.324 91.2956 116 89.9233 116.589 87.9002 115.908 85.6781 115.866 83.6643 116.653 84.727 114.729 87.3074 114.891 89.0755 114 89.6084 113.754 90.0846 113.403 90.6165 113.156 92.3832 112.393 94.2679 113.576 95.4696 114.839 95.7455 115.113 95.9732 115.416 96.3758 115.487 96.6113 115.529 96.9233 115.381 96.8945 115.092 96.8204 114.161 95.0684 112.999 94.282 112.56 95.2161 112.193 96.1638 111.734 97.0208 112.492 98.1172 113.412 98.6666 114.883 100.274 115.008 101.391 114.95 100.782 112.878 100.159 112.438 100.509 112.291 101.169 112.38 101.439 112.364 103.398 112.206 104.369 112.415 105.105 114.387 104.886 114.45 104.676 114.535 104.48 114.641 103.888 114.961 104.415 115.864 105.007 115.543 105.714 115.161 106.78 115.206 107.421 115.714 108.023 116.19 107.885 117.254 107.35 117.742 107.224 117.858 107.076 117.872 106.873 117.832 105.675 117.686 103.692 115.186 102.711 116.659 102.314 117.424 103.444 118.269 103.594 118.97 103.698 119.459 103.236 120.174 102.882 120.585 102.451 121.077 101.927 121.664 101.318 121.911 101.247 121.94 101.164 121.868 101.15 121.852 100.776 121.303 100.642 120.537 100.202 119.937 99.685 119.228 98.9279 119.013 98.0855 119.22 97.8744 119.272 97.6472 119.523 97.6775 119.756 98.223 122.79 98.69 125.098 95.7972 127.104 95.5988 127.242 95.4072 127.371 95.1932 127.407 95.1634 127.413 95.08 127.314 95.0659 127.291 94.5399 126.438 95.5598 120.907 93.7877 122.013ZM94.925 117.089C94.9528 117.133 94.9718 117.2 94.9938 117.278 93.7911 117.694 92.5246 117.297 91.3419 116.995 92.3301 116.985 94.0938 116.563 94.925 117.089ZM100.991 123.535C101.411 123.678 102.072 123.844 101.988 124.267 101.283 125.343 98.5238 123.815 100.991 123.535ZM110.181 134.933C108.853 133.425 110 129.485 108.432 127.724 107.467 126.713 106.746 127.842 106.636 128.837 106.219 132.093 106.555 134.969 103.044 136.562 103.782 134.364 105.252 132.633 103.728 130.322 103.491 129.964 103.068 129.93 102.747 130.196 99.8727 133.209 103.36 134.778 96.6732 139.002 96.8365 136.868 95.1844 135.22 94.5038 133.322 94.2016 132.386 95.0893 131.776 95.4374 130.982 95.7928 130.172 95.6768 129.309 95.5539 128.458 97.1427 127.936 98.4755 126.338 98.9937 124.784 99.4558 123.314 99.1331 121.745 98.8743 120.249 99.8551 120.542 99.684 122.429 100.695 122.909 100.534 122.897 100.403 123.01 100.422 123.176 98.9742 123.494 99.2409 124.662 100.429 125.132 102.223 125.902 103.835 123.8 101.569 123.013 102.931 122.569 104.197 121.128 104.614 119.777 104.879 118.946 104.546 118.215 104.095 117.529 104.912 118.027 105.677 118.728 106.637 118.932 107.594 119.146 108.437 118.567 108.731 117.653 109.32 118.236 109.634 119.011 110.017 119.789 110.131 120.021 110.496 120.181 110.744 120.084 112.536 119.353 114.007 117.676 116.087 118.625 120.189 120.821 116.771 126.459 115.206 129.359 114.342 130.791 112.096 135.333 110.181 134.933ZM113.084 142.146C112.901 139.873 112.965 137.536 112.352 135.326 113.393 134.407 114.095 133.361 114.826 132.233 116.845 136.481 117.047 141.265 117.071 145.89 115.839 145.804 114.599 145.817 113.364 145.924 113.228 144.669 113.155 143.407 113.084 142.146ZM109.54 147.637C110.424 147.413 111.317 147.235 112.216 147.105 112.271 147.52 112.338 147.932 112.423 148.341 110.887 148.45 109.345 148.809 107.999 149.414 107.935 149.443 107.898 149.488 107.881 149.54 107.341 149.391 106.825 149.178 106.291 149 107.239 148.298 108.376 147.934 109.54 147.637ZM121.33 164.814C119.14 166.681 115.264 166.521 112.564 166.091 108.044 165.164 108.029 160.916 107.527 157.187 112.389 159.864 118.74 159.681 123.643 157.253 123.237 159.797 123.372 162.892 121.33 164.814ZM120.465 147.376C121.985 147.665 123.436 148.254 124.929 148.633 124.904 148.695 124.886 148.768 124.873 148.837 124.423 149.18 123.943 149.471 123.424 149.692 123.117 149.524 122.681 149.466 122.397 149.643 121.007 149.513 119.627 149.267 118.26 148.989 118.275 148.333 118.29 147.675 118.302 147.017 119.027 147.104 119.749 147.222 120.465 147.376ZM118.698 133.119C118.498 133.45 118.303 133.796 118.124 134.153 118.353 130.705 118.898 127.287 119.486 123.885 119.814 125.114 120.987 125.974 122.159 126.372 121.277 127.162 121.753 128.338 122.707 128.803 121.101 129.958 119.723 131.424 118.698 133.119ZM152.155 125.229C149.858 124.779 147.859 123.43 145.454 123.571 145.094 123.59 144.898 123.943 145.057 124.262 145.671 125.492 147.055 125.669 148.2 126.195 144.713 126.779 141.887 122.75 138.318 123.52 138.014 123.585 137.91 123.903 137.948 124.171 138.236 125.889 140.215 125.964 141.422 126.788 140.697 126.993 139.948 127.085 139.187 127.093 135.494 127.427 135.132 124.715 132.241 124.755 131.96 124.777 131.69 124.985 131.703 125.293 131.735 126.1 132.228 126.663 132.845 127.129 133.236 127.425 133.731 127.677 134.112 128.019 133.081 128.503 129.895 129.166 129.064 128.28 128.749 127.895 128.487 127.415 128.331 126.946 127.736 125.029 126.144 127.099 126.436 128.221 125.631 128.652 124.566 128.299 123.739 128.065 122.698 127.686 122.344 127.175 123.696 126.688 123.888 126.703 124.08 126.711 124.273 126.711 124.691 126.709 124.703 126.19 124.385 126.047 124.299 125.304 123.64 125.57 123.141 125.775 121.376 125.291 119.759 124.031 120.694 122.078 121.061 121.286 121.914 119.943 122.918 120.061 123.274 120.151 123.513 120.604 123.721 120.875 124.051 121.303 124.413 121.679 124.896 121.934 125.25 122.121 125.607 121.882 125.644 121.505 125.709 120.834 125.496 120.28 125.302 119.656 125.111 119.04 125.532 118.656 125.995 118.291 126.931 117.599 127.965 117.034 129.075 116.658 128.82 118.326 127.309 120.649 129.358 121.753 129.573 121.863 129.799 121.831 129.978 121.673 131.192 120.601 130.47 119.165 130.505 117.818 130.6 116.441 132.358 116.877 133.29 116.933 133.553 116.942 133.833 116.906 134.086 116.836 134.489 116.717 135.01 116.379 135.417 116.595 135.427 116.601 135.367 116.667 135.32 116.766 135.295 116.818 135.272 116.869 135.255 116.895 134.99 117.313 134.658 117.684 134.41 118.113 134.074 118.695 133.731 119.405 133.724 120.09 133.714 120.88 134.362 121.3 135.095 121.021 135.927 120.705 136.01 119.802 136.393 119.123 137.02 118.009 138.504 118.776 139.459 118.963 140.442 119.155 141.475 118.857 142.465 118.88 141.303 119.547 139.782 119.814 139.626 121.408 139.602 121.647 139.868 121.921 140.109 121.892 141.09 121.773 141.74 121.155 142.509 120.6 144.389 119.163 146.406 120.913 148.29 121.45 148.073 121.62 147.85 121.746 147.596 121.862 147.264 122.012 147.427 122.437 147.685 122.546 148.832 123.029 150.147 122.932 151.236 123.568 152.055 124.046 152.774 124.674 153.503 125.284 153.053 125.432 152.619 125.33 152.155 125.229Z"/><path d="M547.489 118.407C547.489 134.934 534.091 148.332 517.564 148.332 501.037 148.332 487.639 134.934 487.639 118.407 487.639 101.88 501.037 88.4817 517.564 88.4817 534.091 88.4817 547.489 101.88 547.489 118.407Z" fill="#FFFFFF"/><path d="M542.322 118.484C542.322 131.921 531.429 142.813 517.993 142.813 504.557 142.813 493.664 131.921 493.664 118.484 493.664 105.048 504.557 94.1558 517.993 94.1558 531.429 94.1558 542.322 105.048 542.322 118.484Z" fill="#FFFFFF" fill-opacity="0.5"/><path d="M517.676 149.097C511.67 149.097 505.854 147.356 500.858 144.062L500.818 144.033 497.733 141.701C490.971 135.88 487.093 127.429 487.093 118.514 487.093 110.345 490.274 102.665 496.051 96.8882 501.828 91.1118 509.506 87.9309 517.676 87.9309 525.847 87.9309 533.525 91.1118 539.302 96.8882 545.079 102.665 548.257 110.345 548.257 118.514 548.257 122.974 547.321 127.274 545.469 131.294 543.68 135.178 541.145 138.589 537.927 141.433L537.888 141.463 534.87 143.81C529.791 147.268 523.843 149.097 517.676 149.097ZM501.72 142.799C506.459 145.919 511.977 147.567 517.676 147.567 523.526 147.567 529.167 145.836 533.988 142.56L536.932 140.271C543.158 134.755 546.731 126.826 546.731 118.513 546.731 102.493 533.695 89.4597 517.676 89.4597 501.657 89.4597 488.621 102.493 488.621 118.513 488.621 126.974 492.302 134.996 498.713 140.526L501.72 142.799Z"/><path d="M517.998 143.477C511.339 143.477 505.074 140.884 500.365 136.174 495.656 131.465 493.062 125.204 493.062 118.544 493.062 111.884 495.656 105.623 500.365 100.913 505.074 96.2042 511.339 93.6107 517.998 93.6107 524.657 93.6107 530.917 96.2042 535.626 100.913 540.335 105.623 542.929 111.884 542.929 118.544 542.929 125.204 540.335 131.465 535.626 136.174 530.917 140.884 524.657 143.477 517.998 143.477ZM517.998 94.8568C504.938 94.8568 494.31 105.483 494.31 118.543 494.31 131.604 504.938 142.23 517.998 142.23 531.058 142.23 541.686 131.604 541.686 118.543 541.686 105.483 531.058 94.8568 517.998 94.8568Z"/><path d="M520.163 118.951C520.133 118.101 519.641 117.464 518.988 117.193 519.056 114.704 518.837 112.22 518.69 109.737 518.549 107.259 518.525 104.849 518.91 102.391 518.973 101.988 518.432 101.827 518.291 102.221 517.891 103.337 517.784 104.513 517.706 105.691 517.623 106.985 517.608 108.279 517.647 109.574 517.715 112.005 517.92 114.439 517.866 116.871 517.042 117.002 516.326 117.572 516.068 118.401 515.838 119.135 516.072 119.962 516.628 120.46 516.584 120.537 516.54 120.615 516.497 120.692 515.994 121.586 515.468 122.466 514.946 123.349 514.43 124.219 513.893 125.074 513.333 125.916 513.069 126.308 512.777 126.683 512.523 127.082 512.324 127.4 512.075 127.779 512.031 128.156 512.021 128.275 512.167 128.388 512.28 128.344 513.021 128.052 513.528 127.068 513.962 126.447 514.566 125.578 515.161 124.699 515.746 123.816 516.311 122.96 516.843 122.084 517.364 121.197 517.423 121.093 517.481 120.989 517.54 120.884 517.681 120.902 517.818 120.898 517.949 120.875 519.114 121.012 520.197 120.195 520.163 118.951Z"/><path d="M506.298 99.6543C506.542 100.306 507.02 100.767 507.483 101.267 507.99 101.816 508.467 102.372 508.779 103.058 508.999 103.538 509.706 103.122 509.486 102.645 509.194 101.993 508.745 101.439 508.267 100.912 507.795 100.387 507.327 99.8322 506.795 99.3647 506.591 99.1863 506.186 99.3535 506.298 99.6543L506.298 99.6543Z"/><path d="M529.503 103.859C530.424 103.26 531.092 102.139 531.697 101.238 531.989 100.799 531.282 100.388 530.99 100.825 530.39 101.718 529.625 102.508 529.059 103.417 528.894 103.686 529.23 104.036 529.503 103.859L529.503 103.859Z"/><path d="M499.376 108.683C499.834 108.937 500.355 109.063 500.843 109.237 501.428 109.444 501.998 109.667 502.554 109.941 503.027 110.172 503.441 109.466 502.968 109.233 501.92 108.718 500.628 108.094 499.429 108.285 499.239 108.315 499.224 108.598 499.376 108.683L499.376 108.683Z"/><path d="M496.529 119.405C497.157 119.58 497.752 119.435 498.381 119.298 498.912 119.182 499.444 119.069 499.961 118.902 500.458 118.74 500.248 117.952 499.741 118.112 498.688 118.448 497.401 118.449 496.485 119.084 496.363 119.167 496.373 119.362 496.529 119.405L496.529 119.405Z"/><path d="M499.727 129.719C500.214 129.624 500.667 129.259 501.072 128.984 501.496 128.693 502.047 128.398 502.359 127.981 502.554 127.723 502.232 127.317 501.935 127.427 501.452 127.604 501.023 128.029 500.599 128.315 500.199 128.587 499.756 128.812 499.376 129.118 499.073 129.365 499.41 129.779 499.727 129.719L499.727 129.719Z"/><path d="M507.824 137.147C508.331 136.812 508.526 136.245 508.75 135.704 508.867 135.417 508.979 135.127 509.096 134.839 509.208 134.567 509.335 134.371 509.282 134.071 509.242 133.843 508.96 133.771 508.779 133.866 508.37 134.083 508.233 134.813 508.072 135.214 507.858 135.749 507.541 136.256 507.395 136.814 507.332 137.051 507.605 137.294 507.824 137.147L507.824 137.147Z"/><path d="M517.662 135.196C517.345 136.327 517.491 137.677 517.657 138.822 517.735 139.337 518.539 139.125 518.447 138.604 518.261 137.49 518.383 136.285 518.081 135.196 518.022 134.99 517.72 134.989 517.662 135.196L517.662 135.196Z"/><path d="M526.695 133.329C526.851 133.915 527.285 134.45 527.592 134.964 527.855 135.404 528.104 135.941 528.504 136.272 528.83 136.543 529.445 136.182 529.147 135.776 528.83 135.34 528.533 134.883 528.24 134.431 527.924 133.946 527.621 133.321 527.119 133.001 526.9 132.862 526.627 133.091 526.695 133.329L526.695 133.329Z"/><path d="M533.539 127.532C533.954 127.758 534.417 127.876 534.846 128.076 535.251 128.269 535.65 128.487 536.05 128.691 536.518 128.929 536.932 128.222 536.464 127.983 535.655 127.574 534.651 126.851 533.71 126.912 533.398 126.932 533.232 127.364 533.539 127.532L533.539 127.532Z"/><path d="M535.792 120.142C536.401 120.268 537.084 120.041 537.639 119.803 538.166 119.577 539.014 119.218 539.277 118.677 539.409 118.409 539.195 118.121 538.897 118.184 538.39 118.29 537.927 118.774 537.449 118.996 536.903 119.25 536.362 119.276 535.792 119.421 535.446 119.509 535.426 120.066 535.792 120.142L535.792 120.142Z"/><path d="M534.797 110.07C535.27 109.828 535.685 109.465 536.094 109.125 536.499 108.788 537.045 108.422 537.293 107.948 537.464 107.623 537.128 107.294 536.806 107.457 536.347 107.689 535.972 108.162 535.577 108.493 535.173 108.831 534.734 109.137 534.373 109.523 534.1 109.817 534.441 110.25 534.797 110.07L534.797 110.07Z"/><path d="M518.271 96.5772C518.022 97.0812 518.008 97.7013 518.037 98.2547 518.066 98.7251 518.027 99.3681 518.437 99.6723 518.573 99.7737 518.802 99.6981 518.88 99.5563 519.085 99.1575 518.88 98.535 518.851 98.0962 518.812 97.5882 518.793 97.0388 518.563 96.5772 518.51 96.4665 518.325 96.466 518.271 96.5772L518.271 96.5772Z"/><path d="M412.245 156.574 283.425 156.574C262.862 156.574 246.193 173.244 246.193 193.807L246.193 238.141 449.477 238.141 449.477 193.807C449.477 173.244 432.807 156.574 412.245 156.574Z" fill="#FFFFFF"/><path d="M482.057 230.167 460.391 216.145C457.768 214.184 454.512 213.022 450.985 213.022L450.985 213.022C442.303 213.022 435.264 220.06 435.264 228.743L435.264 268.209 259.127 268.209 259.127 228.743C259.127 220.06 252.089 213.022 243.406 213.022L243.406 213.022C239.879 213.022 236.623 214.184 234.001 216.145L212.335 230.167C207.721 232.907 204.628 237.939 204.628 243.693L204.628 313.931C204.628 316.387 206.619 318.378 209.075 318.378L236.07 318.378 458.322 318.378 458.326 318.378 485.316 318.378C487.773 318.378 489.762 316.387 489.762 313.931L489.762 243.693C489.762 237.939 486.67 232.907 482.057 230.167Z" fill="#FFFFFF"/><path d="M462.156 259.284C462.092 256.935 461.003 254.731 459.175 253.255L435.941 238.413C435.723 238.237 435.452 238.141 435.172 238.141L260.196 238.141C259.916 238.141 259.644 238.237 259.427 238.413L235.221 253.255C233.393 254.732 232.303 256.935 232.24 259.284L231.882 272.593C231.882 279.008 237.082 284.208 243.497 284.208L450.899 284.208C457.314 284.208 462.514 279.008 462.514 272.593L462.156 259.284Z" fill="#FFFFFF"/><path d="M483.958 230.394 483.958 230.356 483.389 229.988C483.147 229.823 482.901 229.663 482.65 229.51L460.866 215.411 460.862 215.417C458.1 213.365 454.682 212.148 450.985 212.148 450.773 212.148 450.562 212.153 450.351 212.161L450.351 193.807C450.351 188.663 449.343 183.672 447.356 178.973 445.437 174.436 442.689 170.36 439.19 166.861 435.69 163.362 431.615 160.614 427.077 158.695 422.379 156.707 417.388 155.7 412.244 155.7L283.425 155.7C278.281 155.7 273.291 156.707 268.592 158.695 264.054 160.614 259.979 163.362 256.48 166.861 252.98 170.36 250.233 174.436 248.313 178.973 246.326 183.672 245.318 188.663 245.318 193.807L245.318 212.258C244.691 212.186 244.053 212.148 243.406 212.148 239.709 212.148 236.291 213.365 233.529 215.417L233.525 215.411 211.741 229.51C211.49 229.663 211.244 229.823 211.001 229.989L210.433 230.357 210.433 230.395C206.381 233.424 203.754 238.258 203.754 243.694L203.754 313.931C203.754 316.866 206.141 319.253 209.075 319.253L235.195 319.253 236.07 319.253 458.322 319.253 459.201 319.253 485.316 319.253C488.251 319.253 490.64 316.866 490.64 313.931L490.64 243.693C490.64 238.257 488.012 233.423 483.958 230.394ZM460.19 217.103 460.199 217.062 475.86 227.198C475.263 227.133 474.657 227.098 474.043 227.098 464.892 227.098 457.447 234.543 457.447 243.693L457.447 251.114 436.447 237.699C436.35 237.625 436.247 237.56 436.138 237.504L436.138 228.742C436.138 220.556 442.799 213.896 450.985 213.896 454.459 213.896 457.658 215.096 460.19 217.103ZM461.282 259.308 461.64 272.605C461.634 278.522 456.818 283.334 450.899 283.334L243.497 283.334C237.579 283.334 232.763 278.522 232.757 272.605L233.115 259.308C233.117 259.238 233.123 259.169 233.126 259.099L461.271 259.099C461.274 259.169 461.28 259.238 461.282 259.308ZM233.443 257.35C233.856 256.039 234.642 254.862 235.728 253.97L259.884 239.159 259.932 239.129 259.976 239.093C260.038 239.043 260.116 239.016 260.196 239.016L435.171 239.016C435.251 239.016 435.329 239.044 435.391 239.093L435.428 239.124 458.661 253.966C459.751 254.857 460.538 256.036 460.952 257.35L233.443 257.35ZM247.067 193.807C247.067 173.759 263.377 157.449 283.425 157.449L412.245 157.449C432.293 157.449 448.602 173.759 448.602 193.807L448.602 212.319C440.577 213.479 434.39 220.401 434.39 228.743L434.39 237.267 260.196 237.267 260.002 237.267 260.002 228.743C260.002 220.85 254.462 214.227 247.067 212.555L247.067 193.807ZM234.193 217.062 234.202 217.103C236.734 215.096 239.933 213.896 243.407 213.896 251.593 213.896 258.254 220.556 258.254 228.742L258.254 238.107 236.945 251.172 236.945 243.693C236.945 234.542 229.5 227.097 220.35 227.097 219.735 227.097 219.129 227.132 218.532 227.197L234.193 217.062ZM209.075 317.503C207.105 317.503 205.503 315.901 205.503 313.931L205.503 243.693C205.503 235.507 212.163 228.847 220.349 228.847 228.535 228.847 235.195 235.507 235.195 243.693L235.195 252.245 234.716 252.54 234.672 252.575C232.641 254.215 231.437 256.652 231.367 259.261L231.009 272.571 231.008 272.594C231.008 276.296 232.628 279.627 235.196 281.916L235.196 317.503 209.075 317.503ZM236.945 283.221C238.851 284.401 241.096 285.083 243.497 285.083L450.899 285.083C453.298 285.083 455.542 284.402 457.447 283.224L457.447 317.503 236.945 317.503 236.945 283.221ZM488.889 313.931C488.889 315.901 487.286 317.503 485.316 317.503L459.201 317.503 459.201 281.916C461.768 279.627 463.388 276.296 463.388 272.594L463.03 259.261C462.96 256.652 461.755 254.215 459.725 252.575L459.687 252.544 459.196 252.231 459.196 243.693C459.196 235.507 465.856 228.847 474.043 228.847 482.229 228.847 488.889 235.507 488.889 243.693L488.889 313.931Z"/></g></svg>